<svg xmlns="http://www.w3.org/2000/svg" xmlns:xlink="http://www.w3.org/1999/xlink" width="500" zoomAndPan="magnify" viewBox="0 0 375 374.999991" height="500" preserveAspectRatio="xMidYMid meet" version="1.0"><defs><g/><clipPath id="6bd349d809"><path d="M 5 92.199219 L 141 92.199219 L 141 227.949219 L 5 227.949219 Z M 5 92.199219 " clip-rule="nonzero"/></clipPath><clipPath id="826ca24f5f"><path d="M 73 227.597656 C 68.65625 227.601562 64.351562 227.1875 60.089844 226.363281 C 57.964844 225.949219 55.859375 225.433594 53.777344 224.820312 C 51.695312 224.207031 49.652344 223.488281 47.644531 222.671875 C 45.867188 221.949219 44.121094 221.152344 42.410156 220.285156 C 40.699219 219.414062 39.027344 218.472656 37.394531 217.460938 C 35.761719 216.449219 34.175781 215.371094 32.636719 214.222656 C 31.097656 213.078125 29.609375 211.867188 28.171875 210.597656 C 26.734375 209.324219 25.351562 207.992188 24.027344 206.601562 C 22.703125 205.210938 21.441406 203.769531 20.238281 202.273438 C 19.039062 200.773438 17.902344 199.230469 16.832031 197.636719 C 15.761719 196.042969 14.757812 194.40625 13.828125 192.726562 C 12.894531 191.050781 12.035156 189.335938 11.25 187.582031 C 10.464844 185.832031 9.753906 184.050781 9.117188 182.238281 C 8.484375 180.425781 7.925781 178.589844 7.445312 176.730469 C 6.96875 174.871094 6.566406 172.996094 6.246094 171.105469 C 5.929688 169.210938 5.6875 167.308594 5.53125 165.394531 C 5.371094 163.480469 5.292969 161.5625 5.300781 159.644531 C 5.304688 157.726562 5.390625 155.808594 5.554688 153.894531 C 5.722656 151.984375 5.96875 150.082031 6.296875 148.191406 C 7.265625 142.652344 8.898438 137.316406 11.199219 132.183594 C 13.503906 127.054688 16.398438 122.285156 19.894531 117.878906 C 21.289062 116.117188 22.773438 114.429688 24.339844 112.8125 C 27.492188 109.5625 30.933594 106.65625 34.664062 104.097656 L 35.363281 103.625 C 35.597656 103.464844 35.832031 103.304688 36.070312 103.15625 L 36.785156 102.699219 C 37.019531 102.546875 37.257812 102.394531 37.503906 102.25 C 38.46875 101.65625 39.445312 101.089844 40.433594 100.546875 C 42.417969 99.457031 44.453125 98.46875 46.535156 97.589844 C 50.722656 95.8125 55.042969 94.476562 59.496094 93.574219 C 61.71875 93.128906 63.957031 92.792969 66.214844 92.5625 C 68.472656 92.335938 70.734375 92.222656 73 92.226562 C 77.542969 92.226562 82.042969 92.675781 86.5 93.570312 C 93.210938 94.921875 99.566406 97.242188 105.566406 100.53125 C 107.550781 101.617188 109.476562 102.800781 111.339844 104.082031 C 114.128906 105.992188 116.757812 108.097656 119.230469 110.402344 C 121.699219 112.707031 123.988281 115.183594 126.085938 117.828125 C 128.1875 120.476562 130.082031 123.265625 131.761719 126.195312 C 133.445312 129.125 134.902344 132.164062 136.128906 135.3125 C 137.753906 139.484375 138.949219 143.777344 139.714844 148.191406 C 140.042969 150.082031 140.289062 151.984375 140.457031 153.898438 C 140.621094 155.808594 140.707031 157.726562 140.710938 159.644531 C 140.714844 161.566406 140.636719 163.480469 140.476562 165.394531 C 140.316406 167.308594 140.078125 169.210938 139.757812 171.105469 C 139.4375 172.996094 139.035156 174.875 138.558594 176.730469 C 138.078125 178.589844 137.519531 180.425781 136.882812 182.238281 C 136.25 184.050781 135.539062 185.832031 134.75 187.582031 C 133.964844 189.335938 133.105469 191.050781 132.171875 192.726562 C 131.242188 194.40625 130.238281 196.042969 129.167969 197.636719 C 128.097656 199.230469 126.960938 200.773438 125.757812 202.269531 C 124.558594 203.769531 123.292969 205.210938 121.96875 206.601562 C 120.644531 207.992188 119.265625 209.324219 117.828125 210.59375 C 116.390625 211.867188 114.898438 213.078125 113.359375 214.222656 C 111.820312 215.371094 110.234375 216.449219 108.601562 217.460938 C 106.972656 218.472656 105.300781 219.414062 103.589844 220.285156 C 101.875 221.152344 100.132812 221.949219 98.351562 222.671875 C 96.34375 223.484375 94.296875 224.199219 92.21875 224.816406 C 90.136719 225.433594 88.035156 225.949219 85.90625 226.359375 C 83.78125 226.773438 81.636719 227.078125 79.480469 227.289062 C 77.328125 227.503906 75.164062 227.597656 73 227.597656 Z M 73 227.597656 C 75.164062 227.59375 77.324219 227.484375 79.480469 227.273438 C 81.632812 227.0625 83.777344 226.734375 85.894531 226.308594 C 90.148438 225.449219 94.273438 224.175781 98.265625 222.480469 C 99.261719 222.058594 100.246094 221.613281 101.21875 221.144531 C 102.191406 220.675781 103.148438 220.179688 104.09375 219.65625 C 108.835938 217.054688 113.183594 213.90625 117.136719 210.214844 C 121.089844 206.519531 124.527344 202.398438 127.445312 197.84375 C 128.078125 196.847656 128.6875 195.832031 129.265625 194.804688 C 129.84375 193.773438 130.394531 192.726562 130.917969 191.667969 C 131.4375 190.609375 131.929688 189.535156 132.394531 188.445312 C 132.855469 187.359375 133.289062 186.261719 133.691406 185.148438 C 134.09375 184.039062 134.464844 182.917969 134.808594 181.785156 C 135.148438 180.65625 135.457031 179.515625 135.738281 178.367188 C 136.015625 177.21875 136.261719 176.0625 136.480469 174.902344 C 136.695312 173.738281 136.878906 172.574219 137.03125 171.402344 C 137.179688 170.230469 137.300781 169.054688 137.386719 167.875 C 137.476562 166.699219 137.53125 165.519531 137.554688 164.335938 C 137.574219 163.15625 137.566406 161.972656 137.523438 160.792969 C 137.480469 159.613281 137.40625 158.433594 137.300781 157.257812 C 137.195312 156.078125 137.054688 154.90625 136.882812 153.738281 C 136.714844 152.566406 136.511719 151.402344 136.277344 150.246094 C 136.042969 149.089844 135.773438 147.9375 135.476562 146.792969 C 135.179688 145.648438 134.851562 144.515625 134.492188 143.390625 C 134.132812 142.265625 133.742188 141.148438 133.320312 140.046875 C 132.898438 138.941406 132.449219 137.851562 131.96875 136.769531 C 131.488281 135.691406 130.976562 134.625 130.4375 133.574219 C 129.898438 132.523438 129.332031 131.488281 128.734375 130.464844 C 128.140625 129.445312 127.515625 128.441406 126.867188 127.457031 C 126.214844 126.46875 125.539062 125.5 124.832031 124.550781 C 124.128906 123.605469 123.402344 122.675781 122.644531 121.765625 C 121.890625 120.855469 121.113281 119.96875 120.308594 119.101562 C 119.503906 118.234375 118.679688 117.390625 117.828125 116.570312 C 116.980469 115.75 116.109375 114.949219 115.214844 114.175781 C 114.320312 113.402344 113.40625 112.65625 112.472656 111.933594 C 111.539062 111.207031 110.585938 110.511719 109.613281 109.839844 C 108.640625 109.167969 107.652344 108.523438 106.644531 107.90625 C 105.636719 107.289062 104.613281 106.703125 103.570312 106.140625 C 102.53125 105.578125 101.476562 105.046875 100.40625 104.542969 C 99.339844 104.039062 98.257812 103.566406 97.160156 103.125 C 95.246094 102.351562 93.296875 101.667969 91.316406 101.078125 C 89.335938 100.492188 87.332031 100 85.304688 99.609375 C 81.238281 98.824219 77.136719 98.429688 72.996094 98.429688 C 70.925781 98.429688 68.867188 98.527344 66.8125 98.726562 C 64.757812 98.921875 62.714844 99.214844 60.6875 99.605469 C 56.621094 100.390625 52.667969 101.5625 48.832031 103.113281 C 47.132812 103.800781 45.46875 104.558594 43.835938 105.386719 C 42.203125 106.214844 40.609375 107.113281 39.050781 108.078125 C 37.492188 109.039062 35.980469 110.070312 34.511719 111.160156 C 33.039062 112.253906 31.621094 113.40625 30.246094 114.621094 C 28.875 115.832031 27.558594 117.101562 26.292969 118.425781 C 25.027344 119.75 23.824219 121.125 22.675781 122.554688 C 21.527344 123.980469 20.441406 125.453125 19.417969 126.972656 C 18.398438 128.492188 17.441406 130.050781 16.550781 131.652344 C 15.660156 133.253906 14.839844 134.886719 14.085938 136.558594 C 13.335938 138.226562 12.65625 139.925781 12.050781 141.65625 C 11.441406 143.382812 10.910156 145.132812 10.449219 146.90625 C 9.992188 148.679688 9.609375 150.46875 9.300781 152.273438 C 8.996094 154.078125 8.765625 155.894531 8.613281 157.71875 C 8.457031 159.542969 8.382812 161.371094 8.386719 163.203125 C 8.386719 165.035156 8.46875 166.863281 8.625 168.6875 C 8.78125 170.511719 9.015625 172.324219 9.328125 174.128906 C 10.800781 182.65625 13.871094 190.5625 18.542969 197.84375 C 23.25 205.183594 29.195312 211.324219 36.382812 216.257812 C 43.605469 221.222656 51.507812 224.570312 60.097656 226.304688 C 62.21875 226.734375 64.355469 227.058594 66.511719 227.269531 C 68.667969 227.484375 70.832031 227.59375 73 227.597656 Z M 73 227.597656 " clip-rule="nonzero"/></clipPath><linearGradient x1="-0.01996" gradientTransform="matrix(0, 0.103446, -0.103446, 0, 140.71251, 92.225498)" y1="654.5" x2="1308.643286" gradientUnits="userSpaceOnUse" y2="654.5" id="45182c1bc1"><stop stop-opacity="1" stop-color="rgb(31.759644%, 43.919373%, 100%)" offset="0"/><stop stop-opacity="1" stop-color="rgb(31.759644%, 43.919373%, 100%)" offset="0.25"/><stop stop-opacity="1" stop-color="rgb(31.759644%, 43.919373%, 100%)" offset="0.375"/><stop stop-opacity="1" stop-color="rgb(31.759644%, 43.919373%, 100%)" offset="0.4375"/><stop stop-opacity="1" stop-color="rgb(31.759644%, 43.919373%, 100%)" offset="0.46875"/><stop stop-opacity="1" stop-color="rgb(31.726074%, 44.009399%, 100%)" offset="0.484375"/><stop stop-opacity="1" stop-color="rgb(31.62384%, 44.297791%, 100%)" offset="0.488281"/><stop stop-opacity="1" stop-color="rgb(31.55365%, 44.496155%, 100%)" offset="0.492188"/><stop stop-opacity="1" stop-color="rgb(31.481934%, 44.694519%, 100%)" offset="0.496094"/><stop stop-opacity="1" stop-color="rgb(31.411743%, 44.892883%, 100%)" offset="0.5"/><stop stop-opacity="1" stop-color="rgb(31.341553%, 45.089722%, 100%)" offset="0.503906"/><stop stop-opacity="1" stop-color="rgb(31.271362%, 45.288086%, 100%)" offset="0.507812"/><stop stop-opacity="1" stop-color="rgb(31.199646%, 45.484924%, 100%)" offset="0.511719"/><stop stop-opacity="1" stop-color="rgb(31.129456%, 45.683289%, 100%)" offset="0.515625"/><stop stop-opacity="1" stop-color="rgb(31.057739%, 45.880127%, 100%)" offset="0.519531"/><stop stop-opacity="1" stop-color="rgb(30.987549%, 46.078491%, 100%)" offset="0.523438"/><stop stop-opacity="1" stop-color="rgb(30.917358%, 46.276855%, 100%)" offset="0.527344"/><stop stop-opacity="1" stop-color="rgb(30.847168%, 46.47522%, 100%)" offset="0.53125"/><stop stop-opacity="1" stop-color="rgb(30.775452%, 46.672058%, 100%)" offset="0.535156"/><stop stop-opacity="1" stop-color="rgb(30.705261%, 46.870422%, 100%)" offset="0.539062"/><stop stop-opacity="1" stop-color="rgb(30.635071%, 47.067261%, 100%)" offset="0.542969"/><stop stop-opacity="1" stop-color="rgb(30.56488%, 47.265625%, 100%)" offset="0.546875"/><stop stop-opacity="1" stop-color="rgb(30.493164%, 47.462463%, 100%)" offset="0.550781"/><stop stop-opacity="1" stop-color="rgb(30.422974%, 47.660828%, 100%)" offset="0.554688"/><stop stop-opacity="1" stop-color="rgb(30.352783%, 47.859192%, 100%)" offset="0.558594"/><stop stop-opacity="1" stop-color="rgb(30.282593%, 48.057556%, 100%)" offset="0.5625"/><stop stop-opacity="1" stop-color="rgb(30.210876%, 48.254395%, 100%)" offset="0.566406"/><stop stop-opacity="1" stop-color="rgb(30.140686%, 48.452759%, 100%)" offset="0.570312"/><stop stop-opacity="1" stop-color="rgb(30.070496%, 48.649597%, 100%)" offset="0.574219"/><stop stop-opacity="1" stop-color="rgb(30.000305%, 48.847961%, 100%)" offset="0.578125"/><stop stop-opacity="1" stop-color="rgb(29.928589%, 49.0448%, 100%)" offset="0.582031"/><stop stop-opacity="1" stop-color="rgb(29.858398%, 49.243164%, 100%)" offset="0.585938"/><stop stop-opacity="1" stop-color="rgb(29.786682%, 49.441528%, 100%)" offset="0.589844"/><stop stop-opacity="1" stop-color="rgb(29.716492%, 49.639893%, 100%)" offset="0.59375"/><stop stop-opacity="1" stop-color="rgb(29.646301%, 49.836731%, 100%)" offset="0.597656"/><stop stop-opacity="1" stop-color="rgb(29.576111%, 50.035095%, 100%)" offset="0.601562"/><stop stop-opacity="1" stop-color="rgb(29.504395%, 50.231934%, 100%)" offset="0.605469"/><stop stop-opacity="1" stop-color="rgb(29.434204%, 50.430298%, 100%)" offset="0.609375"/><stop stop-opacity="1" stop-color="rgb(29.364014%, 50.627136%, 100%)" offset="0.613281"/><stop stop-opacity="1" stop-color="rgb(29.293823%, 50.8255%, 100%)" offset="0.617188"/><stop stop-opacity="1" stop-color="rgb(29.222107%, 51.022339%, 100%)" offset="0.621094"/><stop stop-opacity="1" stop-color="rgb(29.151917%, 51.220703%, 100%)" offset="0.625"/><stop stop-opacity="1" stop-color="rgb(29.081726%, 51.419067%, 100%)" offset="0.628906"/><stop stop-opacity="1" stop-color="rgb(29.011536%, 51.617432%, 100%)" offset="0.632812"/><stop stop-opacity="1" stop-color="rgb(28.939819%, 51.81427%, 100%)" offset="0.636719"/><stop stop-opacity="1" stop-color="rgb(28.869629%, 52.012634%, 100%)" offset="0.640625"/><stop stop-opacity="1" stop-color="rgb(28.799438%, 52.209473%, 100%)" offset="0.644531"/><stop stop-opacity="1" stop-color="rgb(28.729248%, 52.407837%, 100%)" offset="0.648437"/><stop stop-opacity="1" stop-color="rgb(28.657532%, 52.604675%, 100%)" offset="0.652344"/><stop stop-opacity="1" stop-color="rgb(28.587341%, 52.80304%, 100%)" offset="0.65625"/><stop stop-opacity="1" stop-color="rgb(28.515625%, 53.001404%, 100%)" offset="0.660156"/><stop stop-opacity="1" stop-color="rgb(28.445435%, 53.199768%, 100%)" offset="0.664062"/><stop stop-opacity="1" stop-color="rgb(28.375244%, 53.396606%, 100%)" offset="0.667969"/><stop stop-opacity="1" stop-color="rgb(28.305054%, 53.594971%, 100%)" offset="0.671875"/><stop stop-opacity="1" stop-color="rgb(28.233337%, 53.791809%, 100%)" offset="0.675781"/><stop stop-opacity="1" stop-color="rgb(28.163147%, 53.990173%, 100%)" offset="0.679687"/><stop stop-opacity="1" stop-color="rgb(28.092957%, 54.187012%, 100%)" offset="0.683594"/><stop stop-opacity="1" stop-color="rgb(28.022766%, 54.385376%, 100%)" offset="0.6875"/><stop stop-opacity="1" stop-color="rgb(27.95105%, 54.58374%, 100%)" offset="0.691406"/><stop stop-opacity="1" stop-color="rgb(27.880859%, 54.782104%, 100%)" offset="0.695312"/><stop stop-opacity="1" stop-color="rgb(27.810669%, 54.978943%, 100%)" offset="0.699219"/><stop stop-opacity="1" stop-color="rgb(27.740479%, 55.177307%, 100%)" offset="0.703125"/><stop stop-opacity="1" stop-color="rgb(27.668762%, 55.374146%, 100%)" offset="0.707031"/><stop stop-opacity="1" stop-color="rgb(27.598572%, 55.57251%, 100%)" offset="0.710937"/><stop stop-opacity="1" stop-color="rgb(27.528381%, 55.769348%, 100%)" offset="0.714844"/><stop stop-opacity="1" stop-color="rgb(27.458191%, 55.967712%, 100%)" offset="0.71875"/><stop stop-opacity="1" stop-color="rgb(27.386475%, 56.166077%, 100%)" offset="0.722656"/><stop stop-opacity="1" stop-color="rgb(27.316284%, 56.364441%, 100%)" offset="0.726562"/><stop stop-opacity="1" stop-color="rgb(27.246094%, 56.561279%, 100%)" offset="0.730469"/><stop stop-opacity="1" stop-color="rgb(27.175903%, 56.759644%, 100%)" offset="0.734375"/><stop stop-opacity="1" stop-color="rgb(27.104187%, 56.956482%, 100%)" offset="0.738281"/><stop stop-opacity="1" stop-color="rgb(27.033997%, 57.154846%, 100%)" offset="0.742188"/><stop stop-opacity="1" stop-color="rgb(26.96228%, 57.351685%, 100%)" offset="0.746094"/><stop stop-opacity="1" stop-color="rgb(26.89209%, 57.550049%, 100%)" offset="0.75"/><stop stop-opacity="1" stop-color="rgb(26.821899%, 57.748413%, 100%)" offset="0.753906"/><stop stop-opacity="1" stop-color="rgb(26.751709%, 57.946777%, 100%)" offset="0.757812"/><stop stop-opacity="1" stop-color="rgb(26.679993%, 58.143616%, 100%)" offset="0.761719"/><stop stop-opacity="1" stop-color="rgb(26.609802%, 58.34198%, 100%)" offset="0.765625"/><stop stop-opacity="1" stop-color="rgb(26.539612%, 58.538818%, 100%)" offset="0.769531"/><stop stop-opacity="1" stop-color="rgb(26.469421%, 58.737183%, 100%)" offset="0.773438"/><stop stop-opacity="1" stop-color="rgb(26.397705%, 58.934021%, 100%)" offset="0.777344"/><stop stop-opacity="1" stop-color="rgb(26.327515%, 59.132385%, 100%)" offset="0.78125"/><stop stop-opacity="1" stop-color="rgb(26.257324%, 59.329224%, 100%)" offset="0.785156"/><stop stop-opacity="1" stop-color="rgb(26.187134%, 59.527588%, 100%)" offset="0.789062"/><stop stop-opacity="1" stop-color="rgb(26.115417%, 59.725952%, 100%)" offset="0.792969"/><stop stop-opacity="1" stop-color="rgb(26.045227%, 59.924316%, 100%)" offset="0.796875"/><stop stop-opacity="1" stop-color="rgb(25.975037%, 60.121155%, 100%)" offset="0.800781"/><stop stop-opacity="1" stop-color="rgb(25.904846%, 60.319519%, 100%)" offset="0.804688"/><stop stop-opacity="1" stop-color="rgb(25.83313%, 60.516357%, 100%)" offset="0.808594"/><stop stop-opacity="1" stop-color="rgb(25.762939%, 60.714722%, 100%)" offset="0.8125"/><stop stop-opacity="1" stop-color="rgb(25.691223%, 60.91156%, 100%)" offset="0.816406"/><stop stop-opacity="1" stop-color="rgb(25.621033%, 61.109924%, 100%)" offset="0.820312"/><stop stop-opacity="1" stop-color="rgb(25.550842%, 61.308289%, 100%)" offset="0.824219"/><stop stop-opacity="1" stop-color="rgb(25.480652%, 61.506653%, 100%)" offset="0.828125"/><stop stop-opacity="1" stop-color="rgb(25.408936%, 61.703491%, 100%)" offset="0.832031"/><stop stop-opacity="1" stop-color="rgb(25.338745%, 61.901855%, 100%)" offset="0.835938"/><stop stop-opacity="1" stop-color="rgb(25.268555%, 62.098694%, 100%)" offset="0.839844"/><stop stop-opacity="1" stop-color="rgb(25.198364%, 62.297058%, 100%)" offset="0.84375"/><stop stop-opacity="1" stop-color="rgb(25.126648%, 62.493896%, 100%)" offset="0.847656"/><stop stop-opacity="1" stop-color="rgb(25.056458%, 62.692261%, 100%)" offset="0.851563"/><stop stop-opacity="1" stop-color="rgb(24.986267%, 62.890625%, 100%)" offset="0.855469"/><stop stop-opacity="1" stop-color="rgb(24.916077%, 63.088989%, 100%)" offset="0.859375"/><stop stop-opacity="1" stop-color="rgb(24.84436%, 63.285828%, 100%)" offset="0.863281"/><stop stop-opacity="1" stop-color="rgb(24.77417%, 63.484192%, 100%)" offset="0.867188"/><stop stop-opacity="1" stop-color="rgb(24.703979%, 63.68103%, 100%)" offset="0.871094"/><stop stop-opacity="1" stop-color="rgb(24.633789%, 63.879395%, 100%)" offset="0.875"/><stop stop-opacity="1" stop-color="rgb(24.562073%, 64.076233%, 100%)" offset="0.878906"/><stop stop-opacity="1" stop-color="rgb(24.491882%, 64.274597%, 100%)" offset="0.882812"/><stop stop-opacity="1" stop-color="rgb(24.420166%, 64.472961%, 100%)" offset="0.886719"/><stop stop-opacity="1" stop-color="rgb(24.349976%, 64.671326%, 100%)" offset="0.890625"/><stop stop-opacity="1" stop-color="rgb(24.279785%, 64.868164%, 100%)" offset="0.894531"/><stop stop-opacity="1" stop-color="rgb(24.209595%, 65.066528%, 100%)" offset="0.898437"/><stop stop-opacity="1" stop-color="rgb(24.137878%, 65.263367%, 100%)" offset="0.902344"/><stop stop-opacity="1" stop-color="rgb(24.067688%, 65.461731%, 100%)" offset="0.90625"/><stop stop-opacity="1" stop-color="rgb(23.997498%, 65.658569%, 100%)" offset="0.910156"/><stop stop-opacity="1" stop-color="rgb(23.927307%, 65.856934%, 100%)" offset="0.914062"/><stop stop-opacity="1" stop-color="rgb(23.855591%, 66.055298%, 100%)" offset="0.917969"/><stop stop-opacity="1" stop-color="rgb(23.7854%, 66.253662%, 100%)" offset="0.921875"/><stop stop-opacity="1" stop-color="rgb(23.71521%, 66.4505%, 100%)" offset="0.925781"/><stop stop-opacity="1" stop-color="rgb(23.64502%, 66.648865%, 100%)" offset="0.929687"/><stop stop-opacity="1" stop-color="rgb(23.573303%, 66.845703%, 100%)" offset="0.933594"/><stop stop-opacity="1" stop-color="rgb(23.503113%, 67.044067%, 100%)" offset="0.9375"/><stop stop-opacity="1" stop-color="rgb(23.432922%, 67.240906%, 100%)" offset="0.941406"/><stop stop-opacity="1" stop-color="rgb(23.362732%, 67.43927%, 100%)" offset="0.945312"/><stop stop-opacity="1" stop-color="rgb(23.291016%, 67.637634%, 100%)" offset="0.949219"/><stop stop-opacity="1" stop-color="rgb(23.220825%, 67.835999%, 100%)" offset="0.953125"/><stop stop-opacity="1" stop-color="rgb(23.150635%, 68.032837%, 100%)" offset="0.957031"/><stop stop-opacity="1" stop-color="rgb(23.080444%, 68.231201%, 100%)" offset="0.960938"/><stop stop-opacity="1" stop-color="rgb(23.008728%, 68.42804%, 100%)" offset="0.964844"/><stop stop-opacity="1" stop-color="rgb(22.938538%, 68.626404%, 100%)" offset="0.96875"/><stop stop-opacity="1" stop-color="rgb(22.866821%, 68.823242%, 100%)" offset="0.972656"/><stop stop-opacity="1" stop-color="rgb(22.796631%, 69.021606%, 100%)" offset="0.976562"/><stop stop-opacity="1" stop-color="rgb(22.72644%, 69.218445%, 100%)" offset="0.980469"/><stop stop-opacity="1" stop-color="rgb(22.65625%, 69.416809%, 100%)" offset="0.984375"/><stop stop-opacity="1" stop-color="rgb(22.584534%, 69.615173%, 100%)" offset="0.988281"/><stop stop-opacity="1" stop-color="rgb(22.514343%, 69.813538%, 100%)" offset="0.992188"/><stop stop-opacity="1" stop-color="rgb(22.444153%, 70.010376%, 100%)" offset="0.996094"/><stop stop-opacity="1" stop-color="rgb(22.373962%, 70.20874%, 100%)" offset="1"/></linearGradient><clipPath id="2b9708b899"><path d="M 17 130.488281 L 111.796875 130.488281 L 111.796875 224.238281 L 17 224.238281 Z M 17 130.488281 " clip-rule="nonzero"/></clipPath><clipPath id="72d5309e4c"><path d="M 0.0390625 0.488281 L 53 0.488281 L 53 94.160156 L 0.0390625 94.160156 Z M 0.0390625 0.488281 " clip-rule="nonzero"/></clipPath><clipPath id="640c740f8a"><path d="M 55 6 L 94.796875 6 L 94.796875 78 L 55 78 Z M 55 6 " clip-rule="nonzero"/></clipPath><clipPath id="a1cd92daf5"><path d="M 85.414062 6.1875 C 86.3125 10.6875 84.0625 15.328125 80.820312 18.566406 C 77.582031 21.808594 73.433594 23.964844 69.476562 26.28125 C 65.515625 28.59375 61.566406 31.230469 59.074219 35.085938 C 56.910156 38.4375 56.03125 42.453125 55.574219 46.421875 C 55.023438 51.21875 55.097656 56.269531 56.628906 60.800781 C 57.738281 58.074219 59.1875 55.457031 60.839844 53.023438 C 64.078125 48.222656 68.066406 43.984375 72.035156 39.773438 C 76.675781 34.851562 81.308594 29.929688 85.949219 25.011719 C 81.148438 34.011719 73.707031 41.257812 67.414062 49.296875 C 61.121094 57.328125 55.761719 66.914062 56.347656 77.101562 C 56.816406 71.894531 61.042969 67.757812 65.628906 65.234375 C 70.214844 62.714844 75.359375 61.3125 79.886719 58.679688 C 88.441406 53.675781 94.191406 44.1875 94.640625 34.300781 C 95.089844 24.300781 90.523438 14.792969 85.414062 6.1875 Z M 85.414062 6.1875 " clip-rule="nonzero"/></clipPath><linearGradient x1="-1204.20996" gradientTransform="matrix(0.0933736, 0, 0, 0.0933736, 187.407041, 0.489972)" y1="61" x2="-1204.20996" gradientUnits="userSpaceOnUse" y2="820.50006" id="3cf003f246"><stop stop-opacity="1" stop-color="rgb(21.148682%, 66.758728%, 97.921753%)" offset="0"/><stop stop-opacity="1" stop-color="rgb(21.122742%, 66.610718%, 97.854614%)" offset="0.0625"/><stop stop-opacity="1" stop-color="rgb(21.070862%, 66.314697%, 97.720337%)" offset="0.125"/><stop stop-opacity="1" stop-color="rgb(21.017456%, 66.017151%, 97.587585%)" offset="0.1875"/><stop stop-opacity="1" stop-color="rgb(20.965576%, 65.72113%, 97.453308%)" offset="0.25"/><stop stop-opacity="1" stop-color="rgb(20.913696%, 65.42511%, 97.320557%)" offset="0.3125"/><stop stop-opacity="1" stop-color="rgb(20.861816%, 65.129089%, 97.186279%)" offset="0.375"/><stop stop-opacity="1" stop-color="rgb(20.809937%, 64.833069%, 97.053528%)" offset="0.4375"/><stop stop-opacity="1" stop-color="rgb(20.758057%, 64.535522%, 96.91925%)" offset="0.5"/><stop stop-opacity="1" stop-color="rgb(20.706177%, 64.239502%, 96.786499%)" offset="0.5625"/><stop stop-opacity="1" stop-color="rgb(20.652771%, 63.943481%, 96.652222%)" offset="0.625"/><stop stop-opacity="1" stop-color="rgb(20.600891%, 63.647461%, 96.51947%)" offset="0.6875"/><stop stop-opacity="1" stop-color="rgb(20.549011%, 63.35144%, 96.385193%)" offset="0.75"/><stop stop-opacity="1" stop-color="rgb(20.497131%, 63.053894%, 96.252441%)" offset="0.8125"/><stop stop-opacity="1" stop-color="rgb(20.445251%, 62.757874%, 96.118164%)" offset="0.875"/><stop stop-opacity="1" stop-color="rgb(20.393372%, 62.461853%, 95.985413%)" offset="0.9375"/><stop stop-opacity="1" stop-color="rgb(20.339966%, 62.165833%, 95.851135%)" offset="1"/></linearGradient><clipPath id="af5eb9ae5c"><rect x="0" width="95" y="0" height="95"/></clipPath><clipPath id="69f5fe2bdb"><path d="M 57 120 L 81 120 L 81 162.6875 L 57 162.6875 Z M 57 120 " clip-rule="nonzero"/></clipPath><clipPath id="7eb09eb979"><path d="M 80.796875 138.386719 C 80.453125 134.683594 78.871094 131.179688 76.726562 128.136719 C 74.582031 125.09375 71.890625 122.488281 69.117188 120.011719 C 70.226562 122.292969 69.710938 125.089844 68.4375 127.285156 C 67.167969 129.476562 65.242188 131.199219 63.378906 132.917969 C 61.515625 134.632812 59.644531 136.433594 58.535156 138.714844 C 57.316406 141.210938 56 147.976562 61.746094 152.539062 C 62.207031 148.902344 62.460938 147.675781 63.578125 145.257812 C 64.691406 142.84375 66.441406 140.789062 67.941406 138.59375 C 69.441406 136.394531 70.738281 133.90625 70.726562 131.246094 C 70.890625 133.308594 70.199219 135.355469 69.261719 137.199219 C 68.324219 139.046875 67.140625 140.761719 66.210938 142.605469 C 64.523438 145.949219 63.265625 150.699219 63.269531 162.863281 C 63.316406 161.425781 63.832031 159.96875 64.636719 158.738281 C 64.753906 158.554688 64.878906 158.378906 65.007812 158.207031 C 65.105469 158.082031 65.203125 157.957031 65.304688 157.835938 C 66.898438 155.9375 69.085938 154.617188 71.25 153.382812 C 73.546875 152.066406 75.917969 150.753906 77.675781 148.773438 C 80.140625 145.996094 81.136719 142.089844 80.796875 138.386719 Z M 80.796875 138.386719 " clip-rule="nonzero"/></clipPath><linearGradient x1="2460.78" gradientTransform="matrix(-0.0357834, 0, 0, 0.0357834, 157.224427, 119.938297)" y1="2.099681" x2="2460.78" gradientUnits="userSpaceOnUse" y2="1194.687539" id="70ef544d7e"><stop stop-opacity="1" stop-color="rgb(48.48938%, 86.735535%, 76.325989%)" offset="0"/><stop stop-opacity="1" stop-color="rgb(48.590088%, 86.714172%, 76.16272%)" offset="0.03125"/><stop stop-opacity="1" stop-color="rgb(48.79303%, 86.672974%, 75.837708%)" offset="0.0625"/><stop stop-opacity="1" stop-color="rgb(48.995972%, 86.630249%, 75.511169%)" offset="0.09375"/><stop stop-opacity="1" stop-color="rgb(49.200439%, 86.587524%, 75.186157%)" offset="0.125"/><stop stop-opacity="1" stop-color="rgb(49.403381%, 86.546326%, 74.859619%)" offset="0.15625"/><stop stop-opacity="1" stop-color="rgb(49.606323%, 86.503601%, 74.533081%)" offset="0.1875"/><stop stop-opacity="1" stop-color="rgb(49.809265%, 86.460876%, 74.208069%)" offset="0.21875"/><stop stop-opacity="1" stop-color="rgb(50.012207%, 86.419678%, 73.881531%)" offset="0.25"/><stop stop-opacity="1" stop-color="rgb(50.216675%, 86.376953%, 73.554993%)" offset="0.28125"/><stop stop-opacity="1" stop-color="rgb(50.419617%, 86.335754%, 73.22998%)" offset="0.3125"/><stop stop-opacity="1" stop-color="rgb(50.622559%, 86.29303%, 72.903442%)" offset="0.34375"/><stop stop-opacity="1" stop-color="rgb(50.8255%, 86.250305%, 72.576904%)" offset="0.375"/><stop stop-opacity="1" stop-color="rgb(51.028442%, 86.209106%, 72.251892%)" offset="0.40625"/><stop stop-opacity="1" stop-color="rgb(51.23291%, 86.166382%, 71.925354%)" offset="0.4375"/><stop stop-opacity="1" stop-color="rgb(51.435852%, 86.123657%, 71.600342%)" offset="0.46875"/><stop stop-opacity="1" stop-color="rgb(51.638794%, 86.082458%, 71.273804%)" offset="0.5"/><stop stop-opacity="1" stop-color="rgb(51.841736%, 86.039734%, 70.947266%)" offset="0.53125"/><stop stop-opacity="1" stop-color="rgb(52.044678%, 85.997009%, 70.622253%)" offset="0.5625"/><stop stop-opacity="1" stop-color="rgb(52.249146%, 85.955811%, 70.295715%)" offset="0.59375"/><stop stop-opacity="1" stop-color="rgb(52.452087%, 85.913086%, 69.969177%)" offset="0.625"/><stop stop-opacity="1" stop-color="rgb(52.655029%, 85.870361%, 69.644165%)" offset="0.65625"/><stop stop-opacity="1" stop-color="rgb(52.857971%, 85.829163%, 69.317627%)" offset="0.6875"/><stop stop-opacity="1" stop-color="rgb(53.060913%, 85.786438%, 68.991089%)" offset="0.71875"/><stop stop-opacity="1" stop-color="rgb(53.265381%, 85.743713%, 68.666077%)" offset="0.75"/><stop stop-opacity="1" stop-color="rgb(53.468323%, 85.702515%, 68.339539%)" offset="0.78125"/><stop stop-opacity="1" stop-color="rgb(53.671265%, 85.65979%, 68.014526%)" offset="0.8125"/><stop stop-opacity="1" stop-color="rgb(53.874207%, 85.618591%, 67.687988%)" offset="0.84375"/><stop stop-opacity="1" stop-color="rgb(54.077148%, 85.575867%, 67.36145%)" offset="0.875"/><stop stop-opacity="1" stop-color="rgb(54.281616%, 85.533142%, 67.036438%)" offset="0.90625"/><stop stop-opacity="1" stop-color="rgb(54.484558%, 85.491943%, 66.7099%)" offset="0.9375"/><stop stop-opacity="1" stop-color="rgb(54.6875%, 85.449219%, 66.383362%)" offset="0.96875"/><stop stop-opacity="1" stop-color="rgb(54.890442%, 85.406494%, 66.05835%)" offset="1"/></linearGradient><clipPath id="e0b4038c39"><path d="M 56 119.9375 L 81.472656 119.9375 L 81.472656 162.6875 L 56 162.6875 Z M 56 119.9375 " clip-rule="nonzero"/></clipPath></defs><g clip-path="url(#6bd349d809)"><g clip-path="url(#826ca24f5f)"><path fill="url(#45182c1bc1)" d="M 140.714844 92.222656 L 5.292969 92.222656 L 5.292969 227.601562 L 140.714844 227.601562 Z M 140.714844 92.222656 " fill-rule="nonzero"/></g></g><g clip-path="url(#2b9708b899)"><g transform="matrix(1, 0, 0, 1, 17, 130)"><g clip-path="url(#af5eb9ae5c)"><g clip-path="url(#72d5309e4c)"><path fill="#1800ad" d="M 12.339844 0.488281 C 11.15625 6.429688 14.125 12.554688 18.402344 16.832031 C 22.675781 21.117188 28.148438 23.953125 33.367188 27.007812 C 38.597656 30.0625 43.816406 33.542969 47.09375 38.632812 C 49.953125 43.058594 51.121094 48.363281 51.714844 53.589844 C 52.464844 59.941406 52.359375 66.597656 50.34375 72.574219 C 48.878906 68.96875 46.964844 65.523438 44.789062 62.304688 C 40.511719 55.964844 35.246094 50.371094 30.007812 44.804688 C 23.882812 38.304688 17.765625 31.816406 11.640625 25.316406 C 17.980469 37.195312 27.804688 46.773438 36.105469 57.375 C 44.40625 67.980469 51.484375 80.640625 50.707031 94.085938 C 50.09375 87.207031 44.507812 81.742188 38.449219 78.417969 C 32.386719 75.09375 25.601562 73.238281 19.632812 69.765625 C 8.34375 63.191406 0.753906 50.660156 0.164062 37.605469 C -0.433594 24.402344 5.589844 11.84375 12.339844 0.488281 Z M 12.339844 0.488281 " fill-opacity="1" fill-rule="nonzero"/></g><g clip-path="url(#640c740f8a)"><g clip-path="url(#a1cd92daf5)"><path fill="url(#3cf003f246)" d="M 55.023438 6.1875 L 55.023438 77.101562 L 94.796875 77.101562 L 94.796875 6.1875 Z M 55.023438 6.1875 " fill-rule="nonzero"/></g></g></g></g></g><g clip-path="url(#69f5fe2bdb)"><g clip-path="url(#7eb09eb979)"><path fill="url(#70ef544d7e)" d="M 81.136719 120.011719 L 81.136719 162.6875 L 56 162.6875 L 56 120.011719 Z M 81.136719 120.011719 " fill-rule="nonzero"/></g></g><g clip-path="url(#e0b4038c39)"><path stroke-linecap="butt" transform="matrix(0.0357834, 0, 0, 0.0357834, 57.461005, 119.938286)" fill="none" stroke-linejoin="miter" d="M 652.142179 515.558287 C 642.535772 412.071082 598.324466 314.151226 538.393584 229.112689 C 478.462702 144.074151 403.2489 71.261951 325.742659 2.052153 C 356.745155 65.803765 342.335544 143.964988 306.748172 205.314998 C 271.269963 266.555844 217.45225 314.697044 165.381156 362.729081 C 113.310062 410.651953 61.02064 460.976428 30.018144 524.72804 C -4.040936 594.483656 -40.82911 783.555218 119.750721 911.058442 C 132.63204 809.427019 139.727682 775.149611 170.948505 707.577269 C 202.060165 640.114091 250.965511 582.693975 292.88438 521.343965 C 334.803248 459.884791 371.045602 390.347502 370.718111 316.007009 C 375.302987 373.645453 355.981009 430.847241 329.781717 482.372517 C 303.582424 534.006956 270.505817 581.929829 244.524852 633.455104 C 197.366125 726.899248 162.215408 859.64233 162.324572 1199.578151 C 163.634536 1159.405903 178.044147 1118.687835 200.531873 1084.301264 C 203.806785 1079.170569 207.300024 1074.258202 210.902427 1069.454998 C 213.63152 1065.961759 216.360612 1062.46852 219.198869 1059.084445 C 263.737667 1006.030877 324.869349 969.13354 385.34605 934.637805 C 449.534316 897.849632 515.796694 861.170622 564.920368 805.824616 C 633.802674 728.209212 661.639423 619.045493 652.142179 515.558287 Z M 652.142179 515.558287 " stroke="#ffffff" stroke-width="1" stroke-opacity="1" stroke-miterlimit="10"/></g><g fill="#1800ad" fill-opacity="1"><g transform="translate(150.079542, 193.352757)"><g><path d="M 27.84375 -39.734375 L 38.515625 -39.734375 C 39.117188 -39.734375 39.421875 -39.429688 39.421875 -38.828125 C 39.421875 -38.546875 39.332031 -38.316406 39.15625 -38.140625 C 38.976562 -37.960938 38.765625 -37.675781 38.515625 -37.28125 C 38.265625 -36.894531 38.003906 -36.273438 37.734375 -35.421875 C 37.472656 -34.566406 37.253906 -33.328125 37.078125 -31.703125 C 36.898438 -30.085938 36.8125 -27.945312 36.8125 -25.28125 L 36.8125 -14.71875 C 36.8125 -12.019531 36.898438 -9.851562 37.078125 -8.21875 C 37.253906 -6.582031 37.472656 -5.316406 37.734375 -4.421875 C 38.003906 -3.535156 38.265625 -2.882812 38.515625 -2.46875 C 38.765625 -2.0625 38.976562 -1.769531 39.15625 -1.59375 C 39.332031 -1.414062 39.421875 -1.1875 39.421875 -0.90625 C 39.421875 -0.300781 39.15625 0 38.625 0 L 26.453125 0 C 25.921875 0 25.65625 -0.265625 25.65625 -0.796875 C 25.65625 -1.117188 25.742188 -1.382812 25.921875 -1.59375 C 26.097656 -1.8125 26.316406 -2.113281 26.578125 -2.5 C 26.847656 -2.894531 27.117188 -3.535156 27.390625 -4.421875 C 27.660156 -5.316406 27.882812 -6.582031 28.0625 -8.21875 C 28.238281 -9.851562 28.328125 -12.019531 28.328125 -14.71875 L 28.328125 -31.3125 L 18.890625 -1.328125 C 18.640625 -0.441406 18.03125 0 17.0625 0 C 16.070312 0 15.453125 -0.441406 15.203125 -1.328125 L 6.03125 -31.15625 L 6.03125 -14.71875 C 6.03125 -12.019531 6.117188 -9.851562 6.296875 -8.21875 C 6.472656 -6.582031 6.691406 -5.316406 6.953125 -4.421875 C 7.222656 -3.535156 7.488281 -2.882812 7.75 -2.46875 C 8.019531 -2.0625 8.242188 -1.769531 8.421875 -1.59375 C 8.597656 -1.414062 8.6875 -1.1875 8.6875 -0.90625 C 8.6875 -0.300781 8.421875 0 7.890625 0 L 1.546875 0 C 1.015625 0 0.75 -0.265625 0.75 -0.796875 C 0.75 -1.117188 0.835938 -1.382812 1.015625 -1.59375 C 1.191406 -1.8125 1.410156 -2.113281 1.671875 -2.5 C 1.941406 -2.894531 2.207031 -3.535156 2.46875 -4.421875 C 2.738281 -5.316406 2.960938 -6.582031 3.140625 -8.21875 C 3.316406 -9.851562 3.40625 -12.019531 3.40625 -14.71875 L 3.40625 -25.015625 C 3.40625 -27.722656 3.316406 -29.894531 3.140625 -31.53125 C 2.960938 -33.164062 2.738281 -34.425781 2.46875 -35.3125 C 2.207031 -36.195312 1.941406 -36.84375 1.671875 -37.25 C 1.410156 -37.664062 1.191406 -37.960938 1.015625 -38.140625 C 0.835938 -38.316406 0.75 -38.546875 0.75 -38.828125 C 0.75 -39.429688 1.015625 -39.734375 1.546875 -39.734375 L 12.640625 -39.734375 C 13.421875 -39.734375 13.863281 -39.304688 13.96875 -38.453125 C 14.21875 -36.109375 14.671875 -33.566406 15.328125 -30.828125 C 15.992188 -28.085938 16.757812 -25.304688 17.625 -22.484375 C 18.5 -19.660156 19.34375 -16.914062 20.15625 -14.25 C 21.40625 -18.257812 22.550781 -22.210938 23.59375 -26.109375 C 24.644531 -30.003906 25.566406 -34.117188 26.359375 -38.453125 C 26.535156 -39.304688 27.03125 -39.734375 27.84375 -39.734375 Z M 27.84375 -39.734375 "/></g></g></g><g fill="#1800ad" fill-opacity="1"><g transform="translate(194.888995, 193.352757)"><g><path d="M 0.75 -0.796875 C 0.75 -1.117188 0.835938 -1.382812 1.015625 -1.59375 C 1.191406 -1.8125 1.410156 -2.113281 1.671875 -2.5 C 1.941406 -2.894531 2.207031 -3.535156 2.46875 -4.421875 C 2.738281 -5.316406 2.960938 -6.582031 3.140625 -8.21875 C 3.316406 -9.851562 3.40625 -12.019531 3.40625 -14.71875 L 3.40625 -25.015625 C 3.40625 -27.722656 3.316406 -29.894531 3.140625 -31.53125 C 2.960938 -33.164062 2.738281 -34.425781 2.46875 -35.3125 C 2.207031 -36.195312 1.941406 -36.84375 1.671875 -37.25 C 1.410156 -37.664062 1.191406 -37.960938 1.015625 -38.140625 C 0.835938 -38.316406 0.75 -38.546875 0.75 -38.828125 C 0.75 -39.429688 1.015625 -39.734375 1.546875 -39.734375 L 23.203125 -39.734375 C 25.191406 -39.734375 26.242188 -38.757812 26.359375 -36.8125 L 26.625 -30.828125 C 26.65625 -29.691406 26.117188 -29.125 25.015625 -29.125 C 24.484375 -29.125 24.054688 -29.390625 23.734375 -29.921875 C 23.421875 -30.453125 23.09375 -31.117188 22.75 -31.921875 C 22.414062 -32.722656 21.960938 -33.523438 21.390625 -34.328125 C 20.816406 -35.128906 20.050781 -35.796875 19.09375 -36.328125 C 18.132812 -36.859375 16.875 -37.125 15.3125 -37.125 L 11.890625 -37.125 L 11.890625 -21.171875 L 12.109375 -21.171875 C 13.390625 -21.171875 14.398438 -21.4375 15.140625 -21.96875 C 15.890625 -22.507812 16.503906 -23.132812 16.984375 -23.84375 C 17.460938 -24.550781 17.929688 -25.171875 18.390625 -25.703125 C 18.859375 -26.242188 19.429688 -26.515625 20.109375 -26.515625 C 20.992188 -26.515625 21.4375 -26.066406 21.4375 -25.171875 L 21.4375 -14.71875 C 21.4375 -13.726562 20.941406 -13.234375 19.953125 -13.234375 C 19.203125 -13.234375 18.628906 -13.5 18.234375 -14.03125 C 17.847656 -14.5625 17.46875 -15.179688 17.09375 -15.890625 C 16.71875 -16.609375 16.21875 -17.234375 15.59375 -17.765625 C 14.976562 -18.296875 14.082031 -18.5625 12.90625 -18.5625 L 11.890625 -18.5625 L 11.890625 -2.671875 L 15.84375 -2.671875 C 17.40625 -2.671875 18.664062 -2.9375 19.625 -3.46875 C 20.59375 -4 21.359375 -4.65625 21.921875 -5.4375 C 22.492188 -6.21875 22.945312 -7.007812 23.28125 -7.8125 C 23.625 -8.613281 23.953125 -9.28125 24.265625 -9.8125 C 24.585938 -10.34375 25.015625 -10.609375 25.546875 -10.609375 C 26.648438 -10.609375 27.1875 -10.039062 27.15625 -8.90625 L 26.890625 -2.984375 C 26.773438 -0.992188 25.722656 0 23.734375 0 L 1.546875 0 C 1.015625 0 0.75 -0.265625 0.75 -0.796875 Z M 0.75 -0.796875 "/></g></g></g><g fill="#1800ad" fill-opacity="1"><g transform="translate(227.482717, 193.352757)"><g><path d="M 29.390625 -30.828125 C 29.390625 -29.691406 28.859375 -29.125 27.796875 -29.125 C 27.296875 -29.125 26.882812 -29.375 26.5625 -29.875 C 26.238281 -30.375 25.914062 -31.003906 25.59375 -31.765625 C 25.28125 -32.523438 24.863281 -33.285156 24.34375 -34.046875 C 23.832031 -34.816406 23.148438 -35.484375 22.296875 -36.046875 C 21.441406 -36.617188 20.304688 -36.960938 18.890625 -37.078125 L 18.890625 -14.71875 C 18.890625 -12.019531 18.976562 -9.851562 19.15625 -8.21875 C 19.332031 -6.582031 19.550781 -5.316406 19.8125 -4.421875 C 20.082031 -3.535156 20.34375 -2.882812 20.59375 -2.46875 C 20.84375 -2.0625 21.054688 -1.769531 21.234375 -1.59375 C 21.410156 -1.414062 21.5 -1.1875 21.5 -0.90625 C 21.5 -0.300781 21.25 0 20.75 0 L 8.53125 0 C 8 0 7.734375 -0.265625 7.734375 -0.796875 C 7.734375 -1.117188 7.820312 -1.382812 8 -1.59375 C 8.175781 -1.8125 8.394531 -2.113281 8.65625 -2.5 C 8.925781 -2.894531 9.195312 -3.535156 9.46875 -4.421875 C 9.738281 -5.316406 9.960938 -6.582031 10.140625 -8.21875 C 10.316406 -9.851562 10.40625 -12.019531 10.40625 -14.71875 L 10.40625 -37.078125 C 8.976562 -36.960938 7.828125 -36.628906 6.953125 -36.078125 C 6.085938 -35.535156 5.394531 -34.867188 4.875 -34.078125 C 4.363281 -33.296875 3.945312 -32.523438 3.625 -31.765625 C 3.300781 -31.003906 2.976562 -30.375 2.65625 -29.875 C 2.34375 -29.375 1.9375 -29.125 1.4375 -29.125 C 0.332031 -29.125 -0.195312 -29.691406 -0.15625 -30.828125 L 0.109375 -36.8125 C 0.210938 -38.757812 1.257812 -39.734375 3.25 -39.734375 L 25.984375 -39.734375 C 27.972656 -39.734375 29.019531 -38.757812 29.125 -36.8125 Z M 29.390625 -30.828125 "/></g></g></g><g fill="#1800ad" fill-opacity="1"><g transform="translate(261.303347, 193.352757)"><g><path d="M 11.890625 -37.609375 L 11.890625 -20.21875 C 17.546875 -20.289062 20.375 -23.207031 20.375 -28.96875 C 20.375 -34.6875 17.546875 -37.566406 11.890625 -37.609375 Z M 0.75 -0.796875 C 0.75 -1.117188 0.835938 -1.382812 1.015625 -1.59375 C 1.191406 -1.8125 1.410156 -2.113281 1.671875 -2.5 C 1.941406 -2.894531 2.207031 -3.535156 2.46875 -4.421875 C 2.738281 -5.316406 2.960938 -6.582031 3.140625 -8.21875 C 3.316406 -9.851562 3.40625 -12.019531 3.40625 -14.71875 L 3.40625 -25.015625 C 3.40625 -27.722656 3.316406 -29.894531 3.140625 -31.53125 C 2.960938 -33.164062 2.738281 -34.425781 2.46875 -35.3125 C 2.207031 -36.195312 1.941406 -36.84375 1.671875 -37.25 C 1.410156 -37.664062 1.191406 -37.960938 1.015625 -38.140625 C 0.835938 -38.316406 0.75 -38.546875 0.75 -38.828125 C 0.75 -39.429688 1.015625 -39.734375 1.546875 -39.734375 L 14.78125 -39.734375 C 19.613281 -39.734375 23.164062 -38.742188 25.4375 -36.765625 C 27.71875 -34.796875 28.859375 -32.195312 28.859375 -28.96875 C 28.859375 -26.332031 28.144531 -24.148438 26.71875 -22.421875 C 25.300781 -20.703125 23.296875 -19.488281 20.703125 -18.78125 C 22.722656 -18.132812 24.160156 -16.601562 25.015625 -14.1875 C 25.867188 -11.738281 26.675781 -9.75 27.4375 -8.21875 C 28.207031 -6.6875 28.898438 -5.484375 29.515625 -4.609375 C 30.140625 -3.742188 30.675781 -3.097656 31.125 -2.671875 C 31.570312 -2.242188 31.921875 -1.910156 32.171875 -1.671875 C 32.421875 -1.441406 32.546875 -1.1875 32.546875 -0.90625 C 32.546875 -0.300781 32.273438 0 31.734375 0 L 19.15625 0 C 18.613281 0 18.34375 -0.265625 18.34375 -0.796875 C 18.34375 -1.117188 18.394531 -1.40625 18.5 -1.65625 C 18.613281 -1.90625 18.707031 -2.257812 18.78125 -2.71875 C 18.851562 -3.175781 18.828125 -3.847656 18.703125 -4.734375 C 18.578125 -5.628906 18.300781 -6.875 17.875 -8.46875 C 17.445312 -10.070312 16.785156 -12.15625 15.890625 -14.71875 L 14.78125 -18.078125 L 11.890625 -18.078125 L 11.890625 -14.71875 C 11.890625 -12.019531 11.976562 -9.851562 12.15625 -8.21875 C 12.332031 -6.582031 12.554688 -5.316406 12.828125 -4.421875 C 13.097656 -3.535156 13.351562 -2.882812 13.59375 -2.46875 C 13.84375 -2.0625 14.054688 -1.769531 14.234375 -1.59375 C 14.421875 -1.414062 14.515625 -1.1875 14.515625 -0.90625 C 14.515625 -0.300781 14.242188 0 13.703125 0 L 1.546875 0 C 1.015625 0 0.75 -0.265625 0.75 -0.796875 Z M 0.75 -0.796875 "/></g></g></g><g fill="#1800ad" fill-opacity="1"><g transform="translate(298.271263, 193.352757)"><g><path d="M 17.875 0.53125 C 14.8125 0.53125 11.988281 -0.238281 9.40625 -1.78125 C 6.832031 -3.332031 4.765625 -5.628906 3.203125 -8.671875 C 1.640625 -11.710938 0.859375 -15.472656 0.859375 -19.953125 C 0.859375 -24.398438 1.640625 -28.132812 3.203125 -31.15625 C 4.765625 -34.175781 6.832031 -36.453125 9.40625 -37.984375 C 11.988281 -39.515625 14.8125 -40.28125 17.875 -40.28125 C 20.925781 -40.28125 23.738281 -39.515625 26.3125 -37.984375 C 28.894531 -36.453125 30.96875 -34.175781 32.53125 -31.15625 C 34.101562 -28.132812 34.890625 -24.398438 34.890625 -19.953125 C 34.890625 -15.472656 34.101562 -11.710938 32.53125 -8.671875 C 30.96875 -5.628906 28.894531 -3.332031 26.3125 -1.78125 C 23.738281 -0.238281 20.925781 0.53125 17.875 0.53125 Z M 17.875 -1.59375 C 20.113281 -1.59375 22.003906 -3.128906 23.546875 -6.203125 C 25.097656 -9.285156 25.875 -13.867188 25.875 -19.953125 C 25.875 -25.992188 25.097656 -30.535156 23.546875 -33.578125 C 22.003906 -36.617188 20.113281 -38.140625 17.875 -38.140625 C 15.59375 -38.140625 13.6875 -36.609375 12.15625 -33.546875 C 10.632812 -30.492188 9.875 -25.941406 9.875 -19.890625 C 9.875 -13.847656 10.632812 -9.285156 12.15625 -6.203125 C 13.6875 -3.128906 15.59375 -1.59375 17.875 -1.59375 Z M 17.875 -1.59375 "/></g></g></g><g fill="#1800ad" fill-opacity="1"><g transform="translate(338.59984, 193.352757)"><g><path d="M 23.421875 -14.71875 C 24.734375 -12.019531 25.882812 -9.851562 26.875 -8.21875 C 27.875 -6.582031 28.738281 -5.328125 29.46875 -4.453125 C 30.195312 -3.578125 30.800781 -2.941406 31.28125 -2.546875 C 31.757812 -2.160156 32.113281 -1.867188 32.34375 -1.671875 C 32.582031 -1.484375 32.71875 -1.226562 32.75 -0.90625 C 32.820312 -0.300781 32.570312 0 32 0 L 18.453125 0 C 17.816406 0 17.5 -0.300781 17.5 -0.90625 C 17.5 -1.226562 17.578125 -1.484375 17.734375 -1.671875 C 17.898438 -1.867188 18.039062 -2.15625 18.15625 -2.53125 C 18.28125 -2.90625 18.265625 -3.519531 18.109375 -4.375 C 17.953125 -5.226562 17.570312 -6.453125 16.96875 -8.046875 C 16.363281 -9.648438 15.421875 -11.785156 14.140625 -14.453125 L 13.703125 -15.359375 L 13.390625 -14.71875 C 11.859375 -11.914062 10.753906 -9.675781 10.078125 -8 C 9.398438 -6.332031 9.023438 -5.078125 8.953125 -4.234375 C 8.890625 -3.398438 8.972656 -2.804688 9.203125 -2.453125 C 9.429688 -2.097656 9.675781 -1.847656 9.9375 -1.703125 C 10.207031 -1.566406 10.34375 -1.335938 10.34375 -1.015625 C 10.34375 -0.660156 10.164062 -0.398438 9.8125 -0.234375 C 9.457031 -0.078125 9.117188 0 8.796875 0 L 0.640625 0 C 0.316406 0 0.0625 -0.078125 -0.125 -0.234375 C -0.320312 -0.398438 -0.351562 -0.660156 -0.21875 -1.015625 C -0.0703125 -1.296875 0.125 -1.503906 0.375 -1.640625 C 0.625 -1.785156 0.988281 -2.023438 1.46875 -2.359375 C 1.945312 -2.703125 2.554688 -3.289062 3.296875 -4.125 C 4.046875 -4.96875 4.972656 -6.207031 6.078125 -7.84375 C 7.179688 -9.476562 8.5 -11.679688 10.03125 -14.453125 L 12.21875 -18.453125 L 9.015625 -25.015625 C 7.703125 -27.722656 6.546875 -29.894531 5.546875 -31.53125 C 4.546875 -33.164062 3.679688 -34.414062 2.953125 -35.28125 C 2.222656 -36.15625 1.617188 -36.785156 1.140625 -37.171875 C 0.660156 -37.566406 0.304688 -37.863281 0.078125 -38.0625 C -0.148438 -38.257812 -0.28125 -38.515625 -0.3125 -38.828125 C -0.382812 -39.429688 -0.140625 -39.734375 0.421875 -39.734375 L 13.96875 -39.734375 C 14.613281 -39.734375 14.9375 -39.429688 14.9375 -38.828125 C 14.9375 -38.515625 14.851562 -38.257812 14.6875 -38.0625 C 14.53125 -37.863281 14.398438 -37.578125 14.296875 -37.203125 C 14.191406 -36.828125 14.207031 -36.210938 14.34375 -35.359375 C 14.488281 -34.515625 14.863281 -33.289062 15.46875 -31.6875 C 16.070312 -30.082031 17.015625 -27.945312 18.296875 -25.28125 L 18.71875 -24.375 L 19.09375 -25.015625 C 20.65625 -27.828125 21.765625 -30.054688 22.421875 -31.703125 C 23.085938 -33.359375 23.453125 -34.613281 23.515625 -35.46875 C 23.585938 -36.320312 23.5 -36.925781 23.25 -37.28125 C 23.007812 -37.644531 22.753906 -37.90625 22.484375 -38.0625 C 22.210938 -38.21875 22.078125 -38.441406 22.078125 -38.734375 C 22.078125 -39.085938 22.253906 -39.34375 22.609375 -39.5 C 22.972656 -39.65625 23.3125 -39.734375 23.625 -39.734375 L 31.796875 -39.734375 C 32.109375 -39.734375 32.367188 -39.65625 32.578125 -39.5 C 32.796875 -39.34375 32.816406 -39.085938 32.640625 -38.734375 C 32.503906 -38.441406 32.3125 -38.222656 32.0625 -38.078125 C 31.8125 -37.941406 31.445312 -37.695312 30.96875 -37.34375 C 30.488281 -36.988281 29.875 -36.398438 29.125 -35.578125 C 28.375 -34.765625 27.445312 -33.539062 26.34375 -31.90625 C 25.25 -30.269531 23.9375 -28.0625 22.40625 -25.28125 L 20.21875 -21.34375 Z M 23.421875 -14.71875 "/></g></g></g></svg>