<svg xmlns="http://www.w3.org/2000/svg" xmlns:xlink="http://www.w3.org/1999/xlink" width="500" zoomAndPan="magnify" viewBox="0 0 375 374.999991" height="500" preserveAspectRatio="xMidYMid meet" version="1.0"><defs><clipPath id="ea568275e8"><path d="M 111 76.265625 L 264 76.265625 L 264 227.765625 L 111 227.765625 Z M 111 76.265625 " clip-rule="nonzero"/></clipPath><clipPath id="9e7af6d41a"><path d="M 187.5 227.597656 C 182.648438 227.597656 177.839844 227.136719 173.074219 226.214844 C 170.695312 225.753906 168.347656 225.179688 166.019531 224.492188 C 163.695312 223.804688 161.410156 223.003906 159.164062 222.089844 C 157.175781 221.285156 155.226562 220.394531 153.3125 219.421875 C 151.402344 218.449219 149.53125 217.398438 147.707031 216.269531 C 145.886719 215.136719 144.113281 213.929688 142.390625 212.648438 C 140.671875 211.367188 139.007812 210.015625 137.398438 208.59375 C 135.792969 207.171875 134.25 205.683594 132.769531 204.128906 C 131.289062 202.578125 129.878906 200.964844 128.535156 199.289062 C 127.191406 197.617188 125.921875 195.890625 124.726562 194.109375 C 123.527344 192.328125 122.410156 190.5 121.367188 188.625 C 120.328125 186.746094 119.367188 184.832031 118.488281 182.875 C 117.609375 180.914062 116.816406 178.925781 116.105469 176.898438 C 115.394531 174.875 114.773438 172.824219 114.238281 170.746094 C 113.703125 168.667969 113.253906 166.570312 112.898438 164.457031 C 112.539062 162.339844 112.273438 160.210938 112.09375 158.074219 C 111.917969 155.9375 111.832031 153.792969 111.835938 151.648438 C 111.839844 149.503906 111.9375 147.359375 112.125 145.222656 C 112.308594 143.085938 112.585938 140.960938 112.953125 138.847656 C 114.035156 132.65625 115.859375 126.691406 118.433594 120.957031 C 121.003906 115.222656 124.242188 109.894531 128.148438 104.96875 C 129.710938 103 131.367188 101.113281 133.121094 99.304688 C 136.640625 95.675781 140.484375 92.425781 144.65625 89.566406 L 145.4375 89.035156 C 145.703125 88.859375 145.960938 88.679688 146.230469 88.511719 L 147.027344 88.003906 C 147.292969 87.832031 147.558594 87.660156 147.828125 87.5 C 148.90625 86.839844 150 86.207031 151.105469 85.597656 C 153.320312 84.378906 155.59375 83.277344 157.925781 82.289062 C 162.601562 80.308594 167.429688 78.8125 172.410156 77.804688 C 174.894531 77.308594 177.394531 76.929688 179.917969 76.675781 C 182.441406 76.421875 184.96875 76.296875 187.5 76.296875 C 192.582031 76.296875 197.613281 76.800781 202.59375 77.800781 C 210.089844 79.3125 217.195312 81.90625 223.902344 85.582031 C 226.121094 86.796875 228.269531 88.117188 230.355469 89.546875 C 233.46875 91.683594 236.410156 94.039062 239.171875 96.613281 C 241.933594 99.1875 244.488281 101.957031 246.835938 104.914062 C 249.183594 107.871094 251.300781 110.988281 253.179688 114.265625 C 255.0625 117.539062 256.6875 120.9375 258.058594 124.457031 C 259.875 129.117188 261.210938 133.914062 262.066406 138.847656 C 262.433594 140.960938 262.710938 143.085938 262.894531 145.222656 C 263.082031 147.363281 263.175781 149.503906 263.179688 151.648438 C 263.183594 153.796875 263.097656 155.9375 262.917969 158.074219 C 262.742188 160.214844 262.472656 162.339844 262.113281 164.457031 C 261.757812 166.570312 261.308594 168.667969 260.773438 170.746094 C 260.238281 172.824219 259.613281 174.875 258.902344 176.898438 C 258.191406 178.925781 257.398438 180.917969 256.519531 182.875 C 255.640625 184.832031 254.679688 186.746094 253.636719 188.625 C 252.597656 190.5 251.476562 192.328125 250.28125 194.109375 C 249.082031 195.890625 247.8125 197.617188 246.46875 199.289062 C 245.125 200.964844 243.714844 202.578125 242.234375 204.128906 C 240.753906 205.683594 239.210938 207.171875 237.601562 208.59375 C 235.996094 210.015625 234.332031 211.367188 232.613281 212.648438 C 230.890625 213.929688 229.117188 215.136719 227.292969 216.265625 C 225.472656 217.398438 223.601562 218.449219 221.691406 219.421875 C 219.777344 220.394531 217.828125 221.285156 215.839844 222.089844 C 213.59375 223 211.308594 223.796875 208.980469 224.488281 C 206.65625 225.179688 204.304688 225.753906 201.929688 226.210938 C 199.554688 226.675781 197.15625 227.015625 194.746094 227.253906 C 192.339844 227.492188 189.921875 227.597656 187.5 227.597656 Z M 187.5 227.597656 C 189.921875 227.59375 192.335938 227.472656 194.746094 227.234375 C 197.152344 226.996094 199.546875 226.632812 201.914062 226.15625 C 206.667969 225.195312 211.277344 223.769531 215.742188 221.878906 C 216.855469 221.40625 217.953125 220.910156 219.042969 220.382812 C 220.128906 219.859375 221.199219 219.304688 222.257812 218.71875 C 227.558594 215.8125 232.417969 212.292969 236.835938 208.167969 C 241.253906 204.039062 245.09375 199.433594 248.355469 194.34375 C 249.0625 193.226562 249.742188 192.09375 250.386719 190.945312 C 251.035156 189.792969 251.652344 188.625 252.234375 187.441406 C 252.816406 186.253906 253.367188 185.054688 253.882812 183.839844 C 254.402344 182.625 254.886719 181.394531 255.335938 180.152344 C 255.785156 178.914062 256.199219 177.660156 256.582031 176.394531 C 256.964844 175.128906 257.308594 173.855469 257.621094 172.574219 C 257.933594 171.289062 258.210938 170 258.449219 168.699219 C 258.691406 167.402344 258.898438 166.097656 259.066406 164.789062 C 259.234375 163.480469 259.367188 162.164062 259.464844 160.847656 C 259.5625 159.53125 259.625 158.210938 259.652344 156.890625 C 259.675781 155.570312 259.664062 154.25 259.617188 152.929688 C 259.570312 151.613281 259.488281 150.292969 259.367188 148.980469 C 259.25 147.664062 259.09375 146.351562 258.902344 145.046875 C 258.710938 143.738281 258.484375 142.4375 258.222656 141.144531 C 257.960938 139.851562 257.664062 138.5625 257.332031 137.285156 C 257 136.007812 256.628906 134.738281 256.230469 133.480469 C 255.828125 132.222656 255.390625 130.976562 254.917969 129.742188 C 254.449219 128.507812 253.945312 127.289062 253.40625 126.082031 C 252.871094 124.875 252.300781 123.6875 251.699219 122.511719 C 251.097656 121.335938 250.460938 120.175781 249.796875 119.035156 C 249.128906 117.894531 248.433594 116.773438 247.707031 115.671875 C 246.976562 114.570312 246.222656 113.488281 245.433594 112.429688 C 244.648438 111.367188 243.832031 110.328125 242.988281 109.3125 C 242.144531 108.296875 241.277344 107.304688 240.378906 106.335938 C 239.480469 105.367188 238.554688 104.421875 237.605469 103.503906 C 236.65625 102.585938 235.683594 101.695312 234.683594 100.832031 C 233.6875 99.96875 232.664062 99.128906 231.621094 98.320312 C 230.578125 97.511719 229.511719 96.734375 228.425781 95.984375 C 227.335938 95.234375 226.230469 94.515625 225.105469 93.824219 C 223.976562 93.132812 222.832031 92.476562 221.671875 91.847656 C 220.507812 91.222656 219.332031 90.628906 218.136719 90.066406 C 216.941406 89.503906 215.730469 88.972656 214.507812 88.476562 C 212.367188 87.613281 210.1875 86.851562 207.976562 86.191406 C 205.761719 85.535156 203.523438 84.988281 201.257812 84.550781 C 196.710938 83.671875 192.125 83.234375 187.5 83.234375 C 185.1875 83.234375 182.882812 83.34375 180.585938 83.5625 C 178.292969 83.78125 176.007812 84.109375 173.742188 84.546875 C 169.199219 85.425781 164.78125 86.730469 160.492188 88.46875 C 158.59375 89.234375 156.734375 90.082031 154.90625 91.007812 C 153.082031 91.933594 151.300781 92.9375 149.558594 94.011719 C 147.820312 95.089844 146.128906 96.238281 144.484375 97.460938 C 142.84375 98.683594 141.253906 99.96875 139.71875 101.324219 C 138.1875 102.679688 136.714844 104.097656 135.300781 105.582031 C 133.886719 107.0625 132.539062 108.597656 131.257812 110.195312 C 129.972656 111.789062 128.761719 113.433594 127.617188 115.132812 C 126.476562 116.832031 125.40625 118.574219 124.410156 120.363281 C 123.417969 122.152344 122.5 123.980469 121.660156 125.84375 C 120.820312 127.710938 120.058594 129.609375 119.382812 131.542969 C 118.703125 133.472656 118.105469 135.429688 117.59375 137.410156 C 117.082031 139.390625 116.652344 141.390625 116.308594 143.410156 C 115.96875 145.425781 115.710938 147.457031 115.539062 149.496094 C 115.367188 151.535156 115.285156 153.578125 115.285156 155.625 C 115.289062 157.671875 115.378906 159.714844 115.554688 161.753906 C 115.730469 163.792969 115.992188 165.820312 116.339844 167.839844 C 117.984375 177.367188 121.417969 186.203125 126.636719 194.34375 C 131.898438 202.546875 138.542969 209.40625 146.578125 214.921875 C 150.574219 217.667969 154.800781 219.984375 159.261719 221.875 C 163.726562 223.769531 168.332031 225.191406 173.082031 226.152344 C 175.453125 226.632812 177.84375 226.992188 180.25 227.230469 C 182.664062 227.46875 185.078125 227.59375 187.5 227.597656 Z M 187.5 227.597656 " clip-rule="nonzero"/></clipPath><linearGradient x1="-0.0198754" gradientTransform="matrix(0, 0.115617, -0.115617, 0, 263.182008, 76.297298)" y1="654.5" x2="1308.643453" gradientUnits="userSpaceOnUse" y2="654.5" id="01bc165085"><stop stop-opacity="1" stop-color="rgb(31.759644%, 43.919373%, 100%)" offset="0"/><stop stop-opacity="1" stop-color="rgb(31.759644%, 43.919373%, 100%)" offset="0.25"/><stop stop-opacity="1" stop-color="rgb(31.759644%, 43.919373%, 100%)" offset="0.375"/><stop stop-opacity="1" stop-color="rgb(31.759644%, 43.919373%, 100%)" offset="0.4375"/><stop stop-opacity="1" stop-color="rgb(31.759644%, 43.919373%, 100%)" offset="0.46875"/><stop stop-opacity="1" stop-color="rgb(31.726074%, 44.009399%, 100%)" offset="0.484375"/><stop stop-opacity="1" stop-color="rgb(31.62384%, 44.297791%, 100%)" offset="0.488281"/><stop stop-opacity="1" stop-color="rgb(31.55365%, 44.496155%, 100%)" offset="0.492187"/><stop stop-opacity="1" stop-color="rgb(31.481934%, 44.694519%, 100%)" offset="0.496094"/><stop stop-opacity="1" stop-color="rgb(31.411743%, 44.892883%, 100%)" offset="0.5"/><stop stop-opacity="1" stop-color="rgb(31.341553%, 45.089722%, 100%)" offset="0.503906"/><stop stop-opacity="1" stop-color="rgb(31.271362%, 45.288086%, 100%)" offset="0.507812"/><stop stop-opacity="1" stop-color="rgb(31.199646%, 45.484924%, 100%)" offset="0.511719"/><stop stop-opacity="1" stop-color="rgb(31.129456%, 45.683289%, 100%)" offset="0.515625"/><stop stop-opacity="1" stop-color="rgb(31.057739%, 45.880127%, 100%)" offset="0.519531"/><stop stop-opacity="1" stop-color="rgb(30.987549%, 46.078491%, 100%)" offset="0.523438"/><stop stop-opacity="1" stop-color="rgb(30.917358%, 46.276855%, 100%)" offset="0.527344"/><stop stop-opacity="1" stop-color="rgb(30.847168%, 46.47522%, 100%)" offset="0.53125"/><stop stop-opacity="1" stop-color="rgb(30.775452%, 46.672058%, 100%)" offset="0.535156"/><stop stop-opacity="1" stop-color="rgb(30.705261%, 46.870422%, 100%)" offset="0.539062"/><stop stop-opacity="1" stop-color="rgb(30.635071%, 47.067261%, 100%)" offset="0.542969"/><stop stop-opacity="1" stop-color="rgb(30.56488%, 47.265625%, 100%)" offset="0.546875"/><stop stop-opacity="1" stop-color="rgb(30.493164%, 47.462463%, 100%)" offset="0.550781"/><stop stop-opacity="1" stop-color="rgb(30.422974%, 47.660828%, 100%)" offset="0.554688"/><stop stop-opacity="1" stop-color="rgb(30.352783%, 47.859192%, 100%)" offset="0.558594"/><stop stop-opacity="1" stop-color="rgb(30.282593%, 48.057556%, 100%)" offset="0.5625"/><stop stop-opacity="1" stop-color="rgb(30.210876%, 48.254395%, 100%)" offset="0.566406"/><stop stop-opacity="1" stop-color="rgb(30.140686%, 48.452759%, 100%)" offset="0.570312"/><stop stop-opacity="1" stop-color="rgb(30.070496%, 48.649597%, 100%)" offset="0.574219"/><stop stop-opacity="1" stop-color="rgb(30.000305%, 48.847961%, 100%)" offset="0.578125"/><stop stop-opacity="1" stop-color="rgb(29.928589%, 49.0448%, 100%)" offset="0.582031"/><stop stop-opacity="1" stop-color="rgb(29.858398%, 49.243164%, 100%)" offset="0.585938"/><stop stop-opacity="1" stop-color="rgb(29.786682%, 49.441528%, 100%)" offset="0.589844"/><stop stop-opacity="1" stop-color="rgb(29.716492%, 49.639893%, 100%)" offset="0.59375"/><stop stop-opacity="1" stop-color="rgb(29.646301%, 49.836731%, 100%)" offset="0.597656"/><stop stop-opacity="1" stop-color="rgb(29.576111%, 50.035095%, 100%)" offset="0.601562"/><stop stop-opacity="1" stop-color="rgb(29.504395%, 50.231934%, 100%)" offset="0.605469"/><stop stop-opacity="1" stop-color="rgb(29.434204%, 50.430298%, 100%)" offset="0.609375"/><stop stop-opacity="1" stop-color="rgb(29.364014%, 50.627136%, 100%)" offset="0.613281"/><stop stop-opacity="1" stop-color="rgb(29.293823%, 50.8255%, 100%)" offset="0.617188"/><stop stop-opacity="1" stop-color="rgb(29.222107%, 51.022339%, 100%)" offset="0.621094"/><stop stop-opacity="1" stop-color="rgb(29.151917%, 51.220703%, 100%)" offset="0.625"/><stop stop-opacity="1" stop-color="rgb(29.081726%, 51.419067%, 100%)" offset="0.628906"/><stop stop-opacity="1" stop-color="rgb(29.011536%, 51.617432%, 100%)" offset="0.632812"/><stop stop-opacity="1" stop-color="rgb(28.939819%, 51.81427%, 100%)" offset="0.636719"/><stop stop-opacity="1" stop-color="rgb(28.869629%, 52.012634%, 100%)" offset="0.640625"/><stop stop-opacity="1" stop-color="rgb(28.799438%, 52.209473%, 100%)" offset="0.644531"/><stop stop-opacity="1" stop-color="rgb(28.729248%, 52.407837%, 100%)" offset="0.648438"/><stop stop-opacity="1" stop-color="rgb(28.657532%, 52.604675%, 100%)" offset="0.652344"/><stop stop-opacity="1" stop-color="rgb(28.587341%, 52.80304%, 100%)" offset="0.65625"/><stop stop-opacity="1" stop-color="rgb(28.515625%, 53.001404%, 100%)" offset="0.660156"/><stop stop-opacity="1" stop-color="rgb(28.445435%, 53.199768%, 100%)" offset="0.664062"/><stop stop-opacity="1" stop-color="rgb(28.375244%, 53.396606%, 100%)" offset="0.667969"/><stop stop-opacity="1" stop-color="rgb(28.305054%, 53.594971%, 100%)" offset="0.671875"/><stop stop-opacity="1" stop-color="rgb(28.233337%, 53.791809%, 100%)" offset="0.675781"/><stop stop-opacity="1" stop-color="rgb(28.163147%, 53.990173%, 100%)" offset="0.679688"/><stop stop-opacity="1" stop-color="rgb(28.092957%, 54.187012%, 100%)" offset="0.683594"/><stop stop-opacity="1" stop-color="rgb(28.022766%, 54.385376%, 100%)" offset="0.6875"/><stop stop-opacity="1" stop-color="rgb(27.95105%, 54.58374%, 100%)" offset="0.691406"/><stop stop-opacity="1" stop-color="rgb(27.880859%, 54.782104%, 100%)" offset="0.695312"/><stop stop-opacity="1" stop-color="rgb(27.810669%, 54.978943%, 100%)" offset="0.699219"/><stop stop-opacity="1" stop-color="rgb(27.740479%, 55.177307%, 100%)" offset="0.703125"/><stop stop-opacity="1" stop-color="rgb(27.668762%, 55.374146%, 100%)" offset="0.707031"/><stop stop-opacity="1" stop-color="rgb(27.598572%, 55.57251%, 100%)" offset="0.710937"/><stop stop-opacity="1" stop-color="rgb(27.528381%, 55.769348%, 100%)" offset="0.714844"/><stop stop-opacity="1" stop-color="rgb(27.458191%, 55.967712%, 100%)" offset="0.71875"/><stop stop-opacity="1" stop-color="rgb(27.386475%, 56.166077%, 100%)" offset="0.722656"/><stop stop-opacity="1" stop-color="rgb(27.316284%, 56.364441%, 100%)" offset="0.726562"/><stop stop-opacity="1" stop-color="rgb(27.246094%, 56.561279%, 100%)" offset="0.730469"/><stop stop-opacity="1" stop-color="rgb(27.175903%, 56.759644%, 100%)" offset="0.734375"/><stop stop-opacity="1" stop-color="rgb(27.104187%, 56.956482%, 100%)" offset="0.738281"/><stop stop-opacity="1" stop-color="rgb(27.033997%, 57.154846%, 100%)" offset="0.742187"/><stop stop-opacity="1" stop-color="rgb(26.96228%, 57.351685%, 100%)" offset="0.746094"/><stop stop-opacity="1" stop-color="rgb(26.89209%, 57.550049%, 100%)" offset="0.75"/><stop stop-opacity="1" stop-color="rgb(26.821899%, 57.748413%, 100%)" offset="0.753906"/><stop stop-opacity="1" stop-color="rgb(26.751709%, 57.946777%, 100%)" offset="0.757813"/><stop stop-opacity="1" stop-color="rgb(26.679993%, 58.143616%, 100%)" offset="0.761719"/><stop stop-opacity="1" stop-color="rgb(26.609802%, 58.34198%, 100%)" offset="0.765625"/><stop stop-opacity="1" stop-color="rgb(26.539612%, 58.538818%, 100%)" offset="0.769531"/><stop stop-opacity="1" stop-color="rgb(26.469421%, 58.737183%, 100%)" offset="0.773438"/><stop stop-opacity="1" stop-color="rgb(26.397705%, 58.934021%, 100%)" offset="0.777344"/><stop stop-opacity="1" stop-color="rgb(26.327515%, 59.132385%, 100%)" offset="0.78125"/><stop stop-opacity="1" stop-color="rgb(26.257324%, 59.329224%, 100%)" offset="0.785156"/><stop stop-opacity="1" stop-color="rgb(26.187134%, 59.527588%, 100%)" offset="0.789063"/><stop stop-opacity="1" stop-color="rgb(26.115417%, 59.725952%, 100%)" offset="0.792969"/><stop stop-opacity="1" stop-color="rgb(26.045227%, 59.924316%, 100%)" offset="0.796875"/><stop stop-opacity="1" stop-color="rgb(25.975037%, 60.121155%, 100%)" offset="0.800781"/><stop stop-opacity="1" stop-color="rgb(25.904846%, 60.319519%, 100%)" offset="0.804688"/><stop stop-opacity="1" stop-color="rgb(25.83313%, 60.516357%, 100%)" offset="0.808594"/><stop stop-opacity="1" stop-color="rgb(25.762939%, 60.714722%, 100%)" offset="0.8125"/><stop stop-opacity="1" stop-color="rgb(25.691223%, 60.91156%, 100%)" offset="0.816406"/><stop stop-opacity="1" stop-color="rgb(25.621033%, 61.109924%, 100%)" offset="0.820313"/><stop stop-opacity="1" stop-color="rgb(25.550842%, 61.308289%, 100%)" offset="0.824219"/><stop stop-opacity="1" stop-color="rgb(25.480652%, 61.506653%, 100%)" offset="0.828125"/><stop stop-opacity="1" stop-color="rgb(25.408936%, 61.703491%, 100%)" offset="0.832031"/><stop stop-opacity="1" stop-color="rgb(25.338745%, 61.901855%, 100%)" offset="0.835938"/><stop stop-opacity="1" stop-color="rgb(25.268555%, 62.098694%, 100%)" offset="0.839844"/><stop stop-opacity="1" stop-color="rgb(25.198364%, 62.297058%, 100%)" offset="0.84375"/><stop stop-opacity="1" stop-color="rgb(25.126648%, 62.493896%, 100%)" offset="0.847656"/><stop stop-opacity="1" stop-color="rgb(25.056458%, 62.692261%, 100%)" offset="0.851563"/><stop stop-opacity="1" stop-color="rgb(24.986267%, 62.890625%, 100%)" offset="0.855469"/><stop stop-opacity="1" stop-color="rgb(24.916077%, 63.088989%, 100%)" offset="0.859375"/><stop stop-opacity="1" stop-color="rgb(24.84436%, 63.285828%, 100%)" offset="0.863281"/><stop stop-opacity="1" stop-color="rgb(24.77417%, 63.484192%, 100%)" offset="0.867188"/><stop stop-opacity="1" stop-color="rgb(24.703979%, 63.68103%, 100%)" offset="0.871094"/><stop stop-opacity="1" stop-color="rgb(24.633789%, 63.879395%, 100%)" offset="0.875"/><stop stop-opacity="1" stop-color="rgb(24.562073%, 64.076233%, 100%)" offset="0.878906"/><stop stop-opacity="1" stop-color="rgb(24.491882%, 64.274597%, 100%)" offset="0.882813"/><stop stop-opacity="1" stop-color="rgb(24.420166%, 64.472961%, 100%)" offset="0.886719"/><stop stop-opacity="1" stop-color="rgb(24.349976%, 64.671326%, 100%)" offset="0.890625"/><stop stop-opacity="1" stop-color="rgb(24.279785%, 64.868164%, 100%)" offset="0.894531"/><stop stop-opacity="1" stop-color="rgb(24.209595%, 65.066528%, 100%)" offset="0.898438"/><stop stop-opacity="1" stop-color="rgb(24.137878%, 65.263367%, 100%)" offset="0.902344"/><stop stop-opacity="1" stop-color="rgb(24.067688%, 65.461731%, 100%)" offset="0.90625"/><stop stop-opacity="1" stop-color="rgb(23.997498%, 65.658569%, 100%)" offset="0.910156"/><stop stop-opacity="1" stop-color="rgb(23.927307%, 65.856934%, 100%)" offset="0.914062"/><stop stop-opacity="1" stop-color="rgb(23.855591%, 66.055298%, 100%)" offset="0.917969"/><stop stop-opacity="1" stop-color="rgb(23.7854%, 66.253662%, 100%)" offset="0.921875"/><stop stop-opacity="1" stop-color="rgb(23.71521%, 66.4505%, 100%)" offset="0.925781"/><stop stop-opacity="1" stop-color="rgb(23.64502%, 66.648865%, 100%)" offset="0.929688"/><stop stop-opacity="1" stop-color="rgb(23.573303%, 66.845703%, 100%)" offset="0.933594"/><stop stop-opacity="1" stop-color="rgb(23.503113%, 67.044067%, 100%)" offset="0.9375"/><stop stop-opacity="1" stop-color="rgb(23.432922%, 67.240906%, 100%)" offset="0.941406"/><stop stop-opacity="1" stop-color="rgb(23.362732%, 67.43927%, 100%)" offset="0.945312"/><stop stop-opacity="1" stop-color="rgb(23.291016%, 67.637634%, 100%)" offset="0.949219"/><stop stop-opacity="1" stop-color="rgb(23.220825%, 67.835999%, 100%)" offset="0.953125"/><stop stop-opacity="1" stop-color="rgb(23.150635%, 68.032837%, 100%)" offset="0.957031"/><stop stop-opacity="1" stop-color="rgb(23.080444%, 68.231201%, 100%)" offset="0.960938"/><stop stop-opacity="1" stop-color="rgb(23.008728%, 68.42804%, 100%)" offset="0.964844"/><stop stop-opacity="1" stop-color="rgb(22.938538%, 68.626404%, 100%)" offset="0.96875"/><stop stop-opacity="1" stop-color="rgb(22.866821%, 68.823242%, 100%)" offset="0.972656"/><stop stop-opacity="1" stop-color="rgb(22.796631%, 69.021606%, 100%)" offset="0.976562"/><stop stop-opacity="1" stop-color="rgb(22.72644%, 69.218445%, 100%)" offset="0.980469"/><stop stop-opacity="1" stop-color="rgb(22.65625%, 69.416809%, 100%)" offset="0.984375"/><stop stop-opacity="1" stop-color="rgb(22.584534%, 69.615173%, 100%)" offset="0.988281"/><stop stop-opacity="1" stop-color="rgb(22.514343%, 69.813538%, 100%)" offset="0.992188"/><stop stop-opacity="1" stop-color="rgb(22.444153%, 70.010376%, 100%)" offset="0.996094"/><stop stop-opacity="1" stop-color="rgb(22.373962%, 70.20874%, 100%)" offset="1"/></linearGradient><clipPath id="948b92293c"><path d="M 126.039062 108.859375 L 238.539062 108.859375 L 238.539062 219.109375 L 126.039062 219.109375 Z M 126.039062 108.859375 " clip-rule="nonzero"/></clipPath><clipPath id="608227360e"><path d="M 0.480469 0.859375 L 63 0.859375 L 63 111.109375 L 0.480469 111.109375 Z M 0.480469 0.859375 " clip-rule="nonzero"/></clipPath><clipPath id="000828ced9"><path d="M 65 7 L 112.320312 7 L 112.320312 92 L 65 92 Z M 65 7 " clip-rule="nonzero"/></clipPath><clipPath id="2d226b5fde"><path d="M 101.285156 7.574219 C 102.339844 12.882812 99.6875 18.351562 95.867188 22.171875 C 92.046875 25.992188 87.160156 28.535156 82.492188 31.265625 C 77.824219 33.996094 73.167969 37.101562 70.226562 41.648438 C 67.671875 45.601562 66.636719 50.335938 66.097656 55.011719 C 65.449219 60.671875 65.535156 66.628906 67.34375 71.96875 C 68.652344 68.753906 70.359375 65.671875 72.308594 62.796875 C 76.128906 57.136719 80.828125 52.140625 85.507812 47.175781 C 90.980469 41.375 96.4375 35.570312 101.910156 29.769531 C 96.253906 40.382812 87.476562 48.925781 80.058594 58.402344 C 72.636719 67.871094 66.320312 79.179688 67.011719 91.1875 C 67.5625 85.046875 72.550781 80.167969 77.957031 77.195312 C 83.359375 74.222656 89.425781 72.574219 94.765625 69.46875 C 104.851562 63.566406 111.632812 52.382812 112.160156 40.722656 C 112.6875 28.933594 107.304688 17.726562 101.285156 7.574219 Z M 101.285156 7.574219 " clip-rule="nonzero"/></clipPath><linearGradient x1="-1204.20996" gradientTransform="matrix(0.110091, 0, 0, 0.110091, 221.53586, 0.859475)" y1="61" x2="-1204.20996" gradientUnits="userSpaceOnUse" y2="820.50006" id="d3fc0f409a"><stop stop-opacity="1" stop-color="rgb(21.148682%, 66.758728%, 97.921753%)" offset="0"/><stop stop-opacity="1" stop-color="rgb(21.122742%, 66.610718%, 97.854614%)" offset="0.0625"/><stop stop-opacity="1" stop-color="rgb(21.070862%, 66.314697%, 97.720337%)" offset="0.125"/><stop stop-opacity="1" stop-color="rgb(21.017456%, 66.017151%, 97.587585%)" offset="0.1875"/><stop stop-opacity="1" stop-color="rgb(20.965576%, 65.72113%, 97.453308%)" offset="0.25"/><stop stop-opacity="1" stop-color="rgb(20.913696%, 65.42511%, 97.320557%)" offset="0.3125"/><stop stop-opacity="1" stop-color="rgb(20.861816%, 65.129089%, 97.186279%)" offset="0.375"/><stop stop-opacity="1" stop-color="rgb(20.809937%, 64.833069%, 97.053528%)" offset="0.4375"/><stop stop-opacity="1" stop-color="rgb(20.758057%, 64.535522%, 96.91925%)" offset="0.5"/><stop stop-opacity="1" stop-color="rgb(20.706177%, 64.239502%, 96.786499%)" offset="0.5625"/><stop stop-opacity="1" stop-color="rgb(20.652771%, 63.943481%, 96.652222%)" offset="0.625"/><stop stop-opacity="1" stop-color="rgb(20.600891%, 63.647461%, 96.51947%)" offset="0.6875"/><stop stop-opacity="1" stop-color="rgb(20.549011%, 63.35144%, 96.385193%)" offset="0.75"/><stop stop-opacity="1" stop-color="rgb(20.497131%, 63.053894%, 96.252441%)" offset="0.8125"/><stop stop-opacity="1" stop-color="rgb(20.445251%, 62.757874%, 96.118164%)" offset="0.875"/><stop stop-opacity="1" stop-color="rgb(20.393372%, 62.461853%, 95.985413%)" offset="0.9375"/><stop stop-opacity="1" stop-color="rgb(20.339966%, 62.165833%, 95.851135%)" offset="1"/></linearGradient><clipPath id="053720e2c2"><rect x="0" width="113" y="0" height="112"/></clipPath><clipPath id="7cbe9640fc"><path d="M 172 92.199219 L 205 92.199219 L 205 152 L 172 152 Z M 172 92.199219 " clip-rule="nonzero"/></clipPath><clipPath id="5652f151b2"><path d="M 204.519531 117.882812 C 204.042969 112.726562 201.839844 107.847656 198.855469 103.613281 C 195.871094 99.378906 192.121094 95.753906 188.261719 92.304688 C 189.804688 95.476562 189.089844 99.375 187.320312 102.425781 C 185.550781 105.480469 182.871094 107.875 180.277344 110.265625 C 177.683594 112.652344 175.078125 115.164062 173.53125 118.335938 C 171.839844 121.8125 170.007812 131.234375 178.003906 137.582031 C 178.644531 132.519531 178.996094 130.808594 180.550781 127.449219 C 182.105469 124.085938 184.539062 121.226562 186.628906 118.167969 C 188.714844 115.109375 190.519531 111.640625 190.503906 107.941406 C 190.734375 110.816406 189.769531 113.660156 188.464844 116.230469 C 187.160156 118.800781 185.511719 121.1875 184.21875 123.757812 C 181.871094 128.410156 180.117188 135.019531 180.121094 151.953125 C 180.1875 149.953125 180.90625 147.925781 182.027344 146.210938 C 182.191406 145.957031 182.363281 145.714844 182.542969 145.472656 C 182.679688 145.300781 182.816406 145.125 182.957031 144.957031 C 185.171875 142.3125 188.222656 140.472656 191.230469 138.753906 C 194.429688 136.921875 197.730469 135.097656 200.175781 132.339844 C 203.609375 128.472656 204.992188 123.039062 204.519531 117.882812 Z M 204.519531 117.882812 " clip-rule="nonzero"/></clipPath><linearGradient x1="2460.78" gradientTransform="matrix(-0.0498115, 0, 0, 0.0498115, 310.911767, 92.200618)" y1="2.100356" x2="2460.78" gradientUnits="userSpaceOnUse" y2="1199.60033" id="bc6a90c4a4"><stop stop-opacity="1" stop-color="rgb(48.48938%, 86.735535%, 76.325989%)" offset="0"/><stop stop-opacity="1" stop-color="rgb(48.591614%, 86.714172%, 76.16272%)" offset="0.03125"/><stop stop-opacity="1" stop-color="rgb(48.794556%, 86.672974%, 75.834656%)" offset="0.0625"/><stop stop-opacity="1" stop-color="rgb(48.999023%, 86.630249%, 75.508118%)" offset="0.09375"/><stop stop-opacity="1" stop-color="rgb(49.203491%, 86.587524%, 75.180054%)" offset="0.125"/><stop stop-opacity="1" stop-color="rgb(49.407959%, 86.5448%, 74.853516%)" offset="0.15625"/><stop stop-opacity="1" stop-color="rgb(49.610901%, 86.503601%, 74.525452%)" offset="0.1875"/><stop stop-opacity="1" stop-color="rgb(49.815369%, 86.460876%, 74.198914%)" offset="0.21875"/><stop stop-opacity="1" stop-color="rgb(50.019836%, 86.418152%, 73.87085%)" offset="0.25"/><stop stop-opacity="1" stop-color="rgb(50.224304%, 86.375427%, 73.544312%)" offset="0.28125"/><stop stop-opacity="1" stop-color="rgb(50.427246%, 86.332703%, 73.216248%)" offset="0.3125"/><stop stop-opacity="1" stop-color="rgb(50.631714%, 86.291504%, 72.889709%)" offset="0.34375"/><stop stop-opacity="1" stop-color="rgb(50.836182%, 86.248779%, 72.561646%)" offset="0.375"/><stop stop-opacity="1" stop-color="rgb(51.040649%, 86.206055%, 72.235107%)" offset="0.40625"/><stop stop-opacity="1" stop-color="rgb(51.243591%, 86.16333%, 71.907043%)" offset="0.4375"/><stop stop-opacity="1" stop-color="rgb(51.448059%, 86.122131%, 71.580505%)" offset="0.46875"/><stop stop-opacity="1" stop-color="rgb(51.652527%, 86.079407%, 71.252441%)" offset="0.5"/><stop stop-opacity="1" stop-color="rgb(51.856995%, 86.036682%, 70.925903%)" offset="0.53125"/><stop stop-opacity="1" stop-color="rgb(52.059937%, 85.993958%, 70.597839%)" offset="0.5625"/><stop stop-opacity="1" stop-color="rgb(52.264404%, 85.952759%, 70.271301%)" offset="0.59375"/><stop stop-opacity="1" stop-color="rgb(52.468872%, 85.910034%, 69.943237%)" offset="0.625"/><stop stop-opacity="1" stop-color="rgb(52.67334%, 85.86731%, 69.616699%)" offset="0.65625"/><stop stop-opacity="1" stop-color="rgb(52.876282%, 85.824585%, 69.288635%)" offset="0.6875"/><stop stop-opacity="1" stop-color="rgb(53.08075%, 85.783386%, 68.962097%)" offset="0.71875"/><stop stop-opacity="1" stop-color="rgb(53.285217%, 85.740662%, 68.634033%)" offset="0.75"/><stop stop-opacity="1" stop-color="rgb(53.489685%, 85.697937%, 68.307495%)" offset="0.78125"/><stop stop-opacity="1" stop-color="rgb(53.692627%, 85.655212%, 67.979431%)" offset="0.8125"/><stop stop-opacity="1" stop-color="rgb(53.897095%, 85.614014%, 67.652893%)" offset="0.84375"/><stop stop-opacity="1" stop-color="rgb(54.101562%, 85.571289%, 67.324829%)" offset="0.875"/><stop stop-opacity="1" stop-color="rgb(54.30603%, 85.528564%, 66.998291%)" offset="0.90625"/><stop stop-opacity="1" stop-color="rgb(54.508972%, 85.48584%, 66.670227%)" offset="0.9375"/><stop stop-opacity="1" stop-color="rgb(54.71344%, 85.444641%, 66.342163%)" offset="0.96875"/><stop stop-opacity="1" stop-color="rgb(54.917908%, 85.401917%, 66.015625%)" offset="1"/></linearGradient><clipPath id="8e1cc51b15"><path d="M 171 92.199219 L 205.222656 92.199219 L 205.222656 152.199219 L 171 152.199219 Z M 171 92.199219 " clip-rule="nonzero"/></clipPath></defs><g clip-path="url(#ea568275e8)"><g clip-path="url(#9e7af6d41a)"><path fill="url(#01bc165085)" d="M 263.183594 76.296875 L 111.832031 76.296875 L 111.832031 227.597656 L 263.183594 227.597656 Z M 263.183594 76.296875 " fill-rule="nonzero"/></g></g><g clip-path="url(#948b92293c)"><g transform="matrix(1, 0, 0, 1, 126, 108)"><g clip-path="url(#053720e2c2)"><g clip-path="url(#608227360e)"><path fill="#1800ad" d="M 15.125 0.859375 C 13.726562 7.859375 17.230469 15.082031 22.269531 20.125 C 27.3125 25.179688 33.765625 28.527344 39.917969 32.125 C 46.082031 35.726562 52.238281 39.832031 56.101562 45.832031 C 59.472656 51.050781 60.847656 57.304688 61.550781 63.46875 C 62.433594 70.953125 62.3125 78.804688 59.933594 85.851562 C 58.203125 81.601562 55.949219 77.539062 53.382812 73.738281 C 48.339844 66.265625 42.132812 59.671875 35.957031 53.109375 C 28.734375 45.445312 21.523438 37.796875 14.300781 30.132812 C 21.777344 44.136719 33.355469 55.433594 43.144531 67.925781 C 52.929688 80.433594 61.277344 95.363281 60.363281 111.214844 C 59.636719 103.101562 53.050781 96.660156 45.90625 92.742188 C 38.761719 88.824219 30.757812 86.632812 23.722656 82.535156 C 10.414062 74.785156 1.464844 60.011719 0.769531 44.621094 C 0.0664062 29.054688 7.167969 14.246094 15.125 0.859375 Z M 15.125 0.859375 " fill-opacity="1" fill-rule="nonzero"/></g><g clip-path="url(#000828ced9)"><g clip-path="url(#2d226b5fde)"><path fill="url(#d3fc0f409a)" d="M 65.449219 7.574219 L 65.449219 91.1875 L 112.320312 91.1875 L 112.320312 7.574219 Z M 65.449219 7.574219 " fill-rule="nonzero"/></g></g></g></g></g><g clip-path="url(#7cbe9640fc)"><g clip-path="url(#5652f151b2)"><path fill="url(#bc6a90c4a4)" d="M 204.992188 92.304688 L 204.992188 151.953125 L 170.007812 151.953125 L 170.007812 92.304688 Z M 204.992188 92.304688 " fill-rule="nonzero"/></g></g><g clip-path="url(#8e1cc51b15)"><path stroke-linecap="butt" transform="matrix(0.0498115, 0, 0, 0.0498115, 172.038231, 92.200636)" fill="none" stroke-linejoin="miter" d="M 652.084085 515.58708 C 642.516771 412.071873 598.287545 314.124528 538.374198 229.116585 C 478.46085 144.108642 403.177063 71.334314 325.697498 2.088913 C 356.67364 65.76645 342.322668 144.030221 306.798131 205.276719 C 271.273594 266.601637 217.477054 314.673473 165.405767 362.666887 C 113.334481 410.581881 61.027933 461.006334 29.973371 524.683871 C -3.982754 594.478216 -40.762021 783.628732 119.764971 911.062226 C 132.625952 809.429113 139.683807 775.080885 170.89521 707.639159 C 202.106614 640.119012 250.962655 582.715124 292.917682 521.311785 C 334.794289 459.908446 371.024612 390.270943 370.71093 316.006623 C 375.337746 373.724193 355.967854 430.814399 329.77537 482.415162 C 303.582886 534.015924 270.489387 581.930918 244.532165 633.531681 C 197.401377 726.93063 162.190522 859.618305 162.268943 1199.571658 C 163.602093 1159.420304 178.031486 1118.720007 200.538202 1084.293358 C 203.831867 1079.196018 207.282374 1074.33394 210.889722 1069.471863 C 213.634444 1066.021356 216.379165 1062.492428 219.202307 1059.120342 C 263.666794 1006.029587 324.913292 969.093479 385.297163 934.58841 C 449.523645 897.809143 515.789062 861.186717 564.880365 805.821765 C 633.812083 728.185359 661.572979 619.102288 652.084085 515.58708 Z M 652.084085 515.58708 " stroke="#ffffff" stroke-width="1" stroke-opacity="1" stroke-miterlimit="10"/></g></svg>