<svg xmlns="http://www.w3.org/2000/svg" xmlns:xlink="http://www.w3.org/1999/xlink" width="170" zoomAndPan="magnify" viewBox="0 0 127.5 32.249999" height="43" preserveAspectRatio="xMidYMid meet" version="1.0"><defs><g/><clipPath id="366a346f96"><path d="M 23.339844 3.089844 L 45 3.089844 L 45 23.613281 L 23.339844 23.613281 Z M 23.339844 3.089844 " clip-rule="nonzero"/></clipPath><clipPath id="2edbbad921"><path d="M 34.296875 23.78125 C 33.636719 23.78125 32.976562 23.71875 32.324219 23.59375 C 32 23.53125 31.679688 23.449219 31.359375 23.355469 C 31.042969 23.261719 30.730469 23.152344 30.421875 23.027344 C 29.878906 22.808594 29.355469 22.542969 28.855469 22.234375 C 28.359375 21.921875 27.886719 21.574219 27.449219 21.183594 C 27.007812 20.792969 26.601562 20.371094 26.234375 19.910156 C 25.867188 19.453125 25.539062 18.964844 25.253906 18.453125 C 24.96875 17.9375 24.730469 17.402344 24.535156 16.847656 C 24.339844 16.292969 24.195312 15.726562 24.097656 15.148438 C 24 14.566406 23.949219 13.984375 23.953125 13.394531 C 23.953125 12.808594 24.003906 12.226562 24.105469 11.644531 C 24.40625 9.925781 25.097656 8.382812 26.183594 7.011719 C 26.394531 6.746094 26.621094 6.484375 26.863281 6.238281 C 27.34375 5.742188 27.871094 5.296875 28.441406 4.90625 L 28.546875 4.835938 C 28.582031 4.8125 28.617188 4.785156 28.65625 4.761719 L 28.765625 4.695312 C 28.800781 4.671875 28.835938 4.648438 28.875 4.625 C 29.019531 4.535156 29.171875 4.449219 29.320312 4.363281 C 29.625 4.199219 29.9375 4.046875 30.253906 3.914062 C 30.894531 3.640625 31.554688 3.4375 32.234375 3.300781 C 32.574219 3.230469 32.917969 3.179688 33.261719 3.144531 C 33.605469 3.109375 33.953125 3.09375 34.296875 3.09375 C 34.992188 3.09375 35.679688 3.160156 36.363281 3.296875 C 37.386719 3.503906 38.359375 3.859375 39.277344 4.363281 C 39.578125 4.527344 39.875 4.710938 40.15625 4.90625 C 41.910156 6.105469 43.175781 7.699219 43.945312 9.679688 C 44.195312 10.316406 44.378906 10.972656 44.496094 11.644531 C 44.59375 12.226562 44.644531 12.808594 44.648438 13.398438 C 44.648438 13.984375 44.597656 14.566406 44.5 15.148438 C 44.402344 15.726562 44.257812 16.292969 44.0625 16.847656 C 43.867188 17.402344 43.628906 17.9375 43.34375 18.453125 C 43.054688 18.964844 42.730469 19.453125 42.363281 19.910156 C 41.992188 20.371094 41.589844 20.792969 41.148438 21.183594 C 40.710938 21.574219 40.238281 21.921875 39.738281 22.230469 C 39.238281 22.542969 38.71875 22.808594 38.171875 23.027344 C 37.867188 23.152344 37.554688 23.261719 37.234375 23.355469 C 36.917969 23.449219 36.597656 23.53125 36.269531 23.59375 C 35.945312 23.65625 35.617188 23.703125 35.289062 23.734375 C 34.960938 23.765625 34.628906 23.78125 34.296875 23.78125 Z M 34.296875 23.78125 C 34.628906 23.78125 34.960938 23.765625 35.289062 23.730469 C 35.617188 23.699219 35.945312 23.648438 36.269531 23.585938 C 36.917969 23.453125 37.550781 23.257812 38.160156 23 C 38.3125 22.933594 38.460938 22.867188 38.609375 22.796875 C 38.761719 22.722656 38.90625 22.648438 39.050781 22.566406 C 40.523438 21.757812 41.714844 20.648438 42.621094 19.234375 C 42.8125 18.929688 42.992188 18.613281 43.148438 18.289062 C 43.308594 17.964844 43.449219 17.632812 43.574219 17.292969 C 43.695312 16.953125 43.800781 16.609375 43.886719 16.257812 C 43.972656 15.90625 44.039062 15.550781 44.085938 15.191406 C 44.128906 14.835938 44.15625 14.476562 44.164062 14.113281 C 44.171875 13.753906 44.160156 13.390625 44.125 13.03125 C 44.09375 12.671875 44.039062 12.3125 43.96875 11.960938 C 43.898438 11.605469 43.804688 11.257812 43.695312 10.914062 C 43.585938 10.566406 43.457031 10.230469 43.3125 9.902344 C 43.164062 9.570312 43 9.25 42.816406 8.9375 C 42.632812 8.625 42.4375 8.324219 42.21875 8.035156 C 42.003906 7.742188 41.773438 7.464844 41.527344 7.199219 C 41.28125 6.933594 41.023438 6.683594 40.75 6.449219 C 40.476562 6.210938 40.191406 5.988281 39.894531 5.785156 C 39.597656 5.578125 39.289062 5.390625 38.972656 5.21875 C 38.652344 5.046875 38.328125 4.894531 37.992188 4.757812 C 37.699219 4.640625 37.402344 4.535156 37.097656 4.445312 C 36.796875 4.355469 36.488281 4.28125 36.179688 4.222656 C 35.558594 4.101562 34.929688 4.042969 34.296875 4.042969 C 33.980469 4.042969 33.667969 4.054688 33.351562 4.085938 C 33.039062 4.117188 32.726562 4.160156 32.417969 4.222656 C 31.796875 4.339844 31.191406 4.519531 30.605469 4.757812 C 30.085938 4.96875 29.585938 5.21875 29.109375 5.515625 C 28.632812 5.8125 28.183594 6.144531 27.765625 6.515625 C 27.34375 6.886719 26.960938 7.289062 26.609375 7.726562 C 26.257812 8.164062 25.945312 8.628906 25.671875 9.117188 C 25.398438 9.609375 25.167969 10.117188 24.984375 10.648438 C 24.796875 11.175781 24.65625 11.71875 24.5625 12.269531 C 24.46875 12.824219 24.421875 13.378906 24.421875 13.941406 C 24.425781 14.5 24.472656 15.058594 24.566406 15.609375 C 24.792969 16.914062 25.261719 18.121094 25.976562 19.234375 C 26.695312 20.355469 27.605469 21.292969 28.703125 22.046875 C 29.804688 22.808594 31.015625 23.320312 32.328125 23.585938 C 32.652344 23.648438 32.976562 23.699219 33.308594 23.730469 C 33.636719 23.765625 33.96875 23.78125 34.296875 23.78125 Z M 34.296875 23.78125 " clip-rule="nonzero"/></clipPath><linearGradient x1="-0.0198871" gradientTransform="matrix(0, 0.0158095, -0.0158095, 0, 44.647038, 3.092897)" y1="654.5" x2="1297.982063" gradientUnits="userSpaceOnUse" y2="654.5" id="900732deac"><stop stop-opacity="1" stop-color="rgb(31.759644%, 43.919373%, 100%)" offset="0"/><stop stop-opacity="1" stop-color="rgb(31.759644%, 43.919373%, 100%)" offset="0.25"/><stop stop-opacity="1" stop-color="rgb(31.759644%, 43.919373%, 100%)" offset="0.375"/><stop stop-opacity="1" stop-color="rgb(31.759644%, 43.919373%, 100%)" offset="0.4375"/><stop stop-opacity="1" stop-color="rgb(31.759644%, 43.919373%, 100%)" offset="0.46875"/><stop stop-opacity="1" stop-color="rgb(31.759644%, 43.919373%, 100%)" offset="0.484375"/><stop stop-opacity="1" stop-color="rgb(31.692505%, 44.10553%, 100%)" offset="0.492188"/><stop stop-opacity="1" stop-color="rgb(31.555176%, 44.488525%, 100%)" offset="0.496094"/><stop stop-opacity="1" stop-color="rgb(31.484985%, 44.685364%, 100%)" offset="0.5"/><stop stop-opacity="1" stop-color="rgb(31.414795%, 44.882202%, 100%)" offset="0.503906"/><stop stop-opacity="1" stop-color="rgb(31.34613%, 45.079041%, 100%)" offset="0.507812"/><stop stop-opacity="1" stop-color="rgb(31.27594%, 45.274353%, 100%)" offset="0.511719"/><stop stop-opacity="1" stop-color="rgb(31.20575%, 45.471191%, 100%)" offset="0.515625"/><stop stop-opacity="1" stop-color="rgb(31.135559%, 45.666504%, 100%)" offset="0.519531"/><stop stop-opacity="1" stop-color="rgb(31.065369%, 45.863342%, 100%)" offset="0.523437"/><stop stop-opacity="1" stop-color="rgb(30.995178%, 46.058655%, 100%)" offset="0.527344"/><stop stop-opacity="1" stop-color="rgb(30.924988%, 46.255493%, 100%)" offset="0.53125"/><stop stop-opacity="1" stop-color="rgb(30.854797%, 46.450806%, 100%)" offset="0.535156"/><stop stop-opacity="1" stop-color="rgb(30.784607%, 46.647644%, 100%)" offset="0.539062"/><stop stop-opacity="1" stop-color="rgb(30.714417%, 46.842957%, 100%)" offset="0.542969"/><stop stop-opacity="1" stop-color="rgb(30.645752%, 47.039795%, 100%)" offset="0.546875"/><stop stop-opacity="1" stop-color="rgb(30.575562%, 47.235107%, 100%)" offset="0.550781"/><stop stop-opacity="1" stop-color="rgb(30.505371%, 47.431946%, 100%)" offset="0.554688"/><stop stop-opacity="1" stop-color="rgb(30.435181%, 47.627258%, 100%)" offset="0.558594"/><stop stop-opacity="1" stop-color="rgb(30.36499%, 47.824097%, 100%)" offset="0.5625"/><stop stop-opacity="1" stop-color="rgb(30.2948%, 48.020935%, 100%)" offset="0.566406"/><stop stop-opacity="1" stop-color="rgb(30.224609%, 48.217773%, 100%)" offset="0.570313"/><stop stop-opacity="1" stop-color="rgb(30.154419%, 48.413086%, 100%)" offset="0.574219"/><stop stop-opacity="1" stop-color="rgb(30.084229%, 48.609924%, 100%)" offset="0.578125"/><stop stop-opacity="1" stop-color="rgb(30.014038%, 48.805237%, 100%)" offset="0.582031"/><stop stop-opacity="1" stop-color="rgb(29.945374%, 49.002075%, 100%)" offset="0.585938"/><stop stop-opacity="1" stop-color="rgb(29.875183%, 49.197388%, 100%)" offset="0.589844"/><stop stop-opacity="1" stop-color="rgb(29.804993%, 49.394226%, 100%)" offset="0.59375"/><stop stop-opacity="1" stop-color="rgb(29.734802%, 49.589539%, 100%)" offset="0.597656"/><stop stop-opacity="1" stop-color="rgb(29.664612%, 49.786377%, 100%)" offset="0.601562"/><stop stop-opacity="1" stop-color="rgb(29.594421%, 49.981689%, 100%)" offset="0.605469"/><stop stop-opacity="1" stop-color="rgb(29.524231%, 50.178528%, 100%)" offset="0.609375"/><stop stop-opacity="1" stop-color="rgb(29.454041%, 50.37384%, 100%)" offset="0.613281"/><stop stop-opacity="1" stop-color="rgb(29.38385%, 50.570679%, 100%)" offset="0.617188"/><stop stop-opacity="1" stop-color="rgb(29.31366%, 50.767517%, 100%)" offset="0.621094"/><stop stop-opacity="1" stop-color="rgb(29.244995%, 50.964355%, 100%)" offset="0.625"/><stop stop-opacity="1" stop-color="rgb(29.174805%, 51.159668%, 100%)" offset="0.628906"/><stop stop-opacity="1" stop-color="rgb(29.104614%, 51.356506%, 100%)" offset="0.632812"/><stop stop-opacity="1" stop-color="rgb(29.034424%, 51.551819%, 100%)" offset="0.636719"/><stop stop-opacity="1" stop-color="rgb(28.964233%, 51.748657%, 100%)" offset="0.640625"/><stop stop-opacity="1" stop-color="rgb(28.894043%, 51.94397%, 100%)" offset="0.644531"/><stop stop-opacity="1" stop-color="rgb(28.823853%, 52.140808%, 100%)" offset="0.648438"/><stop stop-opacity="1" stop-color="rgb(28.753662%, 52.336121%, 100%)" offset="0.652344"/><stop stop-opacity="1" stop-color="rgb(28.683472%, 52.532959%, 100%)" offset="0.65625"/><stop stop-opacity="1" stop-color="rgb(28.613281%, 52.728271%, 100%)" offset="0.660156"/><stop stop-opacity="1" stop-color="rgb(28.544617%, 52.92511%, 100%)" offset="0.664062"/><stop stop-opacity="1" stop-color="rgb(28.474426%, 53.120422%, 100%)" offset="0.667969"/><stop stop-opacity="1" stop-color="rgb(28.404236%, 53.317261%, 100%)" offset="0.671875"/><stop stop-opacity="1" stop-color="rgb(28.334045%, 53.512573%, 100%)" offset="0.675781"/><stop stop-opacity="1" stop-color="rgb(28.263855%, 53.709412%, 100%)" offset="0.679687"/><stop stop-opacity="1" stop-color="rgb(28.193665%, 53.90625%, 100%)" offset="0.683594"/><stop stop-opacity="1" stop-color="rgb(28.123474%, 54.103088%, 100%)" offset="0.6875"/><stop stop-opacity="1" stop-color="rgb(28.053284%, 54.298401%, 100%)" offset="0.691406"/><stop stop-opacity="1" stop-color="rgb(27.983093%, 54.495239%, 100%)" offset="0.695312"/><stop stop-opacity="1" stop-color="rgb(27.912903%, 54.690552%, 100%)" offset="0.699219"/><stop stop-opacity="1" stop-color="rgb(27.844238%, 54.88739%, 100%)" offset="0.703125"/><stop stop-opacity="1" stop-color="rgb(27.774048%, 55.082703%, 100%)" offset="0.707031"/><stop stop-opacity="1" stop-color="rgb(27.703857%, 55.279541%, 100%)" offset="0.710937"/><stop stop-opacity="1" stop-color="rgb(27.633667%, 55.474854%, 100%)" offset="0.714844"/><stop stop-opacity="1" stop-color="rgb(27.563477%, 55.671692%, 100%)" offset="0.71875"/><stop stop-opacity="1" stop-color="rgb(27.493286%, 55.867004%, 100%)" offset="0.722656"/><stop stop-opacity="1" stop-color="rgb(27.423096%, 56.063843%, 100%)" offset="0.726563"/><stop stop-opacity="1" stop-color="rgb(27.352905%, 56.259155%, 100%)" offset="0.730469"/><stop stop-opacity="1" stop-color="rgb(27.282715%, 56.455994%, 100%)" offset="0.734375"/><stop stop-opacity="1" stop-color="rgb(27.212524%, 56.651306%, 100%)" offset="0.738281"/><stop stop-opacity="1" stop-color="rgb(27.14386%, 56.848145%, 100%)" offset="0.742188"/><stop stop-opacity="1" stop-color="rgb(27.073669%, 57.044983%, 100%)" offset="0.746094"/><stop stop-opacity="1" stop-color="rgb(27.003479%, 57.241821%, 100%)" offset="0.75"/><stop stop-opacity="1" stop-color="rgb(26.933289%, 57.437134%, 100%)" offset="0.753906"/><stop stop-opacity="1" stop-color="rgb(26.863098%, 57.633972%, 100%)" offset="0.757813"/><stop stop-opacity="1" stop-color="rgb(26.792908%, 57.829285%, 100%)" offset="0.761719"/><stop stop-opacity="1" stop-color="rgb(26.722717%, 58.026123%, 100%)" offset="0.765625"/><stop stop-opacity="1" stop-color="rgb(26.652527%, 58.221436%, 100%)" offset="0.769531"/><stop stop-opacity="1" stop-color="rgb(26.582336%, 58.418274%, 100%)" offset="0.773438"/><stop stop-opacity="1" stop-color="rgb(26.512146%, 58.613586%, 100%)" offset="0.777344"/><stop stop-opacity="1" stop-color="rgb(26.443481%, 58.810425%, 100%)" offset="0.78125"/><stop stop-opacity="1" stop-color="rgb(26.373291%, 59.005737%, 100%)" offset="0.785156"/><stop stop-opacity="1" stop-color="rgb(26.303101%, 59.202576%, 100%)" offset="0.789062"/><stop stop-opacity="1" stop-color="rgb(26.23291%, 59.397888%, 100%)" offset="0.792969"/><stop stop-opacity="1" stop-color="rgb(26.16272%, 59.594727%, 100%)" offset="0.796875"/><stop stop-opacity="1" stop-color="rgb(26.092529%, 59.790039%, 100%)" offset="0.800781"/><stop stop-opacity="1" stop-color="rgb(26.022339%, 59.986877%, 100%)" offset="0.804688"/><stop stop-opacity="1" stop-color="rgb(25.952148%, 60.183716%, 100%)" offset="0.808594"/><stop stop-opacity="1" stop-color="rgb(25.881958%, 60.380554%, 100%)" offset="0.8125"/><stop stop-opacity="1" stop-color="rgb(25.811768%, 60.575867%, 100%)" offset="0.816406"/><stop stop-opacity="1" stop-color="rgb(25.743103%, 60.772705%, 100%)" offset="0.820312"/><stop stop-opacity="1" stop-color="rgb(25.672913%, 60.968018%, 100%)" offset="0.824219"/><stop stop-opacity="1" stop-color="rgb(25.602722%, 61.164856%, 100%)" offset="0.828125"/><stop stop-opacity="1" stop-color="rgb(25.532532%, 61.360168%, 100%)" offset="0.832031"/><stop stop-opacity="1" stop-color="rgb(25.462341%, 61.557007%, 100%)" offset="0.835938"/><stop stop-opacity="1" stop-color="rgb(25.392151%, 61.752319%, 100%)" offset="0.839844"/><stop stop-opacity="1" stop-color="rgb(25.32196%, 61.949158%, 100%)" offset="0.84375"/><stop stop-opacity="1" stop-color="rgb(25.25177%, 62.14447%, 100%)" offset="0.847656"/><stop stop-opacity="1" stop-color="rgb(25.18158%, 62.341309%, 100%)" offset="0.851562"/><stop stop-opacity="1" stop-color="rgb(25.111389%, 62.536621%, 100%)" offset="0.855469"/><stop stop-opacity="1" stop-color="rgb(25.042725%, 62.733459%, 100%)" offset="0.859375"/><stop stop-opacity="1" stop-color="rgb(24.972534%, 62.928772%, 100%)" offset="0.863281"/><stop stop-opacity="1" stop-color="rgb(24.902344%, 63.12561%, 100%)" offset="0.867187"/><stop stop-opacity="1" stop-color="rgb(24.832153%, 63.322449%, 100%)" offset="0.871094"/><stop stop-opacity="1" stop-color="rgb(24.761963%, 63.519287%, 100%)" offset="0.875"/><stop stop-opacity="1" stop-color="rgb(24.691772%, 63.7146%, 100%)" offset="0.878906"/><stop stop-opacity="1" stop-color="rgb(24.621582%, 63.911438%, 100%)" offset="0.882812"/><stop stop-opacity="1" stop-color="rgb(24.551392%, 64.10675%, 100%)" offset="0.886719"/><stop stop-opacity="1" stop-color="rgb(24.481201%, 64.303589%, 100%)" offset="0.890625"/><stop stop-opacity="1" stop-color="rgb(24.411011%, 64.498901%, 100%)" offset="0.894531"/><stop stop-opacity="1" stop-color="rgb(24.342346%, 64.69574%, 100%)" offset="0.898437"/><stop stop-opacity="1" stop-color="rgb(24.272156%, 64.891052%, 100%)" offset="0.902344"/><stop stop-opacity="1" stop-color="rgb(24.201965%, 65.087891%, 100%)" offset="0.90625"/><stop stop-opacity="1" stop-color="rgb(24.131775%, 65.283203%, 100%)" offset="0.910156"/><stop stop-opacity="1" stop-color="rgb(24.061584%, 65.480042%, 100%)" offset="0.914063"/><stop stop-opacity="1" stop-color="rgb(23.991394%, 65.675354%, 100%)" offset="0.917969"/><stop stop-opacity="1" stop-color="rgb(23.921204%, 65.872192%, 100%)" offset="0.921875"/><stop stop-opacity="1" stop-color="rgb(23.851013%, 66.067505%, 100%)" offset="0.925781"/><stop stop-opacity="1" stop-color="rgb(23.780823%, 66.264343%, 100%)" offset="0.929688"/><stop stop-opacity="1" stop-color="rgb(23.710632%, 66.461182%, 100%)" offset="0.933594"/><stop stop-opacity="1" stop-color="rgb(23.641968%, 66.65802%, 100%)" offset="0.9375"/><stop stop-opacity="1" stop-color="rgb(23.571777%, 66.853333%, 100%)" offset="0.941406"/><stop stop-opacity="1" stop-color="rgb(23.501587%, 67.050171%, 100%)" offset="0.945313"/><stop stop-opacity="1" stop-color="rgb(23.431396%, 67.245483%, 100%)" offset="0.949219"/><stop stop-opacity="1" stop-color="rgb(23.361206%, 67.442322%, 100%)" offset="0.953125"/><stop stop-opacity="1" stop-color="rgb(23.291016%, 67.637634%, 100%)" offset="0.957031"/><stop stop-opacity="1" stop-color="rgb(23.220825%, 67.834473%, 100%)" offset="0.960938"/><stop stop-opacity="1" stop-color="rgb(23.150635%, 68.029785%, 100%)" offset="0.964844"/><stop stop-opacity="1" stop-color="rgb(23.080444%, 68.226624%, 100%)" offset="0.96875"/><stop stop-opacity="1" stop-color="rgb(23.010254%, 68.421936%, 100%)" offset="0.972656"/><stop stop-opacity="1" stop-color="rgb(22.941589%, 68.618774%, 100%)" offset="0.976562"/><stop stop-opacity="1" stop-color="rgb(22.871399%, 68.814087%, 100%)" offset="0.980469"/><stop stop-opacity="1" stop-color="rgb(22.801208%, 69.010925%, 100%)" offset="0.984375"/><stop stop-opacity="1" stop-color="rgb(22.731018%, 69.206238%, 100%)" offset="0.988281"/><stop stop-opacity="1" stop-color="rgb(22.660828%, 69.403076%, 100%)" offset="0.992188"/><stop stop-opacity="1" stop-color="rgb(22.590637%, 69.599915%, 100%)" offset="0.996094"/><stop stop-opacity="1" stop-color="rgb(22.520447%, 69.796753%, 100%)" offset="1"/></linearGradient><clipPath id="5cb470763b"><path d="M 25.671875 8.941406 L 40.332031 8.941406 L 40.332031 23.601562 L 25.671875 23.601562 Z M 25.671875 8.941406 " clip-rule="nonzero"/></clipPath><clipPath id="4a665e76e8"><path d="M 0.671875 0.941406 L 9 0.941406 L 9 15.453125 L 0.671875 15.453125 Z M 0.671875 0.941406 " clip-rule="nonzero"/></clipPath><clipPath id="eed2fae210"><path d="M 9 1 L 15.273438 1 L 15.273438 13 L 9 13 Z M 9 1 " clip-rule="nonzero"/></clipPath><clipPath id="46ccdc1a62"><path d="M 13.792969 1.8125 C 13.929688 2.5 13.585938 3.210938 13.09375 3.703125 C 12.597656 4.199219 11.964844 4.53125 11.359375 4.882812 C 10.753906 5.238281 10.148438 5.640625 9.769531 6.230469 C 9.4375 6.742188 9.304688 7.355469 9.234375 7.960938 C 9.148438 8.695312 9.160156 9.464844 9.394531 10.160156 C 9.566406 9.742188 9.785156 9.34375 10.039062 8.96875 C 10.535156 8.238281 11.144531 7.589844 11.75 6.945312 C 12.457031 6.191406 13.167969 5.441406 13.875 4.6875 C 13.140625 6.066406 12.003906 7.171875 11.042969 8.402344 C 10.082031 9.628906 9.261719 11.09375 9.351562 12.648438 C 9.421875 11.855469 10.070312 11.222656 10.769531 10.835938 C 11.472656 10.453125 12.257812 10.238281 12.949219 9.835938 C 14.257812 9.070312 15.136719 7.621094 15.203125 6.109375 C 15.273438 4.582031 14.574219 3.128906 13.792969 1.8125 Z M 13.792969 1.8125 " clip-rule="nonzero"/></clipPath><linearGradient x1="-1204.20996" gradientTransform="matrix(0.0142698, 0, 0, 0.0142698, 29.381317, 0.941933)" y1="61" x2="-1204.20996" gradientUnits="userSpaceOnUse" y2="820.50006" id="19bf3e152a"><stop stop-opacity="1" stop-color="rgb(21.148682%, 66.758728%, 97.921753%)" offset="0"/><stop stop-opacity="1" stop-color="rgb(21.122742%, 66.610718%, 97.854614%)" offset="0.0625"/><stop stop-opacity="1" stop-color="rgb(21.070862%, 66.314697%, 97.720337%)" offset="0.125"/><stop stop-opacity="1" stop-color="rgb(21.017456%, 66.017151%, 97.587585%)" offset="0.1875"/><stop stop-opacity="1" stop-color="rgb(20.965576%, 65.72113%, 97.453308%)" offset="0.25"/><stop stop-opacity="1" stop-color="rgb(20.913696%, 65.42511%, 97.320557%)" offset="0.3125"/><stop stop-opacity="1" stop-color="rgb(20.861816%, 65.129089%, 97.186279%)" offset="0.375"/><stop stop-opacity="1" stop-color="rgb(20.809937%, 64.833069%, 97.053528%)" offset="0.4375"/><stop stop-opacity="1" stop-color="rgb(20.758057%, 64.535522%, 96.91925%)" offset="0.5"/><stop stop-opacity="1" stop-color="rgb(20.706177%, 64.239502%, 96.786499%)" offset="0.5625"/><stop stop-opacity="1" stop-color="rgb(20.652771%, 63.943481%, 96.652222%)" offset="0.625"/><stop stop-opacity="1" stop-color="rgb(20.600891%, 63.647461%, 96.51947%)" offset="0.6875"/><stop stop-opacity="1" stop-color="rgb(20.549011%, 63.35144%, 96.385193%)" offset="0.75"/><stop stop-opacity="1" stop-color="rgb(20.497131%, 63.053894%, 96.252441%)" offset="0.8125"/><stop stop-opacity="1" stop-color="rgb(20.445251%, 62.757874%, 96.118164%)" offset="0.875"/><stop stop-opacity="1" stop-color="rgb(20.393372%, 62.461853%, 95.985413%)" offset="0.9375"/><stop stop-opacity="1" stop-color="rgb(20.339966%, 62.165833%, 95.851135%)" offset="1"/></linearGradient><clipPath id="57dd7155d9"><rect x="0" width="16" y="0" height="16"/></clipPath><clipPath id="26e2fd0108"><path d="M 31.699219 7.328125 L 35.363281 7.328125 L 35.363281 13.925781 L 31.699219 13.925781 Z M 31.699219 7.328125 " clip-rule="nonzero"/></clipPath><clipPath id="b03311f48d"><path d="M 35.492188 10.148438 C 35.441406 9.582031 35.199219 9.046875 34.871094 8.582031 C 34.542969 8.117188 34.132812 7.71875 33.707031 7.339844 C 33.878906 7.6875 33.796875 8.117188 33.605469 8.453125 C 33.410156 8.789062 33.117188 9.050781 32.832031 9.3125 C 32.546875 9.574219 32.261719 9.851562 32.089844 10.199219 C 31.90625 10.582031 31.703125 11.617188 32.582031 12.3125 C 32.652344 11.757812 32.691406 11.570312 32.859375 11.199219 C 33.03125 10.832031 33.300781 10.515625 33.527344 10.179688 C 33.757812 9.84375 33.957031 9.464844 33.953125 9.058594 C 33.980469 9.375 33.875 9.6875 33.730469 9.96875 C 33.585938 10.25 33.40625 10.511719 33.265625 10.792969 C 33.007812 11.304688 32.8125 12.03125 32.8125 13.890625 C 32.820312 13.671875 32.898438 13.449219 33.023438 13.261719 C 33.042969 13.230469 33.058594 13.207031 33.078125 13.179688 C 33.09375 13.160156 33.109375 13.140625 33.125 13.121094 C 33.367188 12.832031 33.703125 12.628906 34.035156 12.441406 C 34.386719 12.238281 34.746094 12.039062 35.015625 11.738281 C 35.394531 11.3125 35.546875 10.714844 35.492188 10.148438 Z M 35.492188 10.148438 " clip-rule="nonzero"/></clipPath><linearGradient x1="2460.78" gradientTransform="matrix(-0.00546981, 0, 0, 0.00546981, 47.176027, 7.329381)" y1="2.100116" x2="2460.78" gradientUnits="userSpaceOnUse" y2="1199.600131" id="b7fee1094f"><stop stop-opacity="1" stop-color="rgb(48.48938%, 86.735535%, 76.325989%)" offset="0"/><stop stop-opacity="1" stop-color="rgb(48.591614%, 86.714172%, 76.16272%)" offset="0.03125"/><stop stop-opacity="1" stop-color="rgb(48.794556%, 86.672974%, 75.834656%)" offset="0.0625"/><stop stop-opacity="1" stop-color="rgb(48.999023%, 86.630249%, 75.508118%)" offset="0.09375"/><stop stop-opacity="1" stop-color="rgb(49.203491%, 86.587524%, 75.180054%)" offset="0.125"/><stop stop-opacity="1" stop-color="rgb(49.407959%, 86.5448%, 74.853516%)" offset="0.15625"/><stop stop-opacity="1" stop-color="rgb(49.610901%, 86.503601%, 74.525452%)" offset="0.1875"/><stop stop-opacity="1" stop-color="rgb(49.815369%, 86.460876%, 74.198914%)" offset="0.21875"/><stop stop-opacity="1" stop-color="rgb(50.019836%, 86.418152%, 73.87085%)" offset="0.25"/><stop stop-opacity="1" stop-color="rgb(50.224304%, 86.375427%, 73.544312%)" offset="0.28125"/><stop stop-opacity="1" stop-color="rgb(50.427246%, 86.332703%, 73.216248%)" offset="0.3125"/><stop stop-opacity="1" stop-color="rgb(50.631714%, 86.291504%, 72.889709%)" offset="0.34375"/><stop stop-opacity="1" stop-color="rgb(50.836182%, 86.248779%, 72.561646%)" offset="0.375"/><stop stop-opacity="1" stop-color="rgb(51.040649%, 86.206055%, 72.235107%)" offset="0.40625"/><stop stop-opacity="1" stop-color="rgb(51.243591%, 86.16333%, 71.907043%)" offset="0.4375"/><stop stop-opacity="1" stop-color="rgb(51.448059%, 86.122131%, 71.580505%)" offset="0.46875"/><stop stop-opacity="1" stop-color="rgb(51.652527%, 86.079407%, 71.252441%)" offset="0.5"/><stop stop-opacity="1" stop-color="rgb(51.856995%, 86.036682%, 70.925903%)" offset="0.53125"/><stop stop-opacity="1" stop-color="rgb(52.059937%, 85.993958%, 70.597839%)" offset="0.5625"/><stop stop-opacity="1" stop-color="rgb(52.264404%, 85.952759%, 70.271301%)" offset="0.59375"/><stop stop-opacity="1" stop-color="rgb(52.468872%, 85.910034%, 69.943237%)" offset="0.625"/><stop stop-opacity="1" stop-color="rgb(52.67334%, 85.86731%, 69.616699%)" offset="0.65625"/><stop stop-opacity="1" stop-color="rgb(52.876282%, 85.824585%, 69.288635%)" offset="0.6875"/><stop stop-opacity="1" stop-color="rgb(53.08075%, 85.783386%, 68.962097%)" offset="0.71875"/><stop stop-opacity="1" stop-color="rgb(53.285217%, 85.740662%, 68.634033%)" offset="0.75"/><stop stop-opacity="1" stop-color="rgb(53.489685%, 85.697937%, 68.307495%)" offset="0.78125"/><stop stop-opacity="1" stop-color="rgb(53.692627%, 85.655212%, 67.979431%)" offset="0.8125"/><stop stop-opacity="1" stop-color="rgb(53.897095%, 85.614014%, 67.652893%)" offset="0.84375"/><stop stop-opacity="1" stop-color="rgb(54.101562%, 85.571289%, 67.324829%)" offset="0.875"/><stop stop-opacity="1" stop-color="rgb(54.30603%, 85.528564%, 66.998291%)" offset="0.90625"/><stop stop-opacity="1" stop-color="rgb(54.508972%, 85.48584%, 66.670227%)" offset="0.9375"/><stop stop-opacity="1" stop-color="rgb(54.71344%, 85.444641%, 66.342163%)" offset="0.96875"/><stop stop-opacity="1" stop-color="rgb(54.917908%, 85.401917%, 66.015625%)" offset="1"/></linearGradient><clipPath id="d2ae0b8bf3"><path d="M 31.699219 7.328125 L 35.363281 7.328125 L 35.363281 13.925781 L 31.699219 13.925781 Z M 31.699219 7.328125 " clip-rule="nonzero"/></clipPath><clipPath id="04329cf8e3"><path d="M 1 0.0234375 L 8 0.0234375 L 8 7 L 1 7 Z M 1 0.0234375 " clip-rule="nonzero"/></clipPath><clipPath id="4d76f2092b"><path d="M 8 0.0234375 L 13 0.0234375 L 13 7 L 8 7 Z M 8 0.0234375 " clip-rule="nonzero"/></clipPath><clipPath id="10d8d97d52"><path d="M 13 0.0234375 L 18 0.0234375 L 18 7 L 13 7 Z M 13 0.0234375 " clip-rule="nonzero"/></clipPath><clipPath id="a4ac65f169"><path d="M 18 0.0234375 L 24 0.0234375 L 24 7 L 18 7 Z M 18 0.0234375 " clip-rule="nonzero"/></clipPath><clipPath id="de4db74496"><path d="M 23 0.0234375 L 30 0.0234375 L 30 7 L 23 7 Z M 23 0.0234375 " clip-rule="nonzero"/></clipPath><clipPath id="b16efd08d3"><path d="M 29 0.0234375 L 35.9375 0.0234375 L 35.9375 7 L 29 7 Z M 29 0.0234375 " clip-rule="nonzero"/></clipPath><clipPath id="c2e59940b6"><rect x="0" width="36" y="0" height="9"/></clipPath></defs><g clip-path="url(#366a346f96)"><g clip-path="url(#2edbbad921)"><path fill="url(#900732deac)" d="M 44.648438 3.09375 L 23.949219 3.09375 L 23.949219 23.613281 L 44.648438 23.613281 Z M 44.648438 3.09375 " fill-rule="nonzero"/></g></g><g clip-path="url(#5cb470763b)"><g transform="matrix(1, 0, 0, 1, 25, 8)"><g clip-path="url(#57dd7155d9)"><g clip-path="url(#4a665e76e8)"><path fill="#1800ad" d="M 2.625 0.941406 C 2.445312 1.847656 2.898438 2.785156 3.554688 3.4375 C 4.207031 4.09375 5.042969 4.527344 5.839844 4.996094 C 6.640625 5.460938 7.4375 5.992188 7.9375 6.769531 C 8.375 7.449219 8.554688 8.257812 8.644531 9.058594 C 8.757812 10.027344 8.742188 11.046875 8.433594 11.957031 C 8.210938 11.40625 7.917969 10.882812 7.585938 10.386719 C 6.933594 9.417969 6.128906 8.566406 5.328125 7.714844 C 4.390625 6.722656 3.457031 5.730469 2.519531 4.734375 C 3.488281 6.550781 4.988281 8.015625 6.257812 9.636719 C 7.527344 11.257812 8.609375 13.191406 8.492188 15.246094 C 8.394531 14.195312 7.542969 13.359375 6.617188 12.851562 C 5.691406 12.34375 4.652344 12.058594 3.742188 11.527344 C 2.015625 10.523438 0.855469 8.609375 0.765625 6.613281 C 0.675781 4.597656 1.59375 2.675781 2.625 0.941406 Z M 2.625 0.941406 " fill-opacity="1" fill-rule="nonzero"/></g><g clip-path="url(#eed2fae210)"><g clip-path="url(#46ccdc1a62)"><path fill="url(#19bf3e152a)" d="M 9.148438 1.8125 L 9.148438 12.648438 L 15.273438 12.648438 L 15.273438 1.8125 Z M 9.148438 1.8125 " fill-rule="nonzero"/></g></g></g></g></g><g clip-path="url(#26e2fd0108)"><g clip-path="url(#b03311f48d)"><path fill="url(#b7fee1094f)" d="M 35.363281 7.339844 L 35.363281 13.890625 L 31.703125 13.890625 L 31.703125 7.339844 Z M 35.363281 7.339844 " fill-rule="nonzero"/></g></g><g clip-path="url(#d2ae0b8bf3)"><path stroke-linecap="butt" transform="matrix(0.00546981, 0, 0, 0.00546981, 31.926306, 7.329382)" fill="none" stroke-linejoin="miter" d="M 651.920541 515.384642 C 642.636625 411.833276 598.359489 313.995088 538.371111 229.011553 C 478.382734 144.028018 403.397261 71.184987 325.5552 1.912694 C 356.977683 65.471809 341.980589 144.028018 306.987368 205.44469 C 271.280001 266.861363 217.718949 314.709235 165.586192 362.557108 C 113.453435 410.404981 61.320678 461.109443 29.898195 524.668558 C -3.666731 594.654998 -40.802393 783.904047 119.880761 911.022277 C 132.735414 809.613352 139.876887 775.334279 170.585224 707.49028 C 202.007707 640.360429 251.283875 582.514493 292.704421 521.097821 C 334.839115 459.681148 371.26063 390.408855 370.546483 316.13753 C 375.545514 373.983466 356.263536 431.115254 329.840084 482.533864 C 303.416632 533.952473 270.565853 581.800346 244.856549 633.218956 C 197.722823 726.772259 162.015455 859.603667 162.015455 1199.537808 C 163.44375 1159.545556 177.726697 1118.839157 200.579413 1084.560084 C 204.150149 1078.846905 207.006739 1074.562021 210.577476 1069.562989 C 213.434065 1065.992253 216.290654 1062.421516 219.147244 1058.850779 C 263.42438 1006.003875 324.841052 968.868212 385.543577 934.589139 C 449.816839 897.453477 515.518396 861.031962 564.794563 806.042615 C 634.066857 728.200554 661.918604 618.936008 651.920541 515.384642 Z M 651.920541 515.384642 " stroke="#ffffff" stroke-width="1" stroke-opacity="1" stroke-miterlimit="10"/></g><g transform="matrix(1, 0, 0, 1, 49, 11)"><g clip-path="url(#c2e59940b6)"><g clip-path="url(#04329cf8e3)"><g fill="#1800ad" fill-opacity="1"><g transform="translate(1.214881, 6.36101)"><g><path d="M 4.25 -6.078125 L 5.890625 -6.078125 C 5.984375 -6.078125 6.03125 -6.03125 6.03125 -5.9375 C 6.03125 -5.894531 6.015625 -5.859375 5.984375 -5.828125 C 5.960938 -5.804688 5.929688 -5.765625 5.890625 -5.703125 C 5.847656 -5.640625 5.804688 -5.539062 5.765625 -5.40625 C 5.722656 -5.28125 5.6875 -5.09375 5.65625 -4.84375 C 5.632812 -4.601562 5.625 -4.273438 5.625 -3.859375 L 5.625 -2.25 C 5.625 -1.832031 5.632812 -1.5 5.65625 -1.25 C 5.6875 -1 5.722656 -0.804688 5.765625 -0.671875 C 5.804688 -0.535156 5.847656 -0.4375 5.890625 -0.375 C 5.929688 -0.3125 5.960938 -0.265625 5.984375 -0.234375 C 6.015625 -0.210938 6.03125 -0.179688 6.03125 -0.140625 C 6.03125 -0.046875 5.988281 0 5.90625 0 L 4.046875 0 C 3.960938 0 3.921875 -0.0390625 3.921875 -0.125 C 3.921875 -0.175781 3.929688 -0.21875 3.953125 -0.25 C 3.984375 -0.28125 4.019531 -0.320312 4.0625 -0.375 C 4.101562 -0.4375 4.144531 -0.535156 4.1875 -0.671875 C 4.226562 -0.804688 4.257812 -1 4.28125 -1.25 C 4.3125 -1.5 4.328125 -1.832031 4.328125 -2.25 L 4.328125 -4.78125 L 2.890625 -0.203125 C 2.847656 -0.0664062 2.753906 0 2.609375 0 C 2.453125 0 2.359375 -0.0664062 2.328125 -0.203125 L 0.921875 -4.765625 L 0.921875 -2.25 C 0.921875 -1.832031 0.929688 -1.5 0.953125 -1.25 C 0.984375 -1 1.019531 -0.804688 1.0625 -0.671875 C 1.101562 -0.535156 1.144531 -0.4375 1.1875 -0.375 C 1.226562 -0.3125 1.257812 -0.265625 1.28125 -0.234375 C 1.3125 -0.210938 1.328125 -0.179688 1.328125 -0.140625 C 1.328125 -0.046875 1.285156 0 1.203125 0 L 0.234375 0 C 0.148438 0 0.109375 -0.0390625 0.109375 -0.125 C 0.109375 -0.175781 0.125 -0.21875 0.15625 -0.25 C 0.1875 -0.28125 0.21875 -0.320312 0.25 -0.375 C 0.289062 -0.4375 0.332031 -0.535156 0.375 -0.671875 C 0.414062 -0.804688 0.445312 -1 0.46875 -1.25 C 0.5 -1.5 0.515625 -1.832031 0.515625 -2.25 L 0.515625 -3.828125 C 0.515625 -4.234375 0.5 -4.5625 0.46875 -4.8125 C 0.445312 -5.070312 0.414062 -5.269531 0.375 -5.40625 C 0.332031 -5.539062 0.289062 -5.640625 0.25 -5.703125 C 0.21875 -5.765625 0.1875 -5.804688 0.15625 -5.828125 C 0.125 -5.859375 0.109375 -5.894531 0.109375 -5.9375 C 0.109375 -6.03125 0.148438 -6.078125 0.234375 -6.078125 L 1.9375 -6.078125 C 2.050781 -6.078125 2.117188 -6.007812 2.140625 -5.875 C 2.171875 -5.519531 2.238281 -5.132812 2.34375 -4.71875 C 2.445312 -4.300781 2.5625 -3.875 2.6875 -3.4375 C 2.820312 -3.007812 2.953125 -2.585938 3.078125 -2.171875 C 3.273438 -2.785156 3.453125 -3.390625 3.609375 -3.984375 C 3.765625 -4.585938 3.90625 -5.21875 4.03125 -5.875 C 4.050781 -6.007812 4.125 -6.078125 4.25 -6.078125 Z M 4.25 -6.078125 "/></g></g></g></g><g clip-path="url(#4d76f2092b)"><g fill="#1800ad" fill-opacity="1"><g transform="translate(8.064226, 6.36101)"><g><path d="M 0.109375 -0.125 C 0.109375 -0.175781 0.125 -0.21875 0.15625 -0.25 C 0.1875 -0.28125 0.21875 -0.320312 0.25 -0.375 C 0.289062 -0.4375 0.332031 -0.535156 0.375 -0.671875 C 0.414062 -0.804688 0.445312 -1 0.46875 -1.25 C 0.5 -1.5 0.515625 -1.832031 0.515625 -2.25 L 0.515625 -3.828125 C 0.515625 -4.234375 0.5 -4.5625 0.46875 -4.8125 C 0.445312 -5.070312 0.414062 -5.269531 0.375 -5.40625 C 0.332031 -5.539062 0.289062 -5.640625 0.25 -5.703125 C 0.21875 -5.765625 0.1875 -5.804688 0.15625 -5.828125 C 0.125 -5.859375 0.109375 -5.894531 0.109375 -5.9375 C 0.109375 -6.03125 0.148438 -6.078125 0.234375 -6.078125 L 3.546875 -6.078125 C 3.847656 -6.078125 4.007812 -5.925781 4.03125 -5.625 L 4.0625 -4.71875 C 4.070312 -4.539062 3.992188 -4.453125 3.828125 -4.453125 C 3.742188 -4.453125 3.675781 -4.492188 3.625 -4.578125 C 3.582031 -4.660156 3.535156 -4.757812 3.484375 -4.875 C 3.429688 -5 3.359375 -5.125 3.265625 -5.25 C 3.179688 -5.375 3.066406 -5.472656 2.921875 -5.546875 C 2.773438 -5.628906 2.582031 -5.671875 2.34375 -5.671875 L 1.8125 -5.671875 L 1.8125 -3.234375 L 1.84375 -3.234375 C 2.039062 -3.234375 2.195312 -3.273438 2.3125 -3.359375 C 2.425781 -3.441406 2.519531 -3.535156 2.59375 -3.640625 C 2.664062 -3.753906 2.738281 -3.847656 2.8125 -3.921875 C 2.882812 -4.003906 2.972656 -4.046875 3.078125 -4.046875 C 3.210938 -4.046875 3.28125 -3.976562 3.28125 -3.84375 L 3.28125 -2.25 C 3.28125 -2.09375 3.203125 -2.015625 3.046875 -2.015625 C 2.929688 -2.015625 2.84375 -2.054688 2.78125 -2.140625 C 2.726562 -2.222656 2.671875 -2.316406 2.609375 -2.421875 C 2.554688 -2.535156 2.484375 -2.632812 2.390625 -2.71875 C 2.296875 -2.800781 2.15625 -2.84375 1.96875 -2.84375 L 1.8125 -2.84375 L 1.8125 -0.40625 L 2.421875 -0.40625 C 2.660156 -0.40625 2.851562 -0.445312 3 -0.53125 C 3.144531 -0.613281 3.257812 -0.710938 3.34375 -0.828125 C 3.4375 -0.953125 3.507812 -1.070312 3.5625 -1.1875 C 3.613281 -1.3125 3.660156 -1.414062 3.703125 -1.5 C 3.753906 -1.582031 3.820312 -1.625 3.90625 -1.625 C 4.070312 -1.625 4.15625 -1.535156 4.15625 -1.359375 L 4.109375 -0.453125 C 4.097656 -0.148438 3.9375 0 3.625 0 L 0.234375 0 C 0.148438 0 0.109375 -0.0390625 0.109375 -0.125 Z M 0.109375 -0.125 "/></g></g></g></g><g clip-path="url(#10d8d97d52)"><g fill="#1800ad" fill-opacity="1"><g transform="translate(13.046337, 6.36101)"><g><path d="M 4.5 -4.71875 C 4.5 -4.539062 4.414062 -4.453125 4.25 -4.453125 C 4.175781 -4.453125 4.113281 -4.488281 4.0625 -4.5625 C 4.007812 -4.644531 3.957031 -4.742188 3.90625 -4.859375 C 3.863281 -4.972656 3.800781 -5.085938 3.71875 -5.203125 C 3.644531 -5.328125 3.539062 -5.429688 3.40625 -5.515625 C 3.28125 -5.597656 3.109375 -5.648438 2.890625 -5.671875 L 2.890625 -2.25 C 2.890625 -1.832031 2.898438 -1.5 2.921875 -1.25 C 2.953125 -1 2.988281 -0.804688 3.03125 -0.671875 C 3.070312 -0.535156 3.109375 -0.4375 3.140625 -0.375 C 3.179688 -0.3125 3.210938 -0.265625 3.234375 -0.234375 C 3.265625 -0.210938 3.28125 -0.179688 3.28125 -0.140625 C 3.28125 -0.046875 3.242188 0 3.171875 0 L 1.3125 0 C 1.226562 0 1.1875 -0.0390625 1.1875 -0.125 C 1.1875 -0.175781 1.195312 -0.21875 1.21875 -0.25 C 1.25 -0.28125 1.285156 -0.320312 1.328125 -0.375 C 1.367188 -0.4375 1.410156 -0.535156 1.453125 -0.671875 C 1.492188 -0.804688 1.523438 -1 1.546875 -1.25 C 1.578125 -1.5 1.59375 -1.832031 1.59375 -2.25 L 1.59375 -5.671875 C 1.375 -5.648438 1.195312 -5.597656 1.0625 -5.515625 C 0.925781 -5.429688 0.816406 -5.328125 0.734375 -5.203125 C 0.660156 -5.085938 0.597656 -4.972656 0.546875 -4.859375 C 0.503906 -4.742188 0.457031 -4.644531 0.40625 -4.5625 C 0.351562 -4.488281 0.289062 -4.453125 0.21875 -4.453125 C 0.0507812 -4.453125 -0.03125 -4.539062 -0.03125 -4.71875 L 0.015625 -5.625 C 0.0351562 -5.925781 0.195312 -6.078125 0.5 -6.078125 L 3.96875 -6.078125 C 4.269531 -6.078125 4.429688 -5.925781 4.453125 -5.625 Z M 4.5 -4.71875 "/></g></g></g></g><g clip-path="url(#a4ac65f169)"><g fill="#1800ad" fill-opacity="1"><g transform="translate(18.215987, 6.36101)"><g><path d="M 1.8125 -5.75 L 1.8125 -3.09375 C 2.675781 -3.101562 3.109375 -3.546875 3.109375 -4.421875 C 3.109375 -5.296875 2.675781 -5.738281 1.8125 -5.75 Z M 0.109375 -0.125 C 0.109375 -0.175781 0.125 -0.21875 0.15625 -0.25 C 0.1875 -0.28125 0.21875 -0.320312 0.25 -0.375 C 0.289062 -0.4375 0.332031 -0.535156 0.375 -0.671875 C 0.414062 -0.804688 0.445312 -1 0.46875 -1.25 C 0.5 -1.5 0.515625 -1.832031 0.515625 -2.25 L 0.515625 -3.828125 C 0.515625 -4.234375 0.5 -4.5625 0.46875 -4.8125 C 0.445312 -5.070312 0.414062 -5.269531 0.375 -5.40625 C 0.332031 -5.539062 0.289062 -5.640625 0.25 -5.703125 C 0.21875 -5.765625 0.1875 -5.804688 0.15625 -5.828125 C 0.125 -5.859375 0.109375 -5.894531 0.109375 -5.9375 C 0.109375 -6.03125 0.148438 -6.078125 0.234375 -6.078125 L 2.265625 -6.078125 C 3.003906 -6.078125 3.546875 -5.925781 3.890625 -5.625 C 4.234375 -5.320312 4.40625 -4.921875 4.40625 -4.421875 C 4.40625 -4.023438 4.296875 -3.691406 4.078125 -3.421875 C 3.867188 -3.160156 3.566406 -2.976562 3.171875 -2.875 C 3.472656 -2.769531 3.691406 -2.535156 3.828125 -2.171875 C 3.953125 -1.796875 4.070312 -1.488281 4.1875 -1.25 C 4.3125 -1.019531 4.421875 -0.835938 4.515625 -0.703125 C 4.609375 -0.566406 4.6875 -0.46875 4.75 -0.40625 C 4.820312 -0.34375 4.875 -0.289062 4.90625 -0.25 C 4.945312 -0.21875 4.96875 -0.179688 4.96875 -0.140625 C 4.96875 -0.046875 4.929688 0 4.859375 0 L 2.921875 0 C 2.847656 0 2.8125 -0.0390625 2.8125 -0.125 C 2.8125 -0.175781 2.816406 -0.21875 2.828125 -0.25 C 2.847656 -0.289062 2.863281 -0.34375 2.875 -0.40625 C 2.882812 -0.476562 2.878906 -0.582031 2.859375 -0.71875 C 2.835938 -0.863281 2.796875 -1.054688 2.734375 -1.296875 C 2.671875 -1.535156 2.570312 -1.851562 2.4375 -2.25 L 2.265625 -2.765625 L 1.8125 -2.765625 L 1.8125 -2.25 C 1.8125 -1.832031 1.828125 -1.5 1.859375 -1.25 C 1.890625 -1 1.921875 -0.804688 1.953125 -0.671875 C 1.992188 -0.535156 2.035156 -0.4375 2.078125 -0.375 C 2.117188 -0.3125 2.148438 -0.265625 2.171875 -0.234375 C 2.203125 -0.210938 2.21875 -0.179688 2.21875 -0.140625 C 2.21875 -0.046875 2.175781 0 2.09375 0 L 0.234375 0 C 0.148438 0 0.109375 -0.0390625 0.109375 -0.125 Z M 0.109375 -0.125 "/></g></g></g></g><g clip-path="url(#de4db74496)"><g fill="#1800ad" fill-opacity="1"><g transform="translate(23.866715, 6.36101)"><g><path d="M 2.734375 0.078125 C 2.265625 0.078125 1.832031 -0.0351562 1.4375 -0.265625 C 1.039062 -0.503906 0.722656 -0.851562 0.484375 -1.3125 C 0.242188 -1.78125 0.125 -2.359375 0.125 -3.046875 C 0.125 -3.722656 0.242188 -4.289062 0.484375 -4.75 C 0.722656 -5.21875 1.039062 -5.566406 1.4375 -5.796875 C 1.832031 -6.035156 2.265625 -6.15625 2.734375 -6.15625 C 3.203125 -6.15625 3.628906 -6.035156 4.015625 -5.796875 C 4.410156 -5.566406 4.726562 -5.21875 4.96875 -4.75 C 5.207031 -4.289062 5.328125 -3.722656 5.328125 -3.046875 C 5.328125 -2.359375 5.207031 -1.78125 4.96875 -1.3125 C 4.726562 -0.851562 4.410156 -0.503906 4.015625 -0.265625 C 3.628906 -0.0351562 3.203125 0.078125 2.734375 0.078125 Z M 2.734375 -0.25 C 3.078125 -0.25 3.363281 -0.484375 3.59375 -0.953125 C 3.832031 -1.421875 3.953125 -2.117188 3.953125 -3.046875 C 3.953125 -3.972656 3.832031 -4.664062 3.59375 -5.125 C 3.363281 -5.59375 3.078125 -5.828125 2.734375 -5.828125 C 2.378906 -5.828125 2.085938 -5.59375 1.859375 -5.125 C 1.628906 -4.65625 1.515625 -3.960938 1.515625 -3.046875 C 1.515625 -2.117188 1.628906 -1.421875 1.859375 -0.953125 C 2.085938 -0.484375 2.378906 -0.25 2.734375 -0.25 Z M 2.734375 -0.25 "/></g></g></g></g><g clip-path="url(#b16efd08d3)"><g fill="#1800ad" fill-opacity="1"><g transform="translate(30.031137, 6.36101)"><g><path d="M 3.578125 -2.25 C 3.773438 -1.832031 3.953125 -1.5 4.109375 -1.25 C 4.265625 -1 4.394531 -0.804688 4.5 -0.671875 C 4.613281 -0.546875 4.707031 -0.453125 4.78125 -0.390625 C 4.851562 -0.328125 4.90625 -0.28125 4.9375 -0.25 C 4.976562 -0.226562 5.003906 -0.191406 5.015625 -0.140625 C 5.023438 -0.046875 4.984375 0 4.890625 0 L 2.828125 0 C 2.722656 0 2.671875 -0.046875 2.671875 -0.140625 C 2.671875 -0.191406 2.679688 -0.226562 2.703125 -0.25 C 2.734375 -0.28125 2.757812 -0.320312 2.78125 -0.375 C 2.800781 -0.4375 2.796875 -0.53125 2.765625 -0.65625 C 2.742188 -0.789062 2.6875 -0.976562 2.59375 -1.21875 C 2.5 -1.46875 2.351562 -1.796875 2.15625 -2.203125 L 2.09375 -2.34375 L 2.046875 -2.25 C 1.816406 -1.820312 1.648438 -1.476562 1.546875 -1.21875 C 1.441406 -0.96875 1.382812 -0.773438 1.375 -0.640625 C 1.363281 -0.515625 1.375 -0.425781 1.40625 -0.375 C 1.4375 -0.320312 1.472656 -0.285156 1.515625 -0.265625 C 1.554688 -0.242188 1.578125 -0.207031 1.578125 -0.15625 C 1.578125 -0.101562 1.550781 -0.0625 1.5 -0.03125 C 1.445312 -0.0078125 1.394531 0 1.34375 0 L 0.09375 0 C 0.0507812 0 0.015625 -0.0078125 -0.015625 -0.03125 C -0.046875 -0.0625 -0.0507812 -0.101562 -0.03125 -0.15625 C -0.0078125 -0.195312 0.015625 -0.226562 0.046875 -0.25 C 0.0859375 -0.269531 0.144531 -0.304688 0.21875 -0.359375 C 0.289062 -0.410156 0.382812 -0.5 0.5 -0.625 C 0.613281 -0.757812 0.753906 -0.953125 0.921875 -1.203125 C 1.097656 -1.453125 1.300781 -1.785156 1.53125 -2.203125 L 1.875 -2.828125 L 1.375 -3.828125 C 1.175781 -4.234375 1 -4.5625 0.84375 -4.8125 C 0.695312 -5.070312 0.566406 -5.265625 0.453125 -5.390625 C 0.335938 -5.523438 0.242188 -5.625 0.171875 -5.6875 C 0.0976562 -5.75 0.0390625 -5.789062 0 -5.8125 C -0.03125 -5.84375 -0.046875 -5.882812 -0.046875 -5.9375 C -0.0546875 -6.03125 -0.0195312 -6.078125 0.0625 -6.078125 L 2.140625 -6.078125 C 2.234375 -6.078125 2.28125 -6.03125 2.28125 -5.9375 C 2.28125 -5.882812 2.265625 -5.84375 2.234375 -5.8125 C 2.210938 -5.789062 2.191406 -5.75 2.171875 -5.6875 C 2.160156 -5.632812 2.164062 -5.539062 2.1875 -5.40625 C 2.21875 -5.28125 2.273438 -5.09375 2.359375 -4.84375 C 2.453125 -4.601562 2.597656 -4.273438 2.796875 -3.859375 L 2.859375 -3.734375 L 2.921875 -3.828125 C 3.160156 -4.253906 3.328125 -4.59375 3.421875 -4.84375 C 3.523438 -5.101562 3.582031 -5.296875 3.59375 -5.421875 C 3.601562 -5.554688 3.585938 -5.648438 3.546875 -5.703125 C 3.515625 -5.753906 3.476562 -5.789062 3.4375 -5.8125 C 3.394531 -5.84375 3.375 -5.878906 3.375 -5.921875 C 3.375 -5.972656 3.398438 -6.007812 3.453125 -6.03125 C 3.515625 -6.0625 3.566406 -6.078125 3.609375 -6.078125 L 4.859375 -6.078125 C 4.910156 -6.078125 4.953125 -6.0625 4.984375 -6.03125 C 5.015625 -6.007812 5.015625 -5.972656 4.984375 -5.921875 C 4.960938 -5.878906 4.929688 -5.847656 4.890625 -5.828125 C 4.859375 -5.804688 4.804688 -5.765625 4.734375 -5.703125 C 4.660156 -5.648438 4.566406 -5.5625 4.453125 -5.4375 C 4.335938 -5.3125 4.195312 -5.125 4.03125 -4.875 C 3.863281 -4.625 3.660156 -4.285156 3.421875 -3.859375 L 3.09375 -3.265625 Z M 3.578125 -2.25 "/></g></g></g></g></g></g></svg>