<svg xmlns="http://www.w3.org/2000/svg" xmlns:xlink="http://www.w3.org/1999/xlink" width="500" zoomAndPan="magnify" viewBox="0 0 375 374.999991" height="500" preserveAspectRatio="xMidYMid meet" version="1.0"><defs><clipPath id="cec44f8aa2"><path d="M 17 14.792969 L 328 14.792969 L 328 324.542969 L 17 324.542969 Z M 17 14.792969 " clip-rule="nonzero"/></clipPath><clipPath id="7fbc2627fe"><path d="M 172.367188 324.613281 C 162.429688 324.617188 152.582031 323.671875 142.828125 321.785156 C 137.964844 320.839844 133.152344 319.664062 128.386719 318.257812 C 123.625 316.851562 118.945312 315.210938 114.351562 313.335938 C 112.320312 312.511719 110.304688 311.644531 108.304688 310.734375 C 106.308594 309.824219 104.328125 308.871094 102.371094 307.875 C 100.414062 306.878906 98.480469 305.84375 96.566406 304.769531 C 94.652344 303.691406 92.765625 302.574219 90.898438 301.417969 C 89.03125 300.261719 87.191406 299.0625 85.375 297.828125 C 83.5625 296.59375 81.773438 295.320312 80.011719 294.011719 C 78.25 292.699219 76.519531 291.351562 74.8125 289.964844 C 73.109375 288.582031 71.4375 287.164062 69.792969 285.707031 C 68.148438 284.25 66.535156 282.761719 64.957031 281.238281 C 63.375 279.714844 61.828125 278.15625 60.3125 276.566406 C 58.796875 274.980469 57.320312 273.359375 55.871094 271.707031 C 54.425781 270.054688 53.015625 268.371094 51.640625 266.660156 C 50.269531 264.945312 48.929688 263.207031 47.628906 261.4375 C 46.328125 259.667969 45.066406 257.871094 43.84375 256.050781 C 42.617188 254.226562 41.433594 252.378906 40.285156 250.507812 C 39.140625 248.636719 38.035156 246.738281 36.96875 244.820312 C 35.902344 242.898438 34.878906 240.957031 33.894531 238.996094 C 32.914062 237.03125 31.972656 235.050781 31.074219 233.046875 C 30.171875 231.042969 29.316406 229.023438 28.503906 226.984375 C 27.691406 224.945312 26.921875 222.886719 26.195312 220.816406 C 25.46875 218.746094 24.785156 216.65625 24.148438 214.558594 C 23.511719 212.457031 22.917969 210.34375 22.371094 208.21875 C 21.820312 206.089844 21.320312 203.953125 20.863281 201.808594 C 20.40625 199.660156 19.992188 197.503906 19.625 195.339844 C 19.261719 193.175781 18.941406 191.003906 18.667969 188.824219 C 18.394531 186.644531 18.164062 184.460938 17.984375 182.273438 C 17.804688 180.085938 17.667969 177.894531 17.582031 175.703125 C 17.492188 173.507812 17.449219 171.3125 17.457031 169.117188 C 17.460938 166.921875 17.511719 164.726562 17.609375 162.535156 C 17.707031 160.339844 17.851562 158.152344 18.042969 155.964844 C 18.234375 153.777344 18.472656 151.59375 18.753906 149.417969 C 19.039062 147.238281 19.367188 145.070312 19.742188 142.90625 C 20.84375 136.59375 22.335938 130.375 24.210938 124.246094 C 26.085938 118.117188 28.335938 112.128906 30.960938 106.285156 C 33.582031 100.4375 36.558594 94.773438 39.886719 89.296875 C 43.214844 83.820312 46.871094 78.570312 50.851562 73.550781 C 54.046875 69.515625 57.441406 65.652344 61.03125 61.953125 C 68.238281 54.515625 76.109375 47.871094 84.644531 42.011719 L 86.25 40.925781 C 86.789062 40.566406 87.320312 40.199219 87.867188 39.855469 L 89.5 38.8125 C 90.042969 38.460938 90.585938 38.113281 91.144531 37.78125 C 93.351562 36.429688 95.589844 35.132812 97.851562 33.886719 C 102.390625 31.394531 107.046875 29.136719 111.816406 27.117188 C 121.390625 23.054688 131.277344 19.996094 141.472656 17.9375 C 146.554688 16.914062 151.679688 16.140625 156.84375 15.621094 C 162.011719 15.101562 167.1875 14.839844 172.367188 14.847656 C 182.769531 14.847656 193.066406 15.875 203.265625 17.921875 C 218.617188 21.019531 233.160156 26.328125 246.894531 33.855469 C 251.433594 36.339844 255.835938 39.046875 260.101562 41.976562 C 266.480469 46.347656 272.5 51.167969 278.15625 56.441406 C 283.808594 61.714844 289.042969 67.378906 293.847656 73.4375 C 298.65625 79.492188 302.984375 85.875 306.835938 92.578125 C 310.6875 99.285156 314.015625 106.238281 316.824219 113.441406 C 320.542969 122.992188 323.28125 132.8125 325.03125 142.90625 C 325.40625 145.070312 325.734375 147.242188 326.019531 149.417969 C 326.300781 151.59375 326.535156 153.777344 326.726562 155.964844 C 326.917969 158.152344 327.058594 160.34375 327.15625 162.535156 C 327.253906 164.730469 327.304688 166.925781 327.308594 169.121094 C 327.3125 171.316406 327.269531 173.507812 327.179688 175.703125 C 327.09375 177.898438 326.957031 180.089844 326.773438 182.277344 C 326.59375 184.464844 326.363281 186.648438 326.089844 188.824219 C 325.816406 191.003906 325.496094 193.175781 325.128906 195.339844 C 324.761719 197.503906 324.351562 199.660156 323.890625 201.808594 C 323.433594 203.957031 322.929688 206.09375 322.382812 208.21875 C 321.832031 210.34375 321.238281 212.457031 320.601562 214.558594 C 319.964844 216.660156 319.28125 218.746094 318.554688 220.816406 C 317.828125 222.890625 317.058594 224.945312 316.242188 226.984375 C 315.429688 229.023438 314.574219 231.042969 313.671875 233.046875 C 312.773438 235.050781 311.832031 237.03125 310.847656 238.996094 C 309.863281 240.957031 308.839844 242.898438 307.773438 244.820312 C 306.707031 246.738281 305.601562 248.632812 304.457031 250.507812 C 303.308594 252.378906 302.125 254.226562 300.898438 256.050781 C 299.675781 257.871094 298.410156 259.667969 297.109375 261.4375 C 295.808594 263.203125 294.472656 264.945312 293.097656 266.65625 C 291.722656 268.367188 290.3125 270.050781 288.867188 271.703125 C 287.421875 273.355469 285.941406 274.976562 284.425781 276.566406 C 282.910156 278.15625 281.363281 279.710938 279.78125 281.234375 C 278.203125 282.757812 276.589844 284.25 274.945312 285.703125 C 273.300781 287.160156 271.628906 288.578125 269.921875 289.964844 C 268.21875 291.347656 266.488281 292.695312 264.726562 294.007812 C 262.964844 295.320312 261.175781 296.589844 259.359375 297.828125 C 257.546875 299.0625 255.703125 300.257812 253.839844 301.414062 C 251.972656 302.570312 250.082031 303.6875 248.171875 304.765625 C 246.257812 305.84375 244.320312 306.878906 242.363281 307.875 C 240.40625 308.867188 238.429688 309.820312 236.433594 310.734375 C 234.433594 311.644531 232.417969 312.511719 230.382812 313.335938 C 225.785156 315.199219 221.105469 316.835938 216.347656 318.246094 C 211.585938 319.660156 206.773438 320.835938 201.90625 321.777344 C 197.042969 322.722656 192.132812 323.417969 187.203125 323.90625 C 182.273438 324.394531 177.320312 324.613281 172.367188 324.613281 Z M 172.367188 324.613281 C 177.320312 324.601562 182.265625 324.355469 187.199219 323.871094 C 192.128906 323.382812 197.03125 322.636719 201.875 321.664062 C 211.609375 319.699219 221.046875 316.777344 230.191406 312.90625 C 232.46875 311.941406 234.71875 310.921875 236.941406 309.84375 C 239.167969 308.769531 241.363281 307.632812 243.527344 306.4375 C 248.929688 303.472656 254.128906 300.183594 259.121094 296.566406 C 264.117188 292.953125 268.867188 289.039062 273.371094 284.832031 C 277.875 280.625 282.101562 276.152344 286.046875 271.417969 C 289.992188 266.679688 293.628906 261.71875 296.957031 256.527344 C 298.40625 254.246094 299.796875 251.925781 301.121094 249.570312 C 302.445312 247.214844 303.703125 244.820312 304.898438 242.394531 C 306.09375 239.96875 307.21875 237.511719 308.277344 235.023438 C 309.335938 232.535156 310.328125 230.023438 311.25 227.480469 C 312.171875 224.9375 313.019531 222.371094 313.800781 219.785156 C 314.582031 217.195312 315.292969 214.585938 315.929688 211.960938 C 316.570312 209.332031 317.132812 206.6875 317.628906 204.03125 C 318.121094 201.371094 318.539062 198.703125 318.886719 196.019531 C 319.234375 193.339844 319.507812 190.648438 319.707031 187.953125 C 319.90625 185.257812 320.03125 182.554688 320.085938 179.851562 C 320.136719 177.148438 320.113281 174.445312 320.019531 171.746094 C 319.921875 169.042969 319.75 166.34375 319.507812 163.652344 C 319.261719 160.960938 318.945312 158.273438 318.554688 155.601562 C 318.164062 152.925781 317.699219 150.261719 317.164062 147.613281 C 316.625 144.960938 316.015625 142.328125 315.335938 139.710938 C 314.652344 137.09375 313.902344 134.5 313.078125 131.921875 C 312.253906 129.347656 311.363281 126.796875 310.398438 124.269531 C 309.433594 121.742188 308.402344 119.246094 307.304688 116.777344 C 306.203125 114.304688 305.035156 111.867188 303.804688 109.460938 C 302.570312 107.054688 301.269531 104.683594 299.90625 102.351562 C 298.542969 100.015625 297.117188 97.71875 295.628906 95.460938 C 294.140625 93.207031 292.589844 90.992188 290.980469 88.820312 C 289.367188 86.648438 287.699219 84.519531 285.972656 82.441406 C 284.246094 80.359375 282.464844 78.328125 280.625 76.34375 C 278.785156 74.363281 276.894531 72.429688 274.953125 70.550781 C 273.007812 68.671875 271.015625 66.847656 268.96875 65.078125 C 266.925781 63.308594 264.835938 61.59375 262.695312 59.941406 C 260.558594 58.285156 258.378906 56.6875 256.152344 55.152344 C 253.925781 53.617188 251.660156 52.140625 249.355469 50.730469 C 247.050781 49.320312 244.707031 47.96875 242.328125 46.6875 C 239.949219 45.402344 237.535156 44.1875 235.085938 43.035156 C 232.640625 41.882812 230.164062 40.800781 227.660156 39.785156 C 223.277344 38.011719 218.816406 36.453125 214.285156 35.105469 C 209.753906 33.757812 205.167969 32.636719 200.53125 31.746094 C 191.226562 29.945312 181.835938 29.046875 172.363281 29.046875 C 167.628906 29.046875 162.910156 29.269531 158.210938 29.71875 C 153.511719 30.167969 148.839844 30.839844 144.195312 31.734375 C 134.894531 33.535156 125.851562 36.210938 117.070312 39.761719 C 115.128906 40.546875 113.203125 41.375 111.296875 42.242188 C 109.390625 43.109375 107.503906 44.019531 105.636719 44.964844 C 103.769531 45.914062 101.921875 46.898438 100.097656 47.925781 C 98.269531 48.953125 96.46875 50.015625 94.6875 51.117188 C 92.90625 52.21875 91.148438 53.359375 89.417969 54.535156 C 87.683594 55.714844 85.976562 56.925781 84.296875 58.175781 C 82.617188 59.425781 80.960938 60.710938 79.335938 62.027344 C 77.710938 63.347656 76.113281 64.703125 74.542969 66.089844 C 72.972656 67.476562 71.433594 68.894531 69.925781 70.347656 C 68.417969 71.800781 66.941406 73.285156 65.492188 74.800781 C 64.046875 76.3125 62.636719 77.859375 61.253906 79.433594 C 59.875 81.007812 58.527344 82.613281 57.214844 84.246094 C 55.902344 85.875 54.625 87.535156 53.382812 89.222656 C 52.140625 90.910156 50.9375 92.621094 49.765625 94.359375 C 48.597656 96.09375 47.464844 97.855469 46.371094 99.640625 C 45.277344 101.425781 44.21875 103.234375 43.199219 105.066406 C 42.183594 106.894531 41.203125 108.746094 40.265625 110.617188 C 39.324219 112.488281 38.425781 114.378906 37.566406 116.289062 C 36.707031 118.199219 35.886719 120.128906 35.109375 122.070312 C 34.332031 124.015625 33.597656 125.976562 32.902344 127.953125 C 32.207031 129.929688 31.554688 131.917969 30.945312 133.921875 C 30.335938 135.925781 29.765625 137.941406 29.242188 139.96875 C 28.71875 141.996094 28.238281 144.03125 27.796875 146.082031 C 27.359375 148.128906 26.964844 150.183594 26.613281 152.25 C 26.261719 154.3125 25.957031 156.386719 25.691406 158.460938 C 25.429688 160.539062 25.210938 162.621094 25.035156 164.710938 C 24.859375 166.796875 24.730469 168.886719 24.644531 170.980469 C 24.558594 173.070312 24.515625 175.164062 24.519531 177.257812 C 24.519531 179.351562 24.566406 181.445312 24.660156 183.539062 C 24.75 185.632812 24.886719 187.722656 25.066406 189.808594 C 25.246094 191.894531 25.46875 193.976562 25.738281 196.050781 C 26.003906 198.128906 26.316406 200.199219 26.671875 202.265625 C 28.339844 211.921875 30.949219 221.316406 34.5 230.453125 C 38.050781 239.585938 42.46875 248.277344 47.757812 256.527344 C 53.089844 264.84375 59.191406 272.546875 66.0625 279.636719 C 72.9375 286.730469 80.441406 293.070312 88.585938 298.660156 C 96.761719 304.285156 105.417969 309.03125 114.554688 312.902344 C 123.6875 316.773438 133.121094 319.691406 142.847656 321.65625 C 147.703125 322.636719 152.59375 323.375 157.523438 323.863281 C 162.460938 324.351562 167.410156 324.601562 172.367188 324.613281 Z M 172.367188 324.613281 " clip-rule="nonzero"/></clipPath><linearGradient x1="-0.0199872" gradientTransform="matrix(0, 0.23671, -0.23671, 0, 327.314267, 14.8465)" y1="654.5" x2="1308.334511" gradientUnits="userSpaceOnUse" y2="654.5" id="9a5652c10e"><stop stop-opacity="1" stop-color="rgb(31.759644%, 43.919373%, 100%)" offset="0"/><stop stop-opacity="1" stop-color="rgb(31.759644%, 43.919373%, 100%)" offset="0.25"/><stop stop-opacity="1" stop-color="rgb(31.759644%, 43.919373%, 100%)" offset="0.375"/><stop stop-opacity="1" stop-color="rgb(31.759644%, 43.919373%, 100%)" offset="0.4375"/><stop stop-opacity="1" stop-color="rgb(31.759644%, 43.919373%, 100%)" offset="0.46875"/><stop stop-opacity="1" stop-color="rgb(31.7276%, 44.006348%, 100%)" offset="0.484375"/><stop stop-opacity="1" stop-color="rgb(31.625366%, 44.293213%, 100%)" offset="0.488281"/><stop stop-opacity="1" stop-color="rgb(31.555176%, 44.491577%, 100%)" offset="0.492187"/><stop stop-opacity="1" stop-color="rgb(31.483459%, 44.688416%, 100%)" offset="0.496094"/><stop stop-opacity="1" stop-color="rgb(31.413269%, 44.88678%, 100%)" offset="0.5"/><stop stop-opacity="1" stop-color="rgb(31.343079%, 45.083618%, 100%)" offset="0.503906"/><stop stop-opacity="1" stop-color="rgb(31.272888%, 45.281982%, 100%)" offset="0.507812"/><stop stop-opacity="1" stop-color="rgb(31.201172%, 45.478821%, 100%)" offset="0.511719"/><stop stop-opacity="1" stop-color="rgb(31.130981%, 45.677185%, 100%)" offset="0.515625"/><stop stop-opacity="1" stop-color="rgb(31.060791%, 45.874023%, 100%)" offset="0.519531"/><stop stop-opacity="1" stop-color="rgb(30.990601%, 46.072388%, 100%)" offset="0.523438"/><stop stop-opacity="1" stop-color="rgb(30.918884%, 46.269226%, 100%)" offset="0.527344"/><stop stop-opacity="1" stop-color="rgb(30.848694%, 46.46759%, 100%)" offset="0.53125"/><stop stop-opacity="1" stop-color="rgb(30.778503%, 46.665955%, 100%)" offset="0.535156"/><stop stop-opacity="1" stop-color="rgb(30.708313%, 46.864319%, 100%)" offset="0.539063"/><stop stop-opacity="1" stop-color="rgb(30.636597%, 47.061157%, 100%)" offset="0.542969"/><stop stop-opacity="1" stop-color="rgb(30.566406%, 47.259521%, 100%)" offset="0.546875"/><stop stop-opacity="1" stop-color="rgb(30.496216%, 47.45636%, 100%)" offset="0.550781"/><stop stop-opacity="1" stop-color="rgb(30.426025%, 47.654724%, 100%)" offset="0.554688"/><stop stop-opacity="1" stop-color="rgb(30.354309%, 47.851562%, 100%)" offset="0.558594"/><stop stop-opacity="1" stop-color="rgb(30.284119%, 48.049927%, 100%)" offset="0.5625"/><stop stop-opacity="1" stop-color="rgb(30.213928%, 48.246765%, 100%)" offset="0.566406"/><stop stop-opacity="1" stop-color="rgb(30.143738%, 48.445129%, 100%)" offset="0.570313"/><stop stop-opacity="1" stop-color="rgb(30.072021%, 48.643494%, 100%)" offset="0.574219"/><stop stop-opacity="1" stop-color="rgb(30.001831%, 48.841858%, 100%)" offset="0.578125"/><stop stop-opacity="1" stop-color="rgb(29.931641%, 49.038696%, 100%)" offset="0.582031"/><stop stop-opacity="1" stop-color="rgb(29.86145%, 49.237061%, 100%)" offset="0.585938"/><stop stop-opacity="1" stop-color="rgb(29.789734%, 49.433899%, 100%)" offset="0.589844"/><stop stop-opacity="1" stop-color="rgb(29.719543%, 49.632263%, 100%)" offset="0.59375"/><stop stop-opacity="1" stop-color="rgb(29.649353%, 49.829102%, 100%)" offset="0.597656"/><stop stop-opacity="1" stop-color="rgb(29.579163%, 50.027466%, 100%)" offset="0.601563"/><stop stop-opacity="1" stop-color="rgb(29.507446%, 50.224304%, 100%)" offset="0.605469"/><stop stop-opacity="1" stop-color="rgb(29.437256%, 50.422668%, 100%)" offset="0.609375"/><stop stop-opacity="1" stop-color="rgb(29.367065%, 50.619507%, 100%)" offset="0.613281"/><stop stop-opacity="1" stop-color="rgb(29.296875%, 50.817871%, 100%)" offset="0.617188"/><stop stop-opacity="1" stop-color="rgb(29.225159%, 51.016235%, 100%)" offset="0.621094"/><stop stop-opacity="1" stop-color="rgb(29.154968%, 51.2146%, 100%)" offset="0.625"/><stop stop-opacity="1" stop-color="rgb(29.083252%, 51.411438%, 100%)" offset="0.628906"/><stop stop-opacity="1" stop-color="rgb(29.013062%, 51.609802%, 100%)" offset="0.632813"/><stop stop-opacity="1" stop-color="rgb(28.942871%, 51.806641%, 100%)" offset="0.636719"/><stop stop-opacity="1" stop-color="rgb(28.872681%, 52.005005%, 100%)" offset="0.640625"/><stop stop-opacity="1" stop-color="rgb(28.800964%, 52.201843%, 100%)" offset="0.644531"/><stop stop-opacity="1" stop-color="rgb(28.730774%, 52.400208%, 100%)" offset="0.648438"/><stop stop-opacity="1" stop-color="rgb(28.660583%, 52.597046%, 100%)" offset="0.652344"/><stop stop-opacity="1" stop-color="rgb(28.590393%, 52.79541%, 100%)" offset="0.65625"/><stop stop-opacity="1" stop-color="rgb(28.518677%, 52.992249%, 100%)" offset="0.660156"/><stop stop-opacity="1" stop-color="rgb(28.448486%, 53.190613%, 100%)" offset="0.664063"/><stop stop-opacity="1" stop-color="rgb(28.378296%, 53.388977%, 100%)" offset="0.667969"/><stop stop-opacity="1" stop-color="rgb(28.308105%, 53.587341%, 100%)" offset="0.671875"/><stop stop-opacity="1" stop-color="rgb(28.236389%, 53.78418%, 100%)" offset="0.675781"/><stop stop-opacity="1" stop-color="rgb(28.166199%, 53.982544%, 100%)" offset="0.679688"/><stop stop-opacity="1" stop-color="rgb(28.096008%, 54.179382%, 100%)" offset="0.683594"/><stop stop-opacity="1" stop-color="rgb(28.025818%, 54.377747%, 100%)" offset="0.6875"/><stop stop-opacity="1" stop-color="rgb(27.954102%, 54.574585%, 100%)" offset="0.691406"/><stop stop-opacity="1" stop-color="rgb(27.883911%, 54.772949%, 100%)" offset="0.695313"/><stop stop-opacity="1" stop-color="rgb(27.813721%, 54.969788%, 100%)" offset="0.699219"/><stop stop-opacity="1" stop-color="rgb(27.74353%, 55.168152%, 100%)" offset="0.703125"/><stop stop-opacity="1" stop-color="rgb(27.671814%, 55.366516%, 100%)" offset="0.707031"/><stop stop-opacity="1" stop-color="rgb(27.601624%, 55.56488%, 100%)" offset="0.710938"/><stop stop-opacity="1" stop-color="rgb(27.531433%, 55.761719%, 100%)" offset="0.714844"/><stop stop-opacity="1" stop-color="rgb(27.461243%, 55.960083%, 100%)" offset="0.71875"/><stop stop-opacity="1" stop-color="rgb(27.389526%, 56.156921%, 100%)" offset="0.722656"/><stop stop-opacity="1" stop-color="rgb(27.319336%, 56.355286%, 100%)" offset="0.726563"/><stop stop-opacity="1" stop-color="rgb(27.249146%, 56.552124%, 100%)" offset="0.730469"/><stop stop-opacity="1" stop-color="rgb(27.178955%, 56.750488%, 100%)" offset="0.734375"/><stop stop-opacity="1" stop-color="rgb(27.107239%, 56.947327%, 100%)" offset="0.738281"/><stop stop-opacity="1" stop-color="rgb(27.037048%, 57.145691%, 100%)" offset="0.742188"/><stop stop-opacity="1" stop-color="rgb(26.965332%, 57.342529%, 100%)" offset="0.746094"/><stop stop-opacity="1" stop-color="rgb(26.895142%, 57.540894%, 100%)" offset="0.75"/><stop stop-opacity="1" stop-color="rgb(26.824951%, 57.739258%, 100%)" offset="0.753906"/><stop stop-opacity="1" stop-color="rgb(26.754761%, 57.937622%, 100%)" offset="0.757813"/><stop stop-opacity="1" stop-color="rgb(26.683044%, 58.13446%, 100%)" offset="0.761719"/><stop stop-opacity="1" stop-color="rgb(26.612854%, 58.332825%, 100%)" offset="0.765625"/><stop stop-opacity="1" stop-color="rgb(26.542664%, 58.529663%, 100%)" offset="0.769531"/><stop stop-opacity="1" stop-color="rgb(26.472473%, 58.728027%, 100%)" offset="0.773438"/><stop stop-opacity="1" stop-color="rgb(26.400757%, 58.924866%, 100%)" offset="0.777344"/><stop stop-opacity="1" stop-color="rgb(26.330566%, 59.12323%, 100%)" offset="0.78125"/><stop stop-opacity="1" stop-color="rgb(26.260376%, 59.320068%, 100%)" offset="0.785156"/><stop stop-opacity="1" stop-color="rgb(26.190186%, 59.518433%, 100%)" offset="0.789063"/><stop stop-opacity="1" stop-color="rgb(26.118469%, 59.715271%, 100%)" offset="0.792969"/><stop stop-opacity="1" stop-color="rgb(26.048279%, 59.913635%, 100%)" offset="0.796875"/><stop stop-opacity="1" stop-color="rgb(25.978088%, 60.112%, 100%)" offset="0.800781"/><stop stop-opacity="1" stop-color="rgb(25.907898%, 60.310364%, 100%)" offset="0.804688"/><stop stop-opacity="1" stop-color="rgb(25.836182%, 60.507202%, 100%)" offset="0.808594"/><stop stop-opacity="1" stop-color="rgb(25.765991%, 60.705566%, 100%)" offset="0.8125"/><stop stop-opacity="1" stop-color="rgb(25.695801%, 60.902405%, 100%)" offset="0.816406"/><stop stop-opacity="1" stop-color="rgb(25.62561%, 61.100769%, 100%)" offset="0.820313"/><stop stop-opacity="1" stop-color="rgb(25.553894%, 61.297607%, 100%)" offset="0.824219"/><stop stop-opacity="1" stop-color="rgb(25.483704%, 61.495972%, 100%)" offset="0.828125"/><stop stop-opacity="1" stop-color="rgb(25.413513%, 61.69281%, 100%)" offset="0.832031"/><stop stop-opacity="1" stop-color="rgb(25.343323%, 61.891174%, 100%)" offset="0.835938"/><stop stop-opacity="1" stop-color="rgb(25.271606%, 62.089539%, 100%)" offset="0.839844"/><stop stop-opacity="1" stop-color="rgb(25.201416%, 62.287903%, 100%)" offset="0.84375"/><stop stop-opacity="1" stop-color="rgb(25.131226%, 62.484741%, 100%)" offset="0.847656"/><stop stop-opacity="1" stop-color="rgb(25.061035%, 62.683105%, 100%)" offset="0.851563"/><stop stop-opacity="1" stop-color="rgb(24.989319%, 62.879944%, 100%)" offset="0.855469"/><stop stop-opacity="1" stop-color="rgb(24.919128%, 63.078308%, 100%)" offset="0.859375"/><stop stop-opacity="1" stop-color="rgb(24.848938%, 63.275146%, 100%)" offset="0.863281"/><stop stop-opacity="1" stop-color="rgb(24.778748%, 63.473511%, 100%)" offset="0.867188"/><stop stop-opacity="1" stop-color="rgb(24.707031%, 63.670349%, 100%)" offset="0.871094"/><stop stop-opacity="1" stop-color="rgb(24.636841%, 63.868713%, 100%)" offset="0.875"/><stop stop-opacity="1" stop-color="rgb(24.565125%, 64.065552%, 100%)" offset="0.878906"/><stop stop-opacity="1" stop-color="rgb(24.494934%, 64.263916%, 100%)" offset="0.882813"/><stop stop-opacity="1" stop-color="rgb(24.424744%, 64.46228%, 100%)" offset="0.886719"/><stop stop-opacity="1" stop-color="rgb(24.354553%, 64.660645%, 100%)" offset="0.890625"/><stop stop-opacity="1" stop-color="rgb(24.282837%, 64.857483%, 100%)" offset="0.894531"/><stop stop-opacity="1" stop-color="rgb(24.212646%, 65.055847%, 100%)" offset="0.898438"/><stop stop-opacity="1" stop-color="rgb(24.142456%, 65.252686%, 100%)" offset="0.902344"/><stop stop-opacity="1" stop-color="rgb(24.072266%, 65.45105%, 100%)" offset="0.90625"/><stop stop-opacity="1" stop-color="rgb(24.000549%, 65.647888%, 100%)" offset="0.910156"/><stop stop-opacity="1" stop-color="rgb(23.930359%, 65.846252%, 100%)" offset="0.914063"/><stop stop-opacity="1" stop-color="rgb(23.860168%, 66.043091%, 100%)" offset="0.917969"/><stop stop-opacity="1" stop-color="rgb(23.789978%, 66.241455%, 100%)" offset="0.921875"/><stop stop-opacity="1" stop-color="rgb(23.718262%, 66.439819%, 100%)" offset="0.925781"/><stop stop-opacity="1" stop-color="rgb(23.648071%, 66.638184%, 100%)" offset="0.929688"/><stop stop-opacity="1" stop-color="rgb(23.577881%, 66.835022%, 100%)" offset="0.933594"/><stop stop-opacity="1" stop-color="rgb(23.50769%, 67.033386%, 100%)" offset="0.9375"/><stop stop-opacity="1" stop-color="rgb(23.435974%, 67.230225%, 100%)" offset="0.941406"/><stop stop-opacity="1" stop-color="rgb(23.365784%, 67.428589%, 100%)" offset="0.945313"/><stop stop-opacity="1" stop-color="rgb(23.295593%, 67.625427%, 100%)" offset="0.949219"/><stop stop-opacity="1" stop-color="rgb(23.225403%, 67.823792%, 100%)" offset="0.953125"/><stop stop-opacity="1" stop-color="rgb(23.153687%, 68.02063%, 100%)" offset="0.957031"/><stop stop-opacity="1" stop-color="rgb(23.083496%, 68.218994%, 100%)" offset="0.960938"/><stop stop-opacity="1" stop-color="rgb(23.013306%, 68.415833%, 100%)" offset="0.964844"/><stop stop-opacity="1" stop-color="rgb(22.943115%, 68.614197%, 100%)" offset="0.96875"/><stop stop-opacity="1" stop-color="rgb(22.871399%, 68.812561%, 100%)" offset="0.972656"/><stop stop-opacity="1" stop-color="rgb(22.801208%, 69.010925%, 100%)" offset="0.976563"/><stop stop-opacity="1" stop-color="rgb(22.731018%, 69.207764%, 100%)" offset="0.980469"/><stop stop-opacity="1" stop-color="rgb(22.660828%, 69.406128%, 100%)" offset="0.984375"/><stop stop-opacity="1" stop-color="rgb(22.589111%, 69.602966%, 100%)" offset="0.988281"/><stop stop-opacity="1" stop-color="rgb(22.518921%, 69.801331%, 100%)" offset="0.992187"/><stop stop-opacity="1" stop-color="rgb(22.44873%, 69.998169%, 100%)" offset="0.996094"/><stop stop-opacity="1" stop-color="rgb(22.37854%, 70.196533%, 100%)" offset="1"/></linearGradient><clipPath id="4cf434a746"><path d="M 66 119.242188 L 275 119.242188 L 275 324.742188 L 66 324.742188 Z M 66 119.242188 " clip-rule="nonzero"/></clipPath><clipPath id="d0301c66de"><path d="M 0.238281 0.242188 L 115 0.242188 L 115 205.742188 L 0.238281 205.742188 Z M 0.238281 0.242188 " clip-rule="nonzero"/></clipPath><clipPath id="429f643c9a"><path d="M 121 12 L 208 12 L 208 169 L 121 169 Z M 121 12 " clip-rule="nonzero"/></clipPath><clipPath id="140e24e572"><path d="M 187.570312 12.742188 C 189.539062 22.621094 184.597656 32.808594 177.488281 39.921875 C 170.375 47.03125 161.277344 51.765625 152.585938 56.847656 C 143.894531 61.933594 135.226562 67.710938 129.753906 76.175781 C 125 83.535156 123.074219 92.347656 122.070312 101.058594 C 120.859375 111.589844 121.023438 122.679688 124.386719 132.617188 C 126.824219 126.632812 130 120.894531 133.628906 115.546875 C 140.738281 105.011719 149.492188 95.707031 158.203125 86.464844 C 168.386719 75.664062 178.554688 64.863281 188.738281 54.0625 C 178.203125 73.820312 161.871094 89.722656 148.054688 107.371094 C 134.242188 124.996094 122.480469 146.042969 123.769531 168.402344 C 124.792969 156.96875 134.078125 147.886719 144.140625 142.355469 C 154.203125 136.820312 165.496094 133.746094 175.4375 127.964844 C 194.210938 116.980469 206.835938 96.160156 207.820312 74.453125 C 208.804688 52.503906 198.78125 31.640625 187.570312 12.742188 Z M 187.570312 12.742188 " clip-rule="nonzero"/></clipPath><linearGradient x1="-1204.20996" gradientTransform="matrix(0.204949, 0, 0, 0.204949, 411.436605, 0.24206)" y1="61" x2="-1204.20996" gradientUnits="userSpaceOnUse" y2="820.50006" id="f1c0960ad2"><stop stop-opacity="1" stop-color="rgb(21.148682%, 66.758728%, 97.921753%)" offset="0"/><stop stop-opacity="1" stop-color="rgb(21.122742%, 66.610718%, 97.854614%)" offset="0.0625"/><stop stop-opacity="1" stop-color="rgb(21.070862%, 66.314697%, 97.720337%)" offset="0.125"/><stop stop-opacity="1" stop-color="rgb(21.017456%, 66.017151%, 97.587585%)" offset="0.1875"/><stop stop-opacity="1" stop-color="rgb(20.965576%, 65.72113%, 97.453308%)" offset="0.25"/><stop stop-opacity="1" stop-color="rgb(20.913696%, 65.42511%, 97.320557%)" offset="0.3125"/><stop stop-opacity="1" stop-color="rgb(20.861816%, 65.129089%, 97.186279%)" offset="0.375"/><stop stop-opacity="1" stop-color="rgb(20.809937%, 64.833069%, 97.053528%)" offset="0.4375"/><stop stop-opacity="1" stop-color="rgb(20.758057%, 64.535522%, 96.91925%)" offset="0.5"/><stop stop-opacity="1" stop-color="rgb(20.706177%, 64.239502%, 96.786499%)" offset="0.5625"/><stop stop-opacity="1" stop-color="rgb(20.652771%, 63.943481%, 96.652222%)" offset="0.625"/><stop stop-opacity="1" stop-color="rgb(20.600891%, 63.647461%, 96.51947%)" offset="0.6875"/><stop stop-opacity="1" stop-color="rgb(20.549011%, 63.35144%, 96.385193%)" offset="0.75"/><stop stop-opacity="1" stop-color="rgb(20.497131%, 63.053894%, 96.252441%)" offset="0.8125"/><stop stop-opacity="1" stop-color="rgb(20.445251%, 62.757874%, 96.118164%)" offset="0.875"/><stop stop-opacity="1" stop-color="rgb(20.393372%, 62.461853%, 95.985413%)" offset="0.9375"/><stop stop-opacity="1" stop-color="rgb(20.339966%, 62.165833%, 95.851135%)" offset="1"/></linearGradient><clipPath id="383ed718a2"><rect x="0" width="209" y="0" height="206"/></clipPath><clipPath id="a6be02844e"><path d="M 154 87.230469 L 209 87.230469 L 209 187.730469 L 154 187.730469 Z M 154 87.230469 " clip-rule="nonzero"/></clipPath><clipPath id="dfe3aadcc0"><path d="M 208.542969 130.324219 C 207.738281 121.675781 204.042969 113.484375 199.039062 106.378906 C 194.03125 99.273438 187.738281 93.1875 181.257812 87.40625 C 183.851562 92.730469 182.648438 99.265625 179.679688 104.390625 C 176.710938 109.511719 172.214844 113.53125 167.863281 117.546875 C 163.507812 121.546875 159.136719 125.761719 156.542969 131.085938 C 153.703125 136.917969 150.625 152.726562 164.050781 163.382812 C 165.121094 154.882812 165.714844 152.015625 168.320312 146.371094 C 170.929688 140.730469 175.015625 135.933594 178.519531 130.800781 C 182.019531 125.667969 185.046875 119.851562 185.019531 113.640625 C 185.40625 118.464844 183.792969 123.238281 181.601562 127.550781 C 179.414062 131.863281 176.644531 135.867188 174.472656 140.179688 C 170.535156 147.984375 167.59375 159.078125 167.601562 187.496094 C 167.710938 184.136719 168.914062 180.734375 170.796875 177.859375 C 171.070312 177.433594 171.363281 177.023438 171.664062 176.621094 C 171.890625 176.328125 172.125 176.035156 172.359375 175.753906 C 176.078125 171.3125 181.191406 168.230469 186.242188 165.347656 C 191.605469 162.269531 197.148438 159.210938 201.253906 154.582031 C 207.011719 148.09375 209.335938 138.976562 208.542969 130.324219 Z M 208.542969 130.324219 " clip-rule="nonzero"/></clipPath><linearGradient x1="2460.78" gradientTransform="matrix(-0.0835825, 0, 0, 0.0835825, 387.063345, 87.229708)" y1="2.099942" x2="2460.78" gradientUnits="userSpaceOnUse" y2="1199.599924" id="8b29c6c0d8"><stop stop-opacity="1" stop-color="rgb(48.48938%, 86.735535%, 76.325989%)" offset="0"/><stop stop-opacity="1" stop-color="rgb(48.591614%, 86.714172%, 76.16272%)" offset="0.03125"/><stop stop-opacity="1" stop-color="rgb(48.794556%, 86.672974%, 75.834656%)" offset="0.0625"/><stop stop-opacity="1" stop-color="rgb(48.999023%, 86.630249%, 75.508118%)" offset="0.09375"/><stop stop-opacity="1" stop-color="rgb(49.203491%, 86.587524%, 75.180054%)" offset="0.125"/><stop stop-opacity="1" stop-color="rgb(49.407959%, 86.5448%, 74.853516%)" offset="0.15625"/><stop stop-opacity="1" stop-color="rgb(49.610901%, 86.503601%, 74.525452%)" offset="0.1875"/><stop stop-opacity="1" stop-color="rgb(49.815369%, 86.460876%, 74.198914%)" offset="0.21875"/><stop stop-opacity="1" stop-color="rgb(50.019836%, 86.418152%, 73.87085%)" offset="0.25"/><stop stop-opacity="1" stop-color="rgb(50.224304%, 86.375427%, 73.544312%)" offset="0.28125"/><stop stop-opacity="1" stop-color="rgb(50.427246%, 86.332703%, 73.216248%)" offset="0.3125"/><stop stop-opacity="1" stop-color="rgb(50.631714%, 86.291504%, 72.889709%)" offset="0.34375"/><stop stop-opacity="1" stop-color="rgb(50.836182%, 86.248779%, 72.561646%)" offset="0.375"/><stop stop-opacity="1" stop-color="rgb(51.040649%, 86.206055%, 72.235107%)" offset="0.40625"/><stop stop-opacity="1" stop-color="rgb(51.243591%, 86.16333%, 71.907043%)" offset="0.4375"/><stop stop-opacity="1" stop-color="rgb(51.448059%, 86.122131%, 71.580505%)" offset="0.46875"/><stop stop-opacity="1" stop-color="rgb(51.652527%, 86.079407%, 71.252441%)" offset="0.5"/><stop stop-opacity="1" stop-color="rgb(51.856995%, 86.036682%, 70.925903%)" offset="0.53125"/><stop stop-opacity="1" stop-color="rgb(52.059937%, 85.993958%, 70.597839%)" offset="0.5625"/><stop stop-opacity="1" stop-color="rgb(52.264404%, 85.952759%, 70.271301%)" offset="0.59375"/><stop stop-opacity="1" stop-color="rgb(52.468872%, 85.910034%, 69.943237%)" offset="0.625"/><stop stop-opacity="1" stop-color="rgb(52.67334%, 85.86731%, 69.616699%)" offset="0.65625"/><stop stop-opacity="1" stop-color="rgb(52.876282%, 85.824585%, 69.288635%)" offset="0.6875"/><stop stop-opacity="1" stop-color="rgb(53.08075%, 85.783386%, 68.962097%)" offset="0.71875"/><stop stop-opacity="1" stop-color="rgb(53.285217%, 85.740662%, 68.634033%)" offset="0.75"/><stop stop-opacity="1" stop-color="rgb(53.489685%, 85.697937%, 68.307495%)" offset="0.78125"/><stop stop-opacity="1" stop-color="rgb(53.692627%, 85.655212%, 67.979431%)" offset="0.8125"/><stop stop-opacity="1" stop-color="rgb(53.897095%, 85.614014%, 67.652893%)" offset="0.84375"/><stop stop-opacity="1" stop-color="rgb(54.101562%, 85.571289%, 67.324829%)" offset="0.875"/><stop stop-opacity="1" stop-color="rgb(54.30603%, 85.528564%, 66.998291%)" offset="0.90625"/><stop stop-opacity="1" stop-color="rgb(54.508972%, 85.48584%, 66.670227%)" offset="0.9375"/><stop stop-opacity="1" stop-color="rgb(54.71344%, 85.444641%, 66.342163%)" offset="0.96875"/><stop stop-opacity="1" stop-color="rgb(54.917908%, 85.401917%, 66.015625%)" offset="1"/></linearGradient><clipPath id="f9b99f0d38"><path d="M 152 87.230469 L 209.070312 87.230469 L 209.070312 187.730469 L 152 187.730469 Z M 152 87.230469 " clip-rule="nonzero"/></clipPath></defs><g clip-path="url(#cec44f8aa2)"><g clip-path="url(#7fbc2627fe)"><path fill="url(#9a5652c10e)" d="M 327.3125 14.839844 L 17.449219 14.839844 L 17.449219 324.542969 L 327.3125 324.542969 Z M 327.3125 14.839844 " fill-rule="nonzero"/></g></g><g clip-path="url(#4cf434a746)"><g transform="matrix(1, 0, 0, 1, 66, 119)"><g clip-path="url(#383ed718a2)"><g clip-path="url(#d0301c66de)"><path fill="#1800ad" d="M 27.175781 0.242188 C 24.574219 13.277344 31.089844 26.722656 40.476562 36.109375 C 49.863281 45.515625 61.875 51.746094 73.332031 58.449219 C 84.808594 65.148438 96.265625 72.792969 103.460938 83.964844 C 109.730469 93.679688 112.292969 105.320312 113.605469 116.796875 C 115.242188 130.734375 115.019531 145.347656 110.589844 158.464844 C 107.375 150.550781 103.171875 142.988281 98.398438 135.917969 C 89.011719 122.003906 77.453125 109.726562 65.953125 97.511719 C 52.507812 83.246094 39.085938 69.003906 25.640625 54.738281 C 39.554688 80.808594 61.117188 101.835938 79.335938 125.097656 C 97.558594 148.378906 113.09375 176.171875 111.390625 205.683594 C 110.039062 190.578125 97.78125 178.589844 84.480469 171.292969 C 71.179688 163.996094 56.28125 159.917969 43.183594 152.292969 C 18.40625 137.867188 1.742188 110.363281 0.453125 81.710938 C -0.859375 52.730469 12.359375 25.164062 27.175781 0.242188 Z M 27.175781 0.242188 " fill-opacity="1" fill-rule="nonzero"/></g><g clip-path="url(#429f643c9a)"><g clip-path="url(#140e24e572)"><path fill="url(#f1c0960ad2)" d="M 120.859375 12.742188 L 120.859375 168.402344 L 208.320312 168.402344 L 208.320312 12.742188 Z M 120.859375 12.742188 " fill-rule="nonzero"/></g></g></g></g></g><g clip-path="url(#a6be02844e)"><g clip-path="url(#dfe3aadcc0)"><path fill="url(#8b29c6c0d8)" d="M 209.070312 87.40625 L 209.070312 187.496094 L 150.625 187.496094 L 150.625 87.40625 Z M 209.070312 87.40625 " fill-rule="nonzero"/></g></g><g clip-path="url(#f9b99f0d38)"><path stroke-linecap="butt" transform="matrix(0.0835825, 0, 0, 0.0835825, 154.036883, 87.229703)" fill="none" stroke-linejoin="miter" d="M 652.122803 515.59227 C 642.495345 412.12046 598.283813 314.116673 538.415977 229.105281 C 478.501406 144.093889 403.210943 71.280394 325.677189 2.112246 C 356.709385 65.812371 342.314933 144.000419 306.796154 205.317047 C 271.277376 266.586939 217.485121 314.677496 165.422069 362.721317 C 113.312283 410.578197 61.015555 461.005515 29.983359 524.70564 C -3.993156 594.481346 -40.820521 783.61884 119.80848 911.112561 C 132.613935 809.41669 139.71769 775.113028 170.890092 707.580614 C 202.109229 640.094935 250.994284 582.704067 292.915789 521.293968 C 334.79056 459.88387 371.010367 390.295105 370.68322 315.986082 C 375.310008 373.704097 356.008356 430.814554 329.78989 482.410253 C 303.618158 534.005952 270.482877 581.909568 244.498086 633.505267 C 197.38897 726.882266 162.197338 859.610332 162.290809 1199.609164 C 163.599395 1159.416862 177.993847 1118.710473 200.520231 1084.31334 C 203.791697 1079.2192 207.29684 1074.312 210.895453 1069.498271 C 213.606096 1065.993128 216.41021 1062.487986 219.214324 1059.123049 C 263.706268 1005.985087 324.88269 969.110987 385.311348 934.620384 C 449.478826 897.793019 515.796124 861.19933 564.914855 805.818077 C 633.802591 728.190852 661.610056 619.110814 652.122803 515.59227 Z M 652.122803 515.59227 " stroke="#ffffff" stroke-width="1" stroke-opacity="1" stroke-miterlimit="10"/></g></svg>